<svg xmlns="http://www.w3.org/2000/svg" xmlns:xlink="http://www.w3.org/1999/xlink" width="447" height="334" viewBox="0 0 447 334"><defs><linearGradient id="a" x1="0.934" y1="0.075" x2="0.077" y2="0.914" gradientUnits="objectBoundingBox"><stop offset="0" stop-color="#1a6bb2"/><stop offset="1" stop-color="#1b4b92"/></linearGradient><linearGradient id="b" y1="0.5" x2="1" y2="0.5" gradientUnits="objectBoundingBox"><stop offset="0" stop-color="#1b4b92"/><stop offset="1" stop-color="#1a5cb2"/></linearGradient><clipPath id="c"><path d="M93.9,87.009c0-1.767.018-3.538.018-5.3h0C93.91,83.472,93.9,85.243,93.9,87.009Z" transform="translate(-93.896 -81.705)" fill="none"/></clipPath><clipPath id="d"><path d="M51.992,96.318l.027-7.861c-.009,2.561,1.685,5.127,5.073,7.089l-.027,7.852C53.681,101.44,51.987,98.879,51.992,96.318Z" transform="translate(-51.992 -88.457)" fill="#95c4de"/></clipPath></defs><g transform="translate(-187 -1408)"><rect width="447" height="334" transform="translate(187 1408)" fill="none"/><g transform="translate(187 1413.084)"><g transform="translate(0.179 65.47)" opacity="0.1"><path d="M464.288,151.019c6.562,3.76,6.594,9.886.1,13.692l-12.938,7.575L211.484,312.7l-20.013,11.712c-6.5,3.8-17.052,3.828-23.619.068L27.633,244.091c-6.557-3.765-6.612-9.877-.114-13.678l272.913-159.7c6.5-3.81,17.075-3.851,23.642-.086Z" transform="translate(-22.68 -67.829)"/></g><path d="M134.992,76.4a5.815,5.815,0,0,1-.286,1.721l-.055.182a7.294,7.294,0,0,1-.8,1.567c-.064.086-.118.168-.177.259A10.187,10.187,0,0,1,132.34,81.6a13.246,13.246,0,0,1-1.181.872c-.345.245-.64.5-1.035.736l-12.965,7.534L117.1,112.55l12.961-7.534.2-.123c.313-.186.531-.4.808-.595a11.832,11.832,0,0,0,1.2-.895.978.978,0,0,0,.109-.082,8.841,8.841,0,0,0,1.044-1.117,2.975,2.975,0,0,0,.177-.263c.068-.091.123-.177.182-.268.1-.159.227-.309.318-.472a7.19,7.19,0,0,0,.445-.949,1.453,1.453,0,0,0,.041-.15c.023-.054.032-.114.05-.168a5.329,5.329,0,0,0,.177-.622,5.734,5.734,0,0,0,.109-.958v-.132l0-.014q.027-9.509.055-19.014l0-2.648Z" transform="translate(311.857 28)" fill="#a9d6ea"/><path d="M27.632,100.464c-3.288-1.9-4.936-4.4-4.932-6.889l-.059,21.807c-.009,2.493,1.639,4.986,4.941,6.889l139.964,80.811.064-21.807Z" transform="translate(-22.641 88.813)" fill="#95c4de"/><path d="M78.232,121.97a18.294,18.294,0,0,1-3.292,1.449c-.418.145-.836.268-1.267.391-.545.15-1.09.291-1.658.409-.672.141-1.358.268-2.048.354-.159.023-.318.05-.477.068-.936.1-1.885.15-2.829.159h-.4c-.94,0-1.876-.059-2.806-.154-.127-.014-.263-.032-.391-.045a26.3,26.3,0,0,1-2.707-.463c-.145-.036-.3-.077-.454-.114a20.776,20.776,0,0,1-2.352-.718c-.123-.045-.259-.077-.381-.123a19.417,19.417,0,0,1-2.552-1.213l-.064,21.807a18.518,18.518,0,0,0,2.416,1.158c.045.023.091.032.136.05.127.05.263.086.4.127.495.182.99.363,1.5.513.272.077.554.136.84.2.15.041.3.077.459.114s.291.077.445.109c.545.109,1.1.209,1.653.286.2.023.386.041.577.064l.44.05c.2.018.4.05.6.068.54.045,1.085.077,1.639.086.173,0,.345,0,.513,0s.3,0,.45,0c.25,0,.5,0,.745,0,.613-.023,1.235-.068,1.848-.123.073-.009.145-.027.213-.032.163-.018.327-.05.486-.068.481-.059.963-.114,1.426-.2.209-.036.4-.109.609-.15.568-.123,1.117-.263,1.671-.418.286-.077.6-.127.886-.213.132-.05.245-.127.377-.173a18.766,18.766,0,0,0,3.292-1.449l20.049-11.648.059-21.807Z" transform="translate(90.355 148.117)" fill="#a9d6ea"/><g transform="translate(0.058 13.874)"><path d="M464.518,140.111c6.553,3.778,6.571,9.909.059,13.692l-12.965,7.534-240.379,139.7-20.049,11.648c-6.512,3.783-17.066,3.783-23.619,0L27.586,231.87c-6.548-3.787-6.58-9.9-.073-13.683L300.9,59.309c6.512-3.783,17.089-3.792,23.646-.009Z" transform="translate(-22.654 -56.467)" fill="#def6ff"/></g><g transform="translate(24.969 24.249)"><path d="M432.188,153.247,191.806,292.942,28.139,198.453l240.379-139.7Z" transform="translate(-28.139 -58.752)" fill="url(#a)"/></g><g transform="translate(329.44 48.988)"><path d="M153.282,93.192c1.753,1.013,1.8,3.079-.772,4.419-1.789.931-4.042,1.658-5.795.645l-50.9-28.9c-1.753-1.013.513-3.4,2.257-4.41a6.979,6.979,0,0,1,6.3,0Z" transform="translate(-95.186 -64.2)" fill="#75b2cc"/></g><g transform="translate(329.482 50.299)"><path d="M151.715,93.483c1.748,1.008,1.757,2.661.041,3.66a7.022,7.022,0,0,1-6.34,0L96.508,68.9c-1.757-1.008-1.744-2.648,0-3.66a6.955,6.955,0,0,1,6.294,0Z" transform="translate(-95.195 -64.488)" fill="#a9d6ea"/></g><g transform="translate(188.576 118.745)"><path d="M304.608,79.56l-.06,21.805L64.167,241.062l.059-21.807Z" transform="translate(-64.167 -79.56)" fill="url(#b)"/></g><g transform="translate(323.583 128.484)" style="isolation:isolate"><g clip-path="url(#c)"><g transform="translate(-0.109 -0.722)" style="isolation:isolate"><path d="M95.634,81.546l-.014,6a8.678,8.678,0,0,0-1.644.727.644.644,0,0,0-.1.064l.018-6.013L94,82.268a8.332,8.332,0,0,1,1.635-.722Z" transform="translate(-93.872 -81.546)" fill="#b8387b"/></g></g></g><g transform="translate(91.69 117.124)"><g transform="translate(41.599 14.77)"><g transform="translate(0.923 27.461)" opacity="0.1"><path d="M167.1,123.6c6.735,3.892,6.739,10.195.077,14.064l-12.593,7.32L137.31,155.027l-30.685,17.838L96.5,145.49,57.271,122.839c-6.739-3.887-6.771-10.177-.077-14.064L87.062,91.413c6.666-3.869,17.552-3.892,24.291,0Zm-26.829,16.92,4.555-2.652L85.2,103.439l-4.555,2.652,59.631,34.431Zm12.1-7.043,4.555-2.648L97.3,96.4l-4.559,2.652,59.635,34.422Zm-24.209,14.069,4.559-2.648L73.088,110.473l-4.555,2.648,59.631,34.427Z" transform="translate(-52.195 -88.503)"/></g><g transform="translate(40.553 7.901)"><path d="M65.491,84.2l-.013,7.859L60.922,94.7l.015-7.858Z" transform="translate(-60.922 -84.196)" fill="#c5c5c5"/></g><g transform="translate(28.449 14.937)"><path d="M62.83,85.745,62.813,93.6,58.257,96.25l.019-7.853Z" transform="translate(-58.257 -85.745)" fill="#c5c5c5"/></g><g transform="translate(16.341 21.97)"><path d="M60.168,87.294l-.023,7.858L55.59,97.8l.019-7.856Z" transform="translate(-55.59 -87.294)" fill="#c5c5c5"/></g><g transform="translate(0 27.252)"><path d="M51.992,96.318l.027-7.861c-.009,2.561,1.685,5.127,5.073,7.089l-.027,7.852C53.681,101.44,51.987,98.879,51.992,96.318Z" transform="translate(-51.992 -88.457)" fill="#95c4de"/><g clip-path="url(#d)"><g style="isolation:isolate"><path d="M57.092,95.546l-.027,7.852c-3.383-1.957-5.077-4.518-5.073-7.08l.027-7.861c-.009,2.561,1.685,5.127,5.073,7.089Z" transform="translate(-51.992 -88.457)" fill="#95c4de"/></g></g></g><g transform="translate(45.11 7.901)"><path d="M121.573,118.624l-.025,7.858L61.925,92.055l.013-7.859Z" transform="translate(-61.925 -84.196)" fill="#898989"/></g><g transform="translate(40.568 7.901)"><path d="M125.115,118.624l-4.556,2.649L60.925,86.844,65.48,84.2Z" transform="translate(-60.925 -84.196)" fill="#3fbad4"/></g><g transform="translate(100.178 42.329)"><path d="M78.632,91.777l-.025,7.858-4.554,2.647.024-7.856Z" transform="translate(-74.052 -91.777)" fill="#38a7be"/></g><g transform="translate(40.553 10.55)"><path d="M120.57,119.208l-.024,7.856L60.922,92.637l.015-7.858Z" transform="translate(-60.922 -84.779)" fill="#277484"/></g><g transform="translate(33.005 14.937)"><path d="M118.9,120.174l-.02,7.855L59.26,93.6l.017-7.858Z" transform="translate(-59.26 -85.745)" fill="#898989"/></g><g transform="translate(28.449 17.589)"><path d="M117.9,120.753l-.025,7.858L58.257,94.182l.019-7.853Z" transform="translate(-58.257 -86.329)" fill="#277484"/></g><g transform="translate(88.071 49.366)"><path d="M75.964,93.327l-.02,7.855-4.558,2.649.025-7.858Z" transform="translate(-71.386 -93.327)" fill="#38a7be"/></g><g transform="translate(28.468 14.937)"><path d="M122.442,120.174l-4.553,2.647L58.261,88.4l4.554-2.652Z" transform="translate(-58.261 -85.745)" fill="#3fbad4"/></g><g transform="translate(20.895 21.97)"><path d="M116.25,121.723l-.028,7.855L56.593,95.152l.023-7.858Z" transform="translate(-56.593 -87.294)" fill="#898989"/></g><g transform="translate(5.075 34.339)"><path d="M92.366,112.667l-.024,7.856L53.11,97.871l.025-7.853Z" transform="translate(-53.11 -90.018)" fill="#95c4de"/></g><g transform="translate(75.972 56.399)"><path d="M73.3,94.875l-.028,7.855-4.552,2.647.021-7.858Z" transform="translate(-68.721 -94.875)" fill="#38a7be"/></g><g transform="translate(16.341 24.623)"><path d="M115.243,122.3l-.021,7.858L55.59,95.73l.019-7.851Z" transform="translate(-55.59 -87.878)" fill="#277484"/></g><g transform="translate(0.024)"><path d="M166.9,117.555c6.739,3.887,6.744,10.195.082,14.064l-12.6,7.325-17.27,10.036-30.689,17.838L96.3,139.444,57.073,116.8C50.334,112.9,50.3,106.615,57,102.728L86.863,85.371c6.662-3.878,17.547-3.9,24.291,0Zm-26.834,16.916,4.555-2.648L85,97.392l-4.555,2.652,59.626,34.427Zm12.107-7.039,4.555-2.648L97.094,90.358,92.54,93.005l59.635,34.427ZM127.965,141.5l4.559-2.648L72.89,104.426l-4.555,2.648,59.63,34.427Z" transform="translate(-51.997 -82.456)" fill="#f8f9fd"/></g><g transform="translate(16.36 21.97)"><path d="M119.786,121.723l-4.558,2.645L55.594,89.947l4.558-2.653Z" transform="translate(-55.594 -87.294)" fill="#3fbad4"/></g><path d="M129.539,91.743a5.787,5.787,0,0,1-.3,1.767c-.018.068-.032.127-.055.2a6.966,6.966,0,0,1-.822,1.6,2.831,2.831,0,0,1-.182.272,9.706,9.706,0,0,1-1.381,1.521,13.175,13.175,0,0,1-1.126.836,11.964,11.964,0,0,1-1.122.795l-12.6,7.325L94.69,116.093,64,133.931l-.023,7.852,30.689-17.829,17.27-10.041,12.588-7.316c.077-.045.145-.086.213-.132.368-.213.627-.468.954-.7.368-.272.777-.527,1.09-.8.041-.036.1-.068.132-.1a10.668,10.668,0,0,0,1.058-1.14c.073-.091.118-.191.186-.282s.132-.186.191-.282a4.994,4.994,0,0,0,.313-.472,7.612,7.612,0,0,0,.463-.976c.018-.05.023-.1.041-.15s.036-.123.059-.191c.059-.209.136-.413.177-.627a6.49,6.49,0,0,0,.118-.985l0-1.067Z" transform="translate(-9.547 -49.569)" fill="#a9d6ea"/><g transform="translate(44.308 56.988)"><path d="M71.9,122.378l-.023,7.854L61.749,102.861l.024-7.856Z" transform="translate(-61.749 -95.005)" fill="#95c4de"/></g></g><path d="M82.628,85.889c-9.146-5.277-23.932-5.277-33.015,0s-9.037,13.846.109,19.123,23.914,5.268,33-.009S91.769,91.171,82.628,85.889Z" transform="translate(-42.832 -69.543)" opacity="0.1"/><g transform="translate(6.436)"><g transform="translate(7.348 6.962)"><path d="M70.957,82.014c2.952,1.7,2.961,4.455.032,6.158a10.858,10.858,0,0,1-5.445,1.281c1.044,2.171.341,4.759-2.08,7.112L45.867,86.41a25.969,25.969,0,0,1,12.261-1.24,3.668,3.668,0,0,1,2.184-3.161A11.742,11.742,0,0,1,70.957,82.014Z" transform="translate(-45.867 -80.737)" fill="#f8f9fd"/></g><path d="M90.878,83.016c-.027.227-.036.45-.082.681-.036.2-.1.418-.159.627s-.114.445-.186.663c-.073.2-.163.391-.25.586-.1.241-.209.486-.336.727-.1.163-.2.331-.3.495a8.873,8.873,0,0,1-.572.84c-.109.154-.236.3-.359.454-.309.368-.645.731-1.013,1.09-.127.118-.236.241-.368.354-.227.213-.49.413-.745.622-.209.159-.409.332-.631.49-.263.2-.554.381-.845.568s-.572.386-.886.568a24.217,24.217,0,0,1-3.261,1.549c-.3.123-.6.232-.895.341-.708.259-1.449.459-2.184.668-.777.218-1.562.427-2.366.586-.913.191-1.844.363-2.784.477-.245.032-.49.082-.74.109a38.425,38.425,0,0,1-3.9.218c-.213,0-.427,0-.636,0-1.3-.014-2.593-.082-3.874-.218-.186-.018-.381-.036-.568-.064a36.294,36.294,0,0,1-3.76-.636c-.223-.05-.436-.114-.654-.163a32.371,32.371,0,0,1-3.22-.981c-.2-.073-.409-.127-.6-.2a25.777,25.777,0,0,1-3.551-1.676c-4.6-2.652-6.9-6.14-6.889-9.623l-.014,6c-.014,3.483,2.284,6.971,6.884,9.627A25.826,25.826,0,0,0,54.5,99.41c.068.027.136.041.2.064.173.068.354.118.527.182.69.254,1.376.5,2.1.713.4.109.8.191,1.2.291.209.054.418.109.631.154s.4.1.6.15c.758.159,1.53.291,2.311.4.272.041.559.064.84.1.2.023.386.041.59.068.277.027.554.068.836.091.763.064,1.526.1,2.3.123.245,0,.495,0,.745,0h.6c.35,0,.7,0,1.044,0q1.3-.048,2.588-.177c.1-.009.2-.027.3-.036.241-.027.468-.073.708-.1.663-.086,1.321-.159,1.971-.277.286-.05.549-.15.84-.209.808-.163,1.58-.368,2.357-.59.4-.109.836-.173,1.226-.3.322-.109.627-.25.94-.359s.622-.232.931-.354a24.779,24.779,0,0,0,3.242-1.539c.1-.054.191-.114.286-.168.209-.123.377-.254.572-.381.3-.191.6-.381.872-.581.232-.168.431-.341.645-.509.25-.2.5-.4.731-.6.045-.041.1-.077.136-.114.091-.082.15-.177.236-.254a13.806,13.806,0,0,0,1-1.081c.068-.077.154-.15.213-.222s.1-.159.15-.232a8.689,8.689,0,0,0,.563-.836c.068-.109.163-.218.223-.332a1.479,1.479,0,0,0,.082-.173c.136-.241.241-.49.354-.74.054-.136.136-.272.186-.413A1.357,1.357,0,0,0,90.429,91c.077-.222.136-.454.2-.681.045-.168.109-.322.141-.49a1.154,1.154,0,0,0,.014-.136c.045-.222.059-.45.082-.672.018-.182.054-.354.059-.531v-.2l.018-6.013C90.937,82.53,90.9,82.771,90.878,83.016Z" transform="translate(-44.249 -68.709)" fill="#e1bb00"/><g transform="translate(0.016)"><path d="M84.044,83.161c9.146,5.281,9.178,13.837.091,19.114s-23.85,5.29-33,.009-9.191-13.842-.1-19.123S74.9,77.884,84.044,83.161ZM51.584,91.839l17.593,10.154c2.425-2.352,3.129-4.941,2.084-7.112A10.858,10.858,0,0,0,76.706,93.6c2.929-1.7,2.92-4.455-.032-6.158a11.742,11.742,0,0,0-10.645,0A3.668,3.668,0,0,0,63.845,90.6a25.969,25.969,0,0,0-12.261,1.24Z" transform="translate(-44.253 -79.203)" fill="#ffdf02"/></g></g></g><g transform="translate(181.333 71.893)"><path d="M102.363,76.33c-9.137-5.281-23.923-5.281-33.01,0s-9.037,13.842.109,19.123,23.914,5.268,33-.009S111.509,81.607,102.363,76.33Z" transform="translate(-62.572 -58.176)" opacity="0.1"/><g transform="translate(2.549)"><g transform="translate(7.343 6.958)"><path d="M89.845,72.057c2.952,1.7,2.961,4.455.036,6.158a10.767,10.767,0,0,1-5.449,1.272c1.049,2.18.341,4.764-2.084,7.121L64.75,76.449a26.1,26.1,0,0,1,12.261-1.24A3.693,3.693,0,0,1,79.2,72.048,11.728,11.728,0,0,1,89.845,72.057Z" transform="translate(-64.75 -70.776)" fill="#f8f9fd"/></g><path d="M109.758,73.055c-.023.232-.036.459-.077.681s-.1.418-.159.631-.114.441-.191.663c-.068.2-.159.391-.245.581a7.579,7.579,0,0,1-.345.731,5.613,5.613,0,0,1-.3.49c-.177.286-.363.568-.568.845-.118.15-.236.3-.359.45a13.274,13.274,0,0,1-1.013,1.09c-.123.123-.236.241-.368.359-.232.209-.495.413-.745.618-.213.168-.4.336-.631.495-.263.2-.559.381-.84.563s-.572.386-.89.572a25.119,25.119,0,0,1-3.265,1.549c-.291.123-.595.232-.895.341-.7.254-1.444.459-2.184.668-.777.218-1.553.422-2.361.586-.913.186-1.839.363-2.788.477-.241.036-.486.077-.736.1a38.418,38.418,0,0,1-3.9.223c-.213,0-.427,0-.64,0-1.29-.014-2.593-.082-3.869-.218-.191-.018-.377-.045-.568-.064a36.38,36.38,0,0,1-3.765-.645c-.218-.045-.431-.1-.654-.159a31.532,31.532,0,0,1-3.22-.976c-.2-.073-.409-.127-.6-.2a26.052,26.052,0,0,1-3.551-1.676c-4.6-2.652-6.9-6.144-6.884-9.627l-.018,6.008c-.014,3.483,2.284,6.971,6.889,9.623a23.892,23.892,0,0,0,3.36,1.612c.064.027.136.045.2.073.168.064.35.114.522.177.695.25,1.385.5,2.107.713.391.109.79.191,1.19.291.213.05.418.1.631.154s.4.1.6.145c.763.163,1.535.291,2.311.4.282.036.563.059.845.1.2.018.391.041.59.059.277.032.554.077.836.1.763.064,1.53.109,2.3.127.25,0,.495,0,.736,0,.209,0,.4,0,.613,0,.345,0,.695.009,1.04,0,.863-.027,1.73-.086,2.588-.173.1-.009.2-.036.3-.041.245-.027.472-.068.713-.1.659-.082,1.321-.154,1.971-.272.291-.054.554-.15.84-.213.808-.163,1.58-.368,2.357-.586.4-.109.831-.173,1.226-.3.322-.109.622-.25.945-.359s.618-.232.926-.354a24.856,24.856,0,0,0,3.247-1.544c.091-.05.191-.109.282-.168.2-.123.377-.25.568-.377.3-.191.6-.381.872-.581.236-.168.436-.341.649-.509.25-.2.5-.4.731-.6.041-.041.1-.077.141-.118.086-.082.15-.168.232-.25.363-.359.7-.717,1-1.081.068-.082.15-.15.213-.227s.1-.154.154-.227c.2-.282.386-.559.559-.836.073-.114.163-.218.227-.336.032-.054.045-.114.082-.168.127-.245.236-.49.345-.745.059-.132.145-.272.2-.413l.036-.141a6.126,6.126,0,0,0,.2-.681c.045-.168.1-.327.141-.49a1.257,1.257,0,0,0,.014-.136c.045-.222.059-.45.082-.672.014-.177.05-.354.059-.531v-.2l.018-6.008C109.821,72.569,109.78,72.814,109.758,73.055Z" transform="translate(-63.133 -58.753)" fill="#e53399"/><g transform="translate(0.015)"><path d="M102.93,73.2c9.141,5.281,9.173,13.837.091,19.114s-23.85,5.286-33,.009-9.191-13.842-.1-19.123S93.793,67.924,102.93,73.2ZM70.465,81.875l17.6,10.159c2.425-2.357,3.133-4.941,2.084-7.121A10.767,10.767,0,0,0,95.6,83.641c2.925-1.7,2.911-4.455-.036-6.158a11.728,11.728,0,0,0-10.645-.009,3.693,3.693,0,0,0-2.189,3.161,26.1,26.1,0,0,0-12.261,1.24Z" transform="translate(-63.136 -69.243)" fill="#ff4caa"/></g></g></g><g transform="translate(250.721 0)"><g transform="translate(4.877 116.967)"><path d="M107.962,116.78c.218-5.141.7-10.458,1.3-15.849l-15.613-.472c.935,3.4,1.885,6.762,2.661,9.909.554,7.947-5.372,10.113-1.558,18.374.686,1.6,2.993,3.006,3.71,3.311,3.46,1.212,4.564,3.56,5.622,5.786a12.282,12.282,0,0,0,2.638,4.055c4.6,4.128,15.29,3.746,17.57.182,3.3-5.023-11.507-15.567-16.017-24.681A6.838,6.838,0,0,1,107.962,116.78Z" transform="translate(-27.426 -3.777)" fill="#171716"/><path d="M110.869,98.548c1.026-.609,1.054-1.685,2.534-2.943.994,1.907,4,3.842,5,5.676a7.261,7.261,0,0,0,.636.386c9.114,5.731,28.31,7.052,28.119,13.4-.1,4.5-9.537,10.74-15.971,9.564a12.741,12.741,0,0,1-4.623-2.193c-2.18-1.417-4.478-2.934-8.265-2.121-.826.127-3.687.136-5.2-.922-7.843-5.259-4.028-10.386-8.478-17.039C106.791,101.054,108.885,99.7,110.869,98.548Z" transform="translate(12.05 -20.966)" fill="#171716"/><path d="M141.532,130.147a51.842,51.842,0,0,0-5.481-28.9c-6.035-11.466-31.193-21.893-31.452-21.9S82.8,89.1,84.449,92.75c.922,2.062,33.791,34.79,34.44,36.32a10.161,10.161,0,0,1,.8,7.216c-2.4,11.689.272,45.939,4.65,55.889,3.224,7.3,15.163,5.967,17.338,1.971.363-.686.109-56.093-.145-64C141.523,130.133,141.786,138.053,141.532,130.147Z" transform="translate(-59.683 -78.532)" fill="#fe61ca"/><path d="M97.409,91.095c0-.209,0-.381-.018-.545C97.6,97.139,97.464,92.725,97.409,91.095Z" transform="translate(-13.535 -38.867)" fill="#123f5d" opacity="0.3" style="mix-blend-mode:multiply;isolation:isolate"/><path d="M97.409,91.095c0-.332-.018-.545-.018-.545C97.4,90.713,97.4,90.886,97.409,91.095Z" transform="translate(-13.535 -38.867)" fill="#123f5d" opacity="0.3" style="mix-blend-mode:multiply;isolation:isolate"/><path d="M102.041,79.169c.227.014,27.983,11.249,34.018,22.715,7.638,14.5,4.142,25.263,4.142,25.263h0c1.539,1.935,1.5,12.021,1.635,18.415-7.9-6.258-8.12-25.694-19.323-18.9-2.025.618-.568,42.033,2.97,58.146a59.523,59.523,0,0,0,4.251,12.111c-1.8-.173-3.574-.767-5.386-4.105-2.371-8.351-7.97-36.4-4.65-55.889a10.8,10.8,0,0,0-.8-7.216c-.649-1.53-33.519-34.259-34.44-36.32C82.814,89.741,101.76,79.164,102.041,79.169Z" transform="translate(-59.692 -79.169)" fill="#123f5d" opacity="0.3" style="mix-blend-mode:multiply;isolation:isolate"/><path d="M110.635,117.671c21.466-1.589,40.371-4.923,40.371-4.923,7.216,24.227,41.847,45.553,46.007,48.677,2.47-.327,8.778-6.966,10.722-9.932-6.612-10.817-37.32-53.187-47.306-59.9-6.258-4.192-60.657-5.64-60.666-8.319,0-1.076-13-2.534-13.932-2.543C75.037,80.669,72.671,120.432,110.635,117.671Z" transform="translate(-78.925 -73.631)" fill="#ff61cb"/><path d="M85.831,80.733c.931.009,13.928,1.467,13.932,2.543s9.2,1.48,20.549,1.866A15.9,15.9,0,0,1,118,88.4c-7.584,8.442-25.83.822-32.183,10.2-4.092,6.04,4.2,11,8.17,12.457,18.519,5.876,43.873,5.958,58.245-6.308,6.29,24.441,27.47,41.375,48.228,55.035a11.4,11.4,0,0,1-3.447,1.644c-4.16-3.124-38.791-24.45-46.011-48.677,0,0-18.9,3.333-40.367,4.923C72.671,120.432,75.037,80.669,85.831,80.733Z" transform="translate(-78.925 -73.631)" fill="#1a4b6c" opacity="0.2" style="mix-blend-mode:multiply;isolation:isolate"/></g><g transform="translate(46.03 100.156)"><g transform="translate(0 14.161)"><g style="isolation:isolate"><g transform="translate(0 20.996)"><path d="M88.131,83.209l-.144,1.678,24.458,17.433.144-1.687Z" transform="translate(-87.987 -83.209)" fill="#b4b9bc"/></g><g transform="translate(24.458 17.432)"><path d="M93.517,103.412l-.144,1.687,45.666-20.99.152-1.685Z" transform="translate(-93.373 -82.424)" fill="#7d8183"/></g><g transform="translate(0.144)"><path d="M88.019,99.582l24.458,17.424,45.675-20.988L133.7,78.585Z" transform="translate(-88.019 -78.585)" fill="#e3e5e5"/></g></g></g><g transform="translate(22.5)"><g style="isolation:isolate"><g transform="translate(0 21.933)"><path d="M102.381,81.984,100.562,80.3l-7.62,30.556,1.815,1.687Z" transform="translate(-92.942 -80.297)" fill="#bdbbbb"/></g><g transform="translate(7.62)"><path d="M144.176,77.156l-1.816-1.689L94.62,97.4l1.819,1.688Z" transform="translate(-94.62 -75.467)" fill="#d2d0d0"/></g><g transform="translate(1.815 1.689)"><path d="M100.966,97.77l-7.625,30.556,47.743-21.944L148.7,75.839Z" transform="translate(-93.342 -75.839)" fill="#d5dfe6"/></g><g transform="translate(9.439 1.689)"><path d="M95.021,97.77h0l40.119,8.612,7.618-30.544Z" transform="translate(-95.021 -75.839)" fill="#e9f0f4"/></g></g></g></g><g transform="translate(85.867 92.464)"><path d="M98.459,75.117s7.52-2.67,11.358-.481,6.621,2.625,8.583,5.259c1.985,2.629.518,4.469-2.071,4.8s-7.08-.318-11.417-2.03-4.832-1.026-6.158-1.017C97.437,81.62,95.171,78.191,98.459,75.117Z" transform="translate(-96.76 -73.773)" fill="#efb185"/></g><g transform="translate(36.992 39.637)"><path d="M92.081,62.492c3.687-1.113,10.127-.05,11.7,10.027S109.4,110.8,109.4,110.8s27.315,3.106,30.421,3.951c0,0-4.9,3.288-2.588,8.51,0,0-29.9,5.926-36.57-.322C93.975,116.714,76.959,66.979,92.081,62.492Z" transform="translate(-85.997 -62.14)" fill="#5fb9e6"/></g><g transform="translate(2.492 39.76)"><path d="M79.017,81.906s9.591-15.535,46.016-19.654c0,0,5.867-2.248,4.782,16.512-.159,2.707,2.507,7.434,4.341,9.923,1.826,2.516,6.6,12.061-4.777,22.988,0,0-4.768,16.616.027,27.583,4.273,9.8-19.877,18.537-40.117,15.971-2.507-.309-8-2.112-5.558-10.758,2.42-8.66,8.056-23.76,4.441-39.935S76.052,89.985,79.017,81.906Z" transform="translate(-78.4 -62.167)" fill="#77d2ff"/></g><g transform="translate(2.492 50.325)"><path d="M79.017,73.667c-2.965,8.079,5.531,6.439,9.155,22.629s-2.021,31.275-4.441,39.935c-2.443,8.646,3.052,10.449,5.558,10.758a60.024,60.024,0,0,0,10.186.391c-6.653-15.794,3.288-43.845,4.205-59.44C104.634,71.4,89.83,64.494,89.83,64.494,81.746,69.24,79.017,73.667,79.017,73.667Z" transform="translate(-78.4 -64.494)" fill="#5fb9e6"/></g><g transform="translate(9.189)"><g transform="translate(11.045)"><path d="M105.562,63.933s-2.915,18.71-4.564,36.552c-.241,2.566,2.384,7.184,7.184,6.085,0,0,14.178-20.8,3.942-42.165-3.252-6.766-15.377-16.507-29.818-7.1Z" transform="translate(-82.307 -53.412)" fill="#301806"/></g><g transform="translate(11.513 24.086)"><path d="M108.331,69.865s-6.707,7.384-3.96,15.654c.745,2.266,2.507,11.544-11.317,7.316,0,0-14.273-7.8-9.764-12.048,2.979-2.825,5.935-6.948,2.166-22.07Z" transform="translate(-82.41 -58.716)" fill="#e8a476"/><g transform="translate(0.095 1.658)"><path d="M83.217,79.494a2.313,2.313,0,0,0-.786,1.44c13.242,3.1,22.706-5.981,22.706-5.981L88.344,59.081h0s-.886.549-2.243,1.508C88.7,73.145,85.978,76.882,83.217,79.494Z" transform="translate(-82.431 -59.081)" fill="#db9669"/></g></g><g transform="translate(12.583 6.038)"><path d="M106.048,57.282s3.719,1.426,3.488,12.556c-.036,1.231,1.876,2.925,2.311,5.994.409,3.124.7,15.526-6.539,16.607-5.218.777-17.983-2.915-21.88-15.54S90.7,48.513,106.048,57.282Z" transform="translate(-82.646 -54.742)" fill="#f1b287"/></g><g transform="translate(0 0.903)"><path d="M115.02,65.745s-32.288,10.7-9.573,52.555c0,0-16.7,1.108-23.682-13.456-3.347-7-1.521-20.862-.055-34.091,0,0,4.314-20.295,21.3-16.721C103.013,54.033,114.184,58.7,115.02,65.745Z" transform="translate(-79.875 -53.611)" fill="#231202"/></g><g transform="translate(15.395 0.015)"><path d="M103.015,66.437s5.613-.89,8.02,9.468c0,0-.009-29.055-27.769-21.117C83.265,54.789,99.613,56.093,103.015,66.437Z" transform="translate(-83.265 -53.415)" fill="#301806"/></g><g transform="translate(12.719 25.744)"><path d="M89.6,63.853S87.84,57.627,84.225,59.4c-1.126.563-2.393,1.812-.795,5.018,1.608,3.233,5.023,6.235,7.824,5.967Z" transform="translate(-82.676 -59.081)" fill="#f1b287"/></g></g><g transform="translate(46.209 112.816)"><path d="M91.229,78.255s7.979.495,10.663,3.992,6.371,7.161,7.18,10.368c.772,3.179.113,4.3-2.4,3.583s-9.1-5.2-12.416-8.469c-3.338-3.265-4.06-2.843-5.286-3.361C87.773,83.863,87.005,79.8,91.229,78.255Z" transform="translate(-88.027 -78.255)" fill="#efb185"/></g><g transform="translate(46.222 116.027)"><path d="M88.962,81.864c1.226.518,1.948.1,5.286,3.361,3.32,3.265,9.9,7.765,12.416,8.469a4.583,4.583,0,0,0,.967.191c-1.93-2.153-5.227-5.826-8.17-8.951-3.665-3.928-9.482-5.527-11.344-5.972C87.822,80.329,88.317,81.6,88.962,81.864Z" transform="translate(-88.03 -78.962)" fill="#db9669"/></g><g transform="translate(0 56.005)"><path d="M85.179,65.914c3.76-.772,10.1.808,10.831,10.976S98.43,115.5,98.43,115.5s26.975,5.345,29.986,6.444c0,0-5.118,1.885-3.247,7.27,0,0-30.3,4.446-36.452-2.339C82.577,120.113,69.721,69.156,85.179,65.914Z" transform="translate(-77.851 -65.745)" fill="#8ddfff"/></g></g></g></g></svg>