<svg xmlns="http://www.w3.org/2000/svg" width="221.441" height="168.655" viewBox="0 0 221.441 168.655"><g transform="translate(-562.053 -422.345)"><path d="M22.437,17.275A17.783,17.783,0,0,0,30.232,2.159,19.919,19.919,0,0,0,30.114,0h-30A19.885,19.885,0,0,0,0,2.159,17.783,17.783,0,0,0,7.794,17.275,17.783,17.783,0,0,0,0,32.391a19.909,19.909,0,0,0,.117,2.161h30a19.9,19.9,0,0,0,.117-2.159A17.783,17.783,0,0,0,22.437,17.275ZM3.239,32.391c0-6.307,2.7-11.654,7.558-13.419V15.578C5.944,13.814,3.239,8.466,3.239,2.159H26.992c0,6.307-2.7,11.655-7.558,13.419v3.394c4.853,1.764,7.558,7.112,7.558,13.419Zm15.508-9.8a4.415,4.415,0,0,1-2.552-4.23V16.2a4.418,4.418,0,0,1,2.556-4.24,9.385,9.385,0,0,0,3.274-3.318H8.206a9.383,9.383,0,0,0,3.278,3.32,4.415,4.415,0,0,1,2.552,4.23v2.167a4.418,4.418,0,0,1-2.556,4.24,10.7,10.7,0,0,0-4.828,7.637H23.579a10.7,10.7,0,0,0-4.832-7.639Z" transform="matrix(0.921, 0.391, -0.391, 0.921, 708.896, 502.267)" fill="#0054d4"/><path d="M14.34,11.041A11.365,11.365,0,0,0,19.321,1.38,12.73,12.73,0,0,0,19.246,0H.075A12.709,12.709,0,0,0,0,1.38a11.365,11.365,0,0,0,4.981,9.661A11.365,11.365,0,0,0,0,20.7a12.724,12.724,0,0,0,.075,1.381H19.246a12.719,12.719,0,0,0,.075-1.38A11.365,11.365,0,0,0,14.34,11.041ZM2.07,20.7c0-4.031,1.729-7.448,4.83-8.576V9.956C3.8,8.829,2.07,5.411,2.07,1.38H17.251c0,4.031-1.729,7.448-4.83,8.576v2.169c3.1,1.128,4.83,4.546,4.83,8.576Zm9.911-6.262a2.822,2.822,0,0,1-1.631-2.7V10.351a2.823,2.823,0,0,1,1.633-2.71,6,6,0,0,0,2.093-2.12H5.245a6,6,0,0,0,2.1,2.122,2.822,2.822,0,0,1,1.631,2.7v1.385a2.823,2.823,0,0,1-1.633,2.71,6.841,6.841,0,0,0-3.086,4.881H15.07a6.84,6.84,0,0,0-3.088-4.882Z" transform="translate(609.216 517.485) rotate(3)" fill="#0054d4"/><path d="M16.528,12.726A13.1,13.1,0,0,0,22.27,1.591,14.673,14.673,0,0,0,22.183,0H.086A14.648,14.648,0,0,0,0,1.591,13.1,13.1,0,0,0,5.742,12.726,13.1,13.1,0,0,0,0,23.861a14.666,14.666,0,0,0,.087,1.592h22.1a14.661,14.661,0,0,0,.086-1.591,13.1,13.1,0,0,0-5.742-11.135ZM2.386,23.861c0-4.646,1.992-8.585,5.567-9.885v-2.5c-3.575-1.3-5.567-5.239-5.567-9.885h17.5c0,4.646-1.992,8.585-5.567,9.885v2.5c3.575,1.3,5.567,5.239,5.567,9.885ZM13.81,16.643a3.253,3.253,0,0,1-1.88-3.116v-1.6a3.254,3.254,0,0,1,1.883-3.123,6.913,6.913,0,0,0,2.412-2.444H6.045A6.912,6.912,0,0,0,8.46,8.809a3.253,3.253,0,0,1,1.88,3.116v1.6a3.254,3.254,0,0,1-1.883,3.123A7.885,7.885,0,0,0,4.9,22.27H17.369a7.884,7.884,0,0,0-3.56-5.627Z" transform="translate(742.843 531.828) rotate(-13)" fill="#0054d4"/><path d="M13.551,10.434A10.74,10.74,0,0,0,18.259,1.3,12.03,12.03,0,0,0,18.188,0H.071A12.01,12.01,0,0,0,0,1.3a10.74,10.74,0,0,0,4.708,9.129A10.74,10.74,0,0,0,0,19.563a12.024,12.024,0,0,0,.071,1.305H18.188a12.02,12.02,0,0,0,.071-1.3,10.74,10.74,0,0,0-4.707-9.129Zm-11.6,9.129c0-3.809,1.634-7.039,4.565-8.1V9.409C3.59,8.343,1.956,5.113,1.956,1.3H16.3c0,3.809-1.634,7.039-4.565,8.1v2.05c2.931,1.066,4.565,4.3,4.565,8.1Zm9.366-5.918A2.667,2.667,0,0,1,9.782,11.09V9.782a2.668,2.668,0,0,1,1.544-2.561,5.668,5.668,0,0,0,1.978-2H4.956a5.667,5.667,0,0,0,1.98,2.005A2.667,2.667,0,0,1,8.477,9.777v1.309a2.668,2.668,0,0,1-1.544,2.561,6.465,6.465,0,0,0-2.916,4.612H14.241a6.464,6.464,0,0,0-2.918-4.614Z" transform="translate(663.782 470.393) rotate(-13)" fill="#0054d4"/><path d="M25.637,18.735A12.818,12.818,0,1,1,10.846,6.07V3.944H9.121a.742.742,0,0,1-.74-.74V.74A.742.742,0,0,1,9.121,0h7.4a.742.742,0,0,1,.74.74V3.2a.742.742,0,0,1-.74.74H14.791V6.07a12.74,12.74,0,0,1,6.144,2.749l1.695-1.695a.74.74,0,0,1,1.048,0l1.744,1.744a.74.74,0,0,1,0,1.048l-1.812,1.812-.037.037A12.69,12.69,0,0,1,25.637,18.735ZM14.791,20.953V11.617a.742.742,0,0,0-.74-.74H11.586a.742.742,0,0,0-.74.74v9.337a.742.742,0,0,0,.74.74h2.465A.742.742,0,0,0,14.791,20.953Z" transform="matrix(0.921, 0.391, -0.391, 0.921, 705.209, 551.938)" fill="#0054d4"/><path d="M25.637,18.735A12.818,12.818,0,1,1,10.846,6.07V3.944H9.121a.742.742,0,0,1-.74-.74V.74A.742.742,0,0,1,9.121,0h7.4a.742.742,0,0,1,.74.74V3.2a.742.742,0,0,1-.74.74H14.791V6.07a12.74,12.74,0,0,1,6.144,2.749l1.695-1.695a.74.74,0,0,1,1.048,0l1.744,1.744a.74.74,0,0,1,0,1.048l-1.812,1.812-.037.037A12.69,12.69,0,0,1,25.637,18.735ZM14.791,20.953V11.617a.742.742,0,0,0-.74-.74H11.586a.742.742,0,0,0-.74.74v9.337a.742.742,0,0,0,.74.74h2.465A.742.742,0,0,0,14.791,20.953Z" transform="matrix(0.978, 0.208, -0.208, 0.978, 587.586, 485.372)" fill="#0054d4"/><path d="M17.7,12.938A8.852,8.852,0,1,1,7.49,4.192V2.724H6.3a.512.512,0,0,1-.511-.511V.511A.512.512,0,0,1,6.3,0h5.107a.512.512,0,0,1,.511.511v1.7a.512.512,0,0,1-.511.511H10.214V4.192a8.8,8.8,0,0,1,4.243,1.9l1.17-1.17a.511.511,0,0,1,.724,0l1.2,1.2a.511.511,0,0,1,0,.724L16.3,8.1l-.026.026A8.764,8.764,0,0,1,17.7,12.938Zm-7.49,1.532V8.022A.512.512,0,0,0,9.7,7.512H8a.512.512,0,0,0-.511.511V14.47A.512.512,0,0,0,8,14.981H9.7A.512.512,0,0,0,10.214,14.47Z" transform="translate(667.956 509.752) rotate(-11)" fill="#0054d4"/><path d="M17.7,12.938A8.852,8.852,0,1,1,7.49,4.192V2.724H6.3a.512.512,0,0,1-.511-.511V.511A.512.512,0,0,1,6.3,0h5.107a.512.512,0,0,1,.511.511v1.7a.512.512,0,0,1-.511.511H10.214V4.192a8.8,8.8,0,0,1,4.243,1.9l1.17-1.17a.511.511,0,0,1,.724,0l1.2,1.2a.511.511,0,0,1,0,.724L16.3,8.1l-.026.026A8.764,8.764,0,0,1,17.7,12.938Zm-7.49,1.532V8.022A.512.512,0,0,0,9.7,7.512H8a.512.512,0,0,0-.511.511V14.47A.512.512,0,0,0,8,14.981H9.7A.512.512,0,0,0,10.214,14.47Z" transform="translate(761.956 562.752) rotate(-11)" fill="#0054d4"/><path d="M17.215,12.58a8.608,8.608,0,1,1-9.932-8.5V2.649H6.125a.5.5,0,0,1-.5-.5V.5a.5.5,0,0,1,.5-.5h4.966a.5.5,0,0,1,.5.5V2.152a.5.5,0,0,1-.5.5H9.932V4.076a8.555,8.555,0,0,1,4.126,1.846L15.2,4.784a.5.5,0,0,1,.7,0L17.07,5.955a.5.5,0,0,1,0,.7L15.854,7.875l-.025.025A8.522,8.522,0,0,1,17.215,12.58ZM9.932,14.07V7.8a.5.5,0,0,0-.5-.5H7.78a.5.5,0,0,0-.5.5v6.27a.5.5,0,0,0,.5.5H9.435A.5.5,0,0,0,9.932,14.07Z" transform="translate(706.576 474.695) rotate(-7)" fill="#0054d4"/><path d="M17.215,12.58a8.608,8.608,0,1,1-9.932-8.5V2.649H6.125a.5.5,0,0,1-.5-.5V.5a.5.5,0,0,1,.5-.5h4.966a.5.5,0,0,1,.5.5V2.152a.5.5,0,0,1-.5.5H9.932V4.076a8.555,8.555,0,0,1,4.126,1.846L15.2,4.784a.5.5,0,0,1,.7,0L17.07,5.955a.5.5,0,0,1,0,.7L15.854,7.875l-.025.025A8.522,8.522,0,0,1,17.215,12.58ZM9.932,14.07V7.8a.5.5,0,0,0-.5-.5H7.78a.5.5,0,0,0-.5.5v6.27a.5.5,0,0,0,.5.5H9.435A.5.5,0,0,0,9.932,14.07Z" transform="translate(632.576 447.695) rotate(-7)" fill="#0054d4"/><g transform="matrix(0.996, 0.087, -0.087, 0.996, 746.344, 488.227)"><path d="M13.526,6.763A6.763,6.763,0,1,1,6.763,0,6.763,6.763,0,0,1,13.526,6.763Z" transform="translate(0 3.865)" fill="none" stroke="#0054d4" stroke-linecap="round" stroke-linejoin="round" stroke-width="2"/><path d="M0,0V2.9L1.449,4.348" transform="translate(6.763 7.729)" fill="none" stroke="#0054d4" stroke-linecap="round" stroke-linejoin="round" stroke-width="2"/><path d="M8.724,15.8l-.338,3.7a1.932,1.932,0,0,1-1.932,1.758H2.27A1.932,1.932,0,0,1,.338,19.5L0,15.8M.01,5.459l.338-3.7A1.932,1.932,0,0,1,2.27,0h4.2A1.932,1.932,0,0,1,8.405,1.758l.338,3.7" transform="translate(2.396 0)" fill="none" stroke="#0054d4" stroke-linecap="round" stroke-linejoin="round" stroke-width="2"/></g><g transform="matrix(0.996, 0.087, -0.087, 0.996, 662.344, 423.227)"><path d="M13.526,6.763A6.763,6.763,0,1,1,6.763,0,6.763,6.763,0,0,1,13.526,6.763Z" transform="translate(0 3.865)" fill="none" stroke="#0054d4" stroke-linecap="round" stroke-linejoin="round" stroke-width="2"/><path d="M0,0V2.9L1.449,4.348" transform="translate(6.763 7.729)" fill="none" stroke="#0054d4" stroke-linecap="round" stroke-linejoin="round" stroke-width="2"/><path d="M8.724,15.8l-.338,3.7a1.932,1.932,0,0,1-1.932,1.758H2.27A1.932,1.932,0,0,1,.338,19.5L0,15.8M.01,5.459l.338-3.7A1.932,1.932,0,0,1,2.27,0h4.2A1.932,1.932,0,0,1,8.405,1.758l.338,3.7" transform="translate(2.396 0)" fill="none" stroke="#0054d4" stroke-linecap="round" stroke-linejoin="round" stroke-width="2"/></g><g transform="translate(642.147 516.679) rotate(-7)"><path d="M13.526,6.763A6.763,6.763,0,1,1,6.763,0,6.763,6.763,0,0,1,13.526,6.763Z" transform="translate(0 3.865)" fill="none" stroke="#0054d4" stroke-linecap="round" stroke-linejoin="round" stroke-width="2"/><path d="M0,0V2.9L1.449,4.348" transform="translate(6.763 7.729)" fill="none" stroke="#0054d4" stroke-linecap="round" stroke-linejoin="round" stroke-width="2"/><path d="M8.724,15.8l-.338,3.7a1.932,1.932,0,0,1-1.932,1.758H2.27A1.932,1.932,0,0,1,.338,19.5L0,15.8M.01,5.459l.338-3.7A1.932,1.932,0,0,1,2.27,0h4.2A1.932,1.932,0,0,1,8.405,1.758l.338,3.7" transform="translate(2.396 0)" fill="none" stroke="#0054d4" stroke-linecap="round" stroke-linejoin="round" stroke-width="2"/></g><g transform="translate(562.488 468.261) rotate(-11)"><path d="M13.526,6.763A6.763,6.763,0,1,1,6.763,0,6.763,6.763,0,0,1,13.526,6.763Z" transform="translate(0 3.865)" fill="none" stroke="#0054d4" stroke-linecap="round" stroke-linejoin="round" stroke-width="2"/><path d="M0,0V2.9L1.449,4.348" transform="translate(6.763 7.729)" fill="none" stroke="#0054d4" stroke-linecap="round" stroke-linejoin="round" stroke-width="2"/><path d="M8.724,15.8l-.338,3.7a1.932,1.932,0,0,1-1.932,1.758H2.27A1.932,1.932,0,0,1,.338,19.5L0,15.8M.01,5.459l.338-3.7A1.932,1.932,0,0,1,2.27,0h4.2A1.932,1.932,0,0,1,8.405,1.758l.338,3.7" transform="translate(2.396 0)" fill="none" stroke="#0054d4" stroke-linecap="round" stroke-linejoin="round" stroke-width="2"/></g><path d="M8.414,10.1h3.366v3.366H8.414Zm5.048,0h3.366v3.366H13.462Zm5.048,0h3.366v3.366H18.51ZM3.366,20.193H6.731v3.366H3.366Zm5.048,0h3.366v3.366H8.414Zm5.048,0h3.366v3.366H13.462ZM8.414,15.145h3.366V18.51H8.414Zm5.048,0h3.366V18.51H13.462Zm5.048,0h3.366V18.51H18.51Zm-15.145,0H6.731V18.51H3.366ZM21.876,0V1.683H18.51V0H6.731V1.683H3.366V0H0V26.924H25.242V0H21.876Zm1.683,25.241H1.683V6.731H23.559Z" transform="matrix(0.996, 0.087, -0.087, 0.996, 733.704, 450.143)" fill="#0054d4"/><path d="M9.922,11.906h3.969v3.969H9.922Zm5.953,0h3.969v3.969H15.875Zm5.953,0H25.8v3.969H21.828ZM3.969,23.812H7.937v3.969H3.969Zm5.953,0h3.969v3.969H9.922Zm5.953,0h3.969v3.969H15.875ZM9.922,17.859h3.969v3.969H9.922Zm5.953,0h3.969v3.969H15.875Zm5.953,0H25.8v3.969H21.828Zm-17.859,0H7.937v3.969H3.969ZM25.8,0V1.984H21.828V0H7.937V1.984H3.969V0H0V31.75H29.766V0H25.8Zm1.984,29.766H1.984V7.937h25.8Z" transform="translate(585.042 441.659) rotate(-7)" fill="#0054d4"/><path d="M7.258,8.71h2.9v2.9h-2.9Zm4.355,0h2.9v2.9h-2.9Zm4.355,0h2.9v2.9h-2.9ZM2.9,17.419h2.9v2.9H2.9Zm4.355,0h2.9v2.9h-2.9Zm4.355,0h2.9v2.9h-2.9ZM7.258,13.064h2.9v2.9h-2.9Zm4.355,0h2.9v2.9h-2.9Zm4.355,0h2.9v2.9h-2.9Zm-13.064,0h2.9v2.9H2.9ZM18.871,0V1.452h-2.9V0H5.806V1.452H2.9V0H0V23.226H21.774V0h-2.9Zm1.452,21.774H1.452V5.806H20.323Z" transform="matrix(0.995, -0.105, 0.105, 0.995, 659.062, 546.243)" fill="#0054d4"/><path d="M7.258,8.71h2.9v2.9h-2.9Zm4.355,0h2.9v2.9h-2.9Zm4.355,0h2.9v2.9h-2.9ZM2.9,17.419h2.9v2.9H2.9Zm4.355,0h2.9v2.9h-2.9Zm4.355,0h2.9v2.9h-2.9ZM7.258,13.064h2.9v2.9h-2.9Zm4.355,0h2.9v2.9h-2.9Zm4.355,0h2.9v2.9h-2.9Zm-13.064,0h2.9v2.9H2.9ZM18.871,0V1.452h-2.9V0H5.806V1.452H2.9V0H0V23.226H21.774V0h-2.9Zm1.452,21.774H1.452V5.806H20.323Z" transform="translate(626.839 476.49) rotate(16)" fill="#0054d4"/></g></svg>