<svg xmlns="http://www.w3.org/2000/svg" width="74" height="54" viewBox="0 0 74 54"><g transform="translate(-123 -64)"><circle cx="7" cy="7" r="7" transform="translate(123 64)" fill="#0054d4"/><circle cx="7" cy="7" r="7" transform="translate(143 64)" fill="#0054d4"/><circle cx="7" cy="7" r="7" transform="translate(163 64)" fill="#0054d4"/><circle cx="7" cy="7" r="7" transform="translate(183 64)" fill="#0054d4"/><g transform="translate(-11 30)"><circle cx="7" cy="7" r="7" transform="translate(134 54)" fill="#0054d4"/><circle cx="7" cy="7" r="7" transform="translate(154 54)" fill="#0054d4"/><circle cx="7" cy="7" r="7" transform="translate(174 54)" fill="#0054d4"/><circle cx="7" cy="7" r="7" transform="translate(194 54)" fill="#0054d4"/></g><g transform="translate(-11 50)"><circle cx="7" cy="7" r="7" transform="translate(134 54)" fill="#0054d4"/><circle cx="7" cy="7" r="7" transform="translate(154 54)" fill="#0054d4"/><circle cx="7" cy="7" r="7" transform="translate(174 54)" fill="#0054d4"/><circle cx="7" cy="7" r="7" transform="translate(194 54)" fill="#0054d4"/></g></g></svg>