<svg xmlns="http://www.w3.org/2000/svg" width="187.733" height="136" viewBox="0 0 187.733 136"><rect width="187.733" height="135.407" fill="none"/><g transform="translate(18.369 0)"><g transform="translate(0 72.032)" opacity="0.1"><path d="M121.735,126.487l33.9,18.471,78.279-42.369L199.2,83.454Z" transform="translate(-121.735 -83.454)"/></g><g transform="translate(46.425 31.979)" opacity="0.1"><path d="M155.759,84.718l25.9,14.109L241.45,66.463,214.928,51.846Z" transform="translate(-155.759 -51.846)"/></g><g transform="translate(68.523)"><g transform="translate(4.299 40.436)"><path d="M192.72,58.291v1.523l-17.612,9.535,0-1.524Z" transform="translate(-175.104 -58.291)" fill="#3ee2fd"/></g><g transform="translate(33.811 24.639)"><path d="M221.773,45.942l.033,10.879L196.767,70.373,196.733,59.5Z" transform="translate(-196.733 -45.942)" fill="#3ee2fd"/></g><g transform="translate(31.255 20.939)"><path d="M194.86,59.017l29.5-15.967.072,24.169-29.5,15.966Zm27.627-1.389-.031-10.878L197.416,60.3l.034,10.877,25.037-13.552Z" transform="translate(-194.86 -43.05)" fill="#1cbec6"/></g><g transform="translate(31.241 16.597)"><path d="M224.35,39.655l0,1.83-29.5,15.967-.006-1.83Z" transform="translate(-194.85 -39.655)" fill="#1cbec6"/></g><g transform="translate(4.337 54.153)"><path d="M192.75,69.014l.031,10.788-17.612,9.535-.036-10.789Z" transform="translate(-175.133 -69.014)" fill="#3ee2fd"/></g><g transform="translate(2.356 28.463)"><path d="M173.681,61.108l22.5-12.177.113,37.136L173.8,98.243Zm19.628,24.3-.03-10.788-17.617,9.534.035,10.789,17.612-9.535Zm-.09-30.523,0-1.527L175.6,62.894l0,1.525,17.617-9.533Zm.02,7.542V60.9l-17.616,9.534.005,1.525,17.612-9.535Zm.012,3.431,0-1.524-17.614,9.534,0,1.524,17.616-9.534Zm-.026-7.545V56.79l-17.612,9.534v1.522l17.612-9.533Z" transform="translate(-173.681 -48.931)" fill="#1cbec6"/></g><g opacity="0.7"><path d="M171.954,61.025l63.453-34.344.141,46.671L172.1,107.695Zm24.968,31.254-.113-37.136L174.31,67.32l.115,37.136,22.5-12.177ZM232.78,71.79l-.072-24.169-29.5,15.967.071,24.168,29.5-15.966Zm-.117-38.115-.012-4.114L173.444,61.607l.012,4.117,59.207-32.049Zm.012,3.886,0-1.829L203.172,51.7l.005,1.829,29.5-15.967Zm.011,3.431,0-1.828-29.5,15.966.005,1.829,29.5-15.967Zm.012,4.115,0-1.829L203.2,59.243l.005,1.831,29.5-15.967Z" transform="translate(-171.954 -26.681)" fill="#3ee2fd"/></g><g transform="translate(31.228 12.482)"><path d="M224.34,36.439l0,1.829-29.5,15.966-.006-1.828Z" transform="translate(-194.84 -36.439)" fill="#1cbec6"/></g><g transform="translate(2.34 18.094)"><path d="M173.678,60.171l32.151-17.4-.007-1.942-32.153,17.4Z" transform="translate(-173.669 -40.826)" fill="#3ee2fd"/></g><g transform="translate(1.49 2.88)"><path d="M232.265,33.046l-.012-4.114L173.046,60.979l.012,4.117Zm-1.176-2.451.008,1.941-12.732,6.891-.007-1.942,12.731-6.89Zm-25.04,13.552.007,1.942L173.9,63.493l-.008-1.942,32.153-17.4Z" transform="translate(-173.046 -28.932)" fill="#00ffe0"/></g><g transform="translate(46.802 4.542)"><path d="M218.985,30.232l.008,1.941-12.731,6.891-.008-1.942Z" transform="translate(-206.254 -30.232)" fill="#3ee2fd"/></g><g transform="translate(31.219 9.05)"><path d="M224.332,33.756l0,1.83-29.5,15.967,0-1.829Z" transform="translate(-194.833 -33.756)" fill="#1cbec6"/></g><g transform="translate(4.309 43.867)"><path d="M192.726,60.973l0,1.524L175.115,72.03l0-1.523Z" transform="translate(-175.112 -60.973)" fill="#3ee2fd"/></g><g transform="translate(4.288 36.322)"><path d="M192.709,55.075V56.6L175.1,66.132V64.609Z" transform="translate(-175.097 -55.075)" fill="#3ee2fd"/></g><g transform="translate(4.275 32.89)"><path d="M192.7,52.392l0,1.526L175.09,63.452l0-1.525Z" transform="translate(-175.087 -52.392)" fill="#3ee2fd"/></g></g><g transform="translate(32.641 32.858)"><g transform="translate(5.47 51.481)"><path d="M172.09,93.075l.006,1.939-22.425,12.138-.006-1.94Z" transform="translate(-149.666 -93.075)" fill="#3ee2fd"/></g><g transform="translate(43.044 31.37)"><path d="M209.08,77.354l.042,13.85-31.877,17.253L177.2,94.608Z" transform="translate(-177.203 -77.354)" fill="#3ee2fd"/></g><g transform="translate(39.789 26.659)"><path d="M174.817,94l37.556-20.328.09,30.771L174.91,124.769Zm35.173-1.767-.04-13.85L178.073,95.636l.041,13.849L209.99,92.232Z" transform="translate(-174.817 -73.671)" fill="#1cbec6"/></g><g transform="translate(39.77 21.13)"><path d="M212.36,69.349l.006,2.33L174.811,92.006l-.007-2.33Z" transform="translate(-174.804 -69.349)" fill="#1cbec6"/></g><g transform="translate(5.521 68.944)"><path d="M172.129,106.727l.042,13.735L149.745,132.6l-.042-13.734Z" transform="translate(-149.703 -106.727)" fill="#3ee2fd"/></g><g transform="translate(2.996 36.238)"><path d="M147.853,96.661l28.643-15.5.142,47.277L148,143.938ZM172.845,127.6l-.042-13.734L150.377,126l.042,13.734L172.845,127.6Zm-.116-38.86-.01-1.944L150.3,98.934l.005,1.943L172.729,88.74Zm.027,9.6-.005-1.939-22.424,12.138.005,1.939,22.424-12.138Zm.014,4.367-.005-1.939-22.427,12.138.007,1.939,22.426-12.138Zm-.03-9.606-.005-1.939L150.312,103.3l0,1.939L172.74,93.1Z" transform="translate(-147.853 -81.159)" fill="#1cbec6"/></g><g opacity="0.7"><path d="M145.657,96.556l80.781-43.725.177,59.417-80.781,43.725Zm31.782,39.79L177.3,89.069l-28.643,15.5.143,47.277,28.642-15.5Zm45.653-26.084L223,79.49,185.446,99.818l.093,30.77,37.554-20.327Zm-.147-48.526-.016-5.237L147.551,97.3l.015,5.238,75.379-40.8Zm.015,4.949,0-2.329L185.4,84.682l.008,2.329L222.96,66.685Zm.015,4.367-.007-2.329L185.41,89.049l.01,2.329,37.555-20.327Zm.015,5.238-.005-2.329L185.428,94.288l.007,2.331L222.99,76.29Z" transform="translate(-145.657 -52.831)" fill="#3ee2fd"/></g><g transform="translate(39.754 15.892)"><path d="M212.348,65.254l.007,2.329L174.8,87.91l-.009-2.329Z" transform="translate(-174.791 -65.254)" fill="#1cbec6"/></g><g transform="translate(2.978 23.038)"><path d="M147.847,95.469l40.934-22.157-.007-2.472L147.839,93Z" transform="translate(-147.839 -70.84)" fill="#3ee2fd"/></g><g transform="translate(1.894 3.668)"><path d="M222.439,60.935l-.016-5.237L147.045,96.5l.015,5.238Zm-1.5-3.121.007,2.471-16.207,8.774-.008-2.474,16.209-8.772ZM189.063,75.068l.007,2.473L148.137,99.7l-.008-2.473,40.935-22.156Z" transform="translate(-147.045 -55.698)" fill="#00ffe0"/></g><g transform="translate(59.582 5.783)"><path d="M205.532,57.352l.008,2.472L189.332,68.6l-.009-2.473Z" transform="translate(-189.323 -57.352)" fill="#3ee2fd"/></g><g transform="translate(39.742 11.524)"><path d="M212.339,61.84l0,2.33L174.792,84.5l-.009-2.329Z" transform="translate(-174.783 -61.84)" fill="#1cbec6"/></g><g transform="translate(5.481 55.848)"><path d="M172.1,96.489l.007,1.939-22.426,12.138-.006-1.939Z" transform="translate(-149.674 -96.489)" fill="#3ee2fd"/></g><g transform="translate(5.455 46.242)"><path d="M172.078,88.979l.006,1.94-22.424,12.138,0-1.939Z" transform="translate(-149.655 -88.979)" fill="#3ee2fd"/></g><g transform="translate(5.44 41.874)"><path d="M172.067,85.565l.009,1.944L149.65,99.646l-.006-1.942Z" transform="translate(-149.644 -85.565)" fill="#3ee2fd"/></g></g><g transform="translate(101.929 32.531)"><path d="M202.134,70.956s-2.365-.962-2.594-1.549-1.168-.472-.825.2a3.689,3.689,0,0,0,1.067,1.163s-2.919-.78-2.883-1.649-1.07,2,.015,2.954S199,74.267,202.579,73.2A2.545,2.545,0,0,0,202.134,70.956Z" transform="translate(-196.436 -48.001)" fill="#f1b287"/><g transform="translate(9.831 3.128)"><path d="M210.9,59.45a18.89,18.89,0,0,0-1.974-2.823c-.512-.371-2.638-1.993-4.8-1.52-1.168.253-.071,1.085,1.482,1.892.7.365,1.309.494,1.689,1.717a8.516,8.516,0,0,0,1.575,2.6C209.352,61.833,210.9,59.45,210.9,59.45Z" transform="translate(-203.64 -55.021)" fill="#efb185"/><path d="M208.765,61.164c-.479-.516-1.154-1.737-1.995-2.217-1-.581-.453-1.651-1.157-2.016-1.208-.628-2.144-1.307-1.946-1.669.879.542,2.075-.214,3.785,1.785a15.73,15.73,0,0,1,2.033,3.789C209.05,61.2,208.952,61.365,208.765,61.164Z" transform="translate(-203.641 -54.954)" fill="#e6a376"/><path d="M209.235,60.3s-2.946-1.552-3.76-2.147-1.128-1.325-.875-1.352,2.775,1.6,3.126.633C207.914,56.918,208.865,59.989,209.235,60.3Z" transform="translate(-203.322 -54.524)" fill="#efb185"/></g><path d="M232,63.388s1.22,3.321-3.638,3.921-14.038.715-15.926-.853S207.146,60,207.146,60s2.415-.179,2.478-2.109l6.4,5.186S231.2,61.05,232,63.388Z" transform="translate(-192.532 -51.09)" fill="#779f29"/><path d="M231.553,63.388c-.8-2.338-15.981-.307-15.981-.307l-6.4-5.186a1.87,1.87,0,0,1-.8,1.506,37.444,37.444,0,0,0,4.506,5.354c1.888,1.568,11.07,1.456,15.928.853a5.29,5.29,0,0,0,2.864-1.066A2.976,2.976,0,0,0,231.553,63.388Z" transform="translate(-192.084 -51.09)" fill="#9cbc35"/><g transform="translate(12.069 66.461)" opacity="0.1"><path d="M237.366,107.52c7.375,3.994,7.412,10.467.085,14.458s-19.239,3.991-26.616,0-7.409-10.463-.083-14.45S229.995,103.532,237.366,107.52Z" transform="translate(-205.281 -104.53)"/></g><path d="M220.418,107.124s-1.775.252-1.344,1.209,2.471,2.419,2.739,3.025,1.936,2.771,2.474,2.57,1.935.1,1.774-2.37S222.783,107.023,220.418,107.124Z" transform="translate(-188.209 -37.346)" fill="#111114"/><path d="M220.923,114.366s.86,2.369-1.289,2.924-1.508-.7-6.181.4-5.214-1.155-5.106-1.663,3.223-1.411,4.246-1.663,2.955-.7,2.955-.7h5.541Z" transform="translate(-192.099 -35.519)" fill="#111114"/><path d="M226.139,81.705s.029,14.307.029,15.917,1.918,14.3.766,19.848c0,0-3.328,3.128-6.27,0,0,0-.94-15.889-1.793-19.477s-.564-14.556-.564-14.556Z" transform="translate(-188.481 -44.442)" fill="#24323d"/><path d="M222.3,83.739s-.759,9.236-1.541,18.4c0,0-.491,18.18-.95,20.8,0,0-6.253,1.454-6.877-1.309,0,0,.157-16,0-19.343s-.527-12.671.883-18.051S222.3,83.739,222.3,83.739Z" transform="translate(-190.482 -44.442)" fill="#2b3c4b"/><path d="M219,121.913c.458-2.617.95-20.8.95-20.8.527-6.167,1.04-12.364,1.319-15.759l-3.863.89a44.667,44.667,0,0,0-2.359,17.129c.33,7.955.468,15.78.513,18.918A16.74,16.74,0,0,0,219,121.913Z" transform="translate(-189.669 -43.422)" fill="#314656"/><path d="M225.852,117.448c1.153-5.544-.765-18.238-.765-19.848,0-1.535-.025-14.579-.029-15.812l-3.358,2.42s-1.067,10.229,0,16.054c.972,5.3.345,15.618.819,18.575A5.486,5.486,0,0,0,225.852,117.448Z" transform="translate(-187.4 -44.419)" fill="#2a3944"/><path d="M229.355,61.4s3.226,1.511,1.4,6.651-3.117,8.463-3.01,10.377a79.5,79.5,0,0,0,1.292,9.675s.536,4.234-9.781,6.753c0,0-8.493.806-7.1-4.434A65.115,65.115,0,0,0,213.877,74.7c-.217-2.015-1.506-6.044,3.868-8.766S225.916,61.2,229.355,61.4Z" transform="translate(-190.763 -50.115)" fill="#9cbc35"/><path d="M213.877,73.5a65.114,65.114,0,0,1-1.722,15.722c-.965,3.63,2.815,4.357,5.227,4.462.774-2.34-.532-6.511,1.259-11.618,2.213-6.309,1.9-10.478.716-13.839-.768-2.181-2.165-2.239-3.157-2.544C212.646,68.323,213.685,71.709,213.877,73.5Z" transform="translate(-190.763 -48.916)" fill="#779f29"/><path d="M226.977,88.1a79.5,79.5,0,0,1-1.292-9.675c-.106-1.914,1.229-5.224,3.01-10.377,1.685-4.873-.285-6.147-1.4-6.651-.568,2.519-9.878,3.588-9.655,5.272.25,1.875,2.738,3.627,2.883,6.987a46.577,46.577,0,0,1-.947,10.817c-.548,2.159-.276,7.379.242,9.627C227.418,91.574,226.977,88.1,226.977,88.1Z" transform="translate(-188.707 -50.112)" fill="#9cbc35"/><g transform="translate(26.801)"><path d="M223.472,59.458a8.229,8.229,0,0,0,.641,4.366c.894,1.525-5.858,2.914-6.016,1.5a5.727,5.727,0,0,0-.352-5.2C216.893,58.689,223.472,59.458,223.472,59.458Z" transform="translate(-215.498 -50.711)" fill="#efb185"/><path d="M223.864,63.748a7.439,7.439,0,0,1-.678-3.9l-4.929,2.292,0,.01c.179.042,3.507.831,4.226,3.075C223.5,64.842,224.188,64.3,223.864,63.748Z" transform="translate(-215.284 -50.543)" fill="#dd9569"/><path d="M216.945,54.047a10.927,10.927,0,0,0-.839,4.537c.222,2.26-.135,2.717.018,3.721a2.305,2.305,0,0,0,.544,1.481c.748.674,2.279.921,4.357.21,2.513-.862,5.161-4.1,4.084-7.014S220.725,51.674,216.945,54.047Z" transform="translate(-216.078 -52.434)" fill="#efb185"/><path d="M224.9,60.13c-1.007-2.621-3.508-5.764-3.485-5.93a7.887,7.887,0,0,0-1.76-1.112,5.907,5.907,0,0,0-2.807.957,12.252,12.252,0,0,0-.521,1.571c.6.628,1.82,1.342,2,1.877a6.439,6.439,0,0,1-.211,4c-.4.839,1.213,2.07.873,2.814a.17.17,0,0,0-.01.1,7.539,7.539,0,0,0,1.944-.408A7.05,7.05,0,0,0,224.9,60.13Z" transform="translate(-215.986 -52.432)" fill="#e6a376"/><path d="M216.173,53.189a2.956,2.956,0,0,0,1.835,3.1c1.319.605,1.2,2.6,1.137,2.969a8.609,8.609,0,0,0-.288,2.267c.31.416,1.341-.879,1.834-.789,1.246.228.759,1.318-.377,2.466-1.206,1.213,1.972,1.713,3.443.709.779-.533,1.064-.851,2.09-2.764,1.493-2.787,1.568-6.135-1.948-7.922S218.356,54,216.173,53.189Z" transform="translate(-216.051 -52.575)" fill="#221101"/><path d="M223.757,63.909c.779-.533,1.064-.851,2.09-2.764,1.493-2.787,1.568-6.135-1.948-7.922s-5.543.778-7.726-.033a2.827,2.827,0,0,0,.019.84c1.116.169,4.163.73,4.949,1.96.967,1.512,2.041,1.025,1.959,2.9-.078,1.813.423,4.184-2.823,5.206A3.465,3.465,0,0,0,223.757,63.909Z" transform="translate(-216.051 -52.575)" fill="#341c09"/></g><path d="M218.85,63.737l-2.2,1.735s6.843,1.84,8.847-1.307a1.805,1.805,0,0,0-1.254-2.216S224.011,64.509,218.85,63.737Z" transform="translate(-189.068 -49.958)" fill="#def0f9"/><path d="M222.484,65.781S225.209,68,221.462,70.7s-10.327,6.982-12.712,6.529-8.811-2.45-8.811-2.45,1.748-1.493.805-3.133l8.716.918S220.611,64.191,222.484,65.781Z" transform="translate(-195.159 -48.944)" fill="#779f29"/><path d="M222.269,65.781c-1.873-1.59-13.023,6.788-13.023,6.788l-8.716-.918a1.991,1.991,0,0,1,.274,1.039c2.833.572,8.089,1.577,9.3,1.425,1.486-.185,10.67-6.057,12.837-7.457A3.014,3.014,0,0,0,222.269,65.781Z" transform="translate(-194.944 -48.944)" fill="#9cbc35"/></g></g></svg>