<svg xmlns="http://www.w3.org/2000/svg" xmlns:xlink="http://www.w3.org/1999/xlink" width="448.877" height="334" viewBox="0 0 448.877 334"><defs><radialGradient id="a" cx="0.5" cy="0.5" r="0.31" gradientTransform="matrix(-1.221, -0.709, -1.221, 0.701, 348.642, 109.081)" gradientUnits="objectBoundingBox"><stop offset="0.056" stop-color="#7f9bb0"/><stop offset="1" stop-color="#fff"/></radialGradient><radialGradient id="b" cx="0.5" cy="0.5" r="0.31" gradientTransform="matrix(-1.221, -0.709, -1.221, 0.701, 641.794, 200.836)" xlink:href="#a"/></defs><g transform="translate(-185.123 -1408)"><rect width="447" height="334" transform="translate(187 1408)" fill="none"/><g transform="translate(152.971 2066.461)"><path d="M452.276-521.783c-17.942-20.572-48.966-29.808-74.843-20.28-5.485,2.019-28.075,2.019-33.559,0-25.877-9.528-56.9-.292-74.844,20.28-21.306,24.43-27.946,57.1-23.392,87.9,5.792,39.155,27.652,65.981,68.149,78.032,22.613,6.729,31.321,3.119,46.866,3.119s24.253,3.609,46.866-3.119c40.5-12.05,62.356-38.877,68.149-78.032,4.554-30.8-2.085-63.47-23.392-87.9" transform="translate(0 -29.519)" fill="#e22225"/><path d="M347.339-469.279a22.9,22.9,0,0,1-22.9,22.9,22.9,22.9,0,0,1-22.9-22.9,22.9,22.9,0,0,1,22.9-22.9,22.9,22.9,0,0,1,22.9,22.9" transform="translate(-21.428 -49.592)" fill="#e74739"/><path d="M481.993-521.783c-17.942-20.572-48.966-29.808-74.843-20.28-5.485,2.019-28.075,2.019-33.559,0A63.272,63.272,0,0,0,347.02-545.6c14.766,3.213,15.279,21.913,61.565,18.481,43.011-3.189,74.768,60.665,50.3,113.245-15.2,32.658-67.08,54.759-135.183,50.193a118.18,118.18,0,0,0,19.8,7.83c22.614,6.729,31.321,3.119,46.866,3.119s24.253,3.609,46.867-3.119c40.5-12.05,62.356-38.877,68.148-78.032,4.555-30.8-2.085-63.47-23.392-87.9" transform="translate(-29.717 -29.519)" fill="#c51d1f"/><path d="M401.228-566.494c-4.269-10.77-14.851-17.272-26.378-18.425,5.547,5.345,9.592,9.9,11.457,19.225-6.047-3.4-22.382-5.862-31.347.531,11.931,1.339,18.546,4.006,25.485,11.992,0,0-4.857,4.5-5.862,9.458-.716,3.538.363,11.645.363,11.645,7.363-10.446,24.949-5.117,25.749-16.041,0,0,18.118,3.464,25.046,15.987,1.331-16.519-6.661-19.451-6.661-19.451,7.638-5.506,21.937-1.6,30.093.933-5.314-7.853-16.985-14.529-27.638-13.092,4.279-7.769,11.89-12.129,20.716-13-13.346-4.591-32.3-4.393-41.024,10.234h0" transform="translate(-41.414 -14.891)" fill="#238735"/><path d="M435.576-624.705c-14.444,11.41-12.883,39.15-11.177,52.416a3.63,3.63,0,0,0,3.776-.284c.045-8.039.649-20.553,3.635-28.935,4.3-12.075,11.081-15.714,11.081-15.714,0-8.1-7.315-7.483-7.315-7.483" transform="translate(-66.994 0)" fill="#1f792f"/></g><g transform="translate(318.412 1492.835)"><g transform="translate(27.052 126.568)"><path d="M172.973,353.5c-9.032-5.215-16.354-17.843-16.354-28.207,0-3.844,1.019-6.818,2.749-8.79-4.956.358-8.309,4.508-8.309,11.51,0,10.364,7.321,22.993,16.354,28.207,5.673,3.276,10.656,2.826,13.583-.521A14.19,14.19,0,0,1,172.973,353.5Z" transform="translate(-139.211 -296.753)" fill="#72b5e8"/><path d="M192.806,355.432a32.353,32.353,0,0,0-.279-3.964l6.61-.836a59.784,59.784,0,0,0-3-10.007l-7.531-2.277a52.851,52.851,0,0,0-4.689-8.087l1.805-7.6a60.387,60.387,0,0,0-7.213-7.6l-4.055,5.243a32.741,32.741,0,0,0-3.312-2.234,25.48,25.48,0,0,0-3.315-1.593l-4.054-9.927a20.091,20.091,0,0,0-7.213-.727l1.805,9.685a10.325,10.325,0,0,0-4.688,2.673l-7.533-6.419a19.688,19.688,0,0,0-3,6.547l6.61,8.47a25.083,25.083,0,0,0-.279,3.64,32.332,32.332,0,0,0,.279,3.964l-6.61.836a59.786,59.786,0,0,0,3,10.007l7.531,2.279a52.907,52.907,0,0,0,4.689,8.085l-1.805,7.6a60.288,60.288,0,0,0,7.213,7.6l4.054-5.243a32.784,32.784,0,0,0,3.315,2.234,25.259,25.259,0,0,0,3.312,1.593l4.055,9.927a20.055,20.055,0,0,0,7.213.727l-1.805-9.685a10.335,10.335,0,0,0,4.689-2.671l7.531,6.418a19.675,19.675,0,0,0,3-6.547l-6.61-8.469A25.121,25.121,0,0,0,192.806,355.432Zm-21.453,6.141C162.321,356.359,155,343.73,155,333.366s7.321-14.538,16.354-9.323,16.352,17.843,16.352,28.207S180.384,366.788,171.353,361.573Z" transform="translate(-143.151 -302.109)" fill="#a8cff0"/><path d="M167.307,313.78l-4.054-9.926-6.335,3.639,4.054,9.926Z" transform="translate(-136.293 -303.052)" fill="#72b5e8"/><path d="M159.624,314.118a25.48,25.48,0,0,1,3.315,1.593,32.751,32.751,0,0,1,3.312,2.234l4.055-5.243h0s-.686-.43-1.032-.631a25.662,25.662,0,0,0-3.314-1.592Z" transform="translate(-134.945 -299.752)" fill="#d1ebff"/><path d="M165.652,304.121a20.1,20.1,0,0,0-7.215-.728l-6.334,3.639a20.088,20.088,0,0,1,7.213.727Z" transform="translate(-138.692 -303.319)" fill="#d1ebff"/><path d="M180.3,317.136a60.314,60.314,0,0,0-7.215-7.6l-6.334,3.639a60.387,60.387,0,0,1,7.213,7.6Z" transform="translate(-131.393 -300.223)" fill="#d1ebff"/><path d="M172.17,318.246l-1.8,7.6,6.335-3.639,1.8-7.6Z" transform="translate(-129.595 -297.696)" fill="#72b5e8"/><path d="M170.365,323.32a52.85,52.85,0,0,1,4.689,8.087l6.334-3.639a52.844,52.844,0,0,0-4.688-8.087Z" transform="translate(-129.595 -295.168)" fill="#72b5e8"/><path d="M173.495,328.717,181.027,331l6.335-3.639-7.532-2.278Z" transform="translate(-128.036 -292.48)" fill="#d1ebff"/><path d="M178.522,330.238a59.784,59.784,0,0,1,3,10.007l6.334-3.639a59.681,59.681,0,0,0-2.995-10.007Z" transform="translate(-125.532 -291.722)" fill="#72b5e8"/><path d="M157.371,314.718l-.526-2.818-5.36-4.568-6.334,3.639,7.533,6.419A10.325,10.325,0,0,1,157.371,314.718Z" transform="translate(-142.155 -301.32)" fill="#72b5e8"/><path d="M181.518,348.206a19.675,19.675,0,0,1-3,6.547l6.336-3.637a19.652,19.652,0,0,0,2.995-6.548Z" transform="translate(-125.532 -282.772)" fill="#72b5e8"/><path d="M182.444,340.509a24.891,24.891,0,0,0,.28-3.642c0-.381-.025-.77-.045-1.157l-6.569.831a32.354,32.354,0,0,1,.279,3.964,25.121,25.121,0,0,1-.279,3.642Z" transform="translate(-126.733 -287.183)" fill="#72b5e8"/><path d="M176.11,342.552l6.61,8.469,6.335-3.639-6.61-8.469Z" transform="translate(-126.733 -285.588)" fill="#d1ebff"/><path d="M175.054,347.082a10.335,10.335,0,0,1-4.689,2.671l1.805,9.685,6.336-3.639-1.281-6.867Z" transform="translate(-129.595 -281.519)" fill="#72b5e8"/><path d="M149.523,322.923l-6.372,3.739,6.61-.836C149.639,324.85,149.564,323.882,149.523,322.923Z" transform="translate(-143.151 -293.553)" fill="#d1ebff"/><path d="M160.972,345.665l-4.054,5.243,6.382-3.631C162.515,346.774,161.737,346.24,160.972,345.665Z" transform="translate(-136.293 -282.225)" fill="#72b5e8"/><g transform="translate(0.319 3.609)" style="mix-blend-mode:color-dodge;isolation:isolate"><path d="M153.091,312.587l-.018-.1c-.3.117-.59.255-.878.4C152.49,312.779,152.782,312.668,153.091,312.587Z" transform="translate(-138.965 -302.36)" fill="#fff"/><path d="M148.852,324.936l-5.488.7c.021.106.049.213.072.319l5.449-.689C148.871,325.152,148.864,325.045,148.852,324.936Z" transform="translate(-143.364 -296.16)" fill="#fff"/><path d="M173.59,319.987l-1.8,7.6a52.9,52.9,0,0,1,4.688,8.085l7.533,2.279a60.078,60.078,0,0,1,2.923,9.687l.746-.123a59.829,59.829,0,0,0-3-10.007l-7.533-2.277a52.989,52.989,0,0,0-4.688-8.087l1.805-7.6a60.5,60.5,0,0,0-7.213-7.6l-.249.834A60.686,60.686,0,0,1,173.59,319.987Z" transform="translate(-131.689 -302.632)" fill="#fff"/><path d="M167.657,355.57c-9.032-5.215-16.354-17.843-16.354-28.207,0-4.578,1.435-7.933,3.813-9.814-2.746,1.768-4.434,5.294-4.434,10.258,0,10.364,7.321,22.992,16.354,28.207,4.56,2.632,8.68,2.864,11.646,1.124-.22.067-.449.111-.677.16C175.185,358.32,171.585,357.838,167.657,355.57Z" transform="translate(-139.719 -299.839)" fill="#fff"/><path d="M171.177,349.28a10.236,10.236,0,0,0,2.98-1.669l-.279-.238A10.29,10.29,0,0,1,171.177,349.28Z" transform="translate(-129.51 -284.983)" fill="#fff"/><path d="M152.418,316.361c-.274.012,0-.214.279-.437l-7.252-6.183c-.207.285-.392.6-.051.634Z" transform="translate(-142.448 -303.729)" fill="#fff"/><path d="M170.267,349.28l1.727,9.269c-.2-.009.193-.015.575-.051l-1.787-9.586C170.421,349.05,170.055,349.179,170.267,349.28Z" transform="translate(-129.994 -284.217)" fill="#fff" style="mix-blend-mode:color-dodge;isolation:isolate"/><path d="M176.81,340.1a31.151,31.151,0,0,0-.247-3.639l-.658.049a32.059,32.059,0,0,1,.28,3.964,24.886,24.886,0,0,1-.28,3.642l6.611,8.469a20.259,20.259,0,0,1-2.413,5.648l.042.526a19.683,19.683,0,0,0,3-6.548l-6.611-8.469A24.89,24.89,0,0,0,176.81,340.1Z" transform="translate(-127.155 -290.418)" fill="#fff"/><path d="M158.935,306.822l4.054,9.927a25.464,25.464,0,0,1,3.314,1.593,32.762,32.762,0,0,1,3.314,2.234l.127-.629a31.031,31.031,0,0,0-2.846-1.9,25.447,25.447,0,0,0-3.314-1.591l-4.054-9.927a20.091,20.091,0,0,0-7.213-.728l.076.416A23.648,23.648,0,0,1,158.935,306.822Z" transform="translate(-138.905 -305.728)" fill="#fff"/><path d="M160.237,345.957l-3.39,4.385c.142.129.282.265.425.393l3.432-4.44C160.55,346.179,160.392,346.074,160.237,345.957Z" transform="translate(-136.648 -285.689)" fill="#fff"/></g></g><g transform="translate(5.519 21.556)"><path d="M173.638,308.7c-13.586-7.844-24.6-26.84-24.6-42.43,0-5.783,1.531-10.256,4.135-13.222-7.456.541-12.5,6.782-12.5,17.317,0,15.588,11.013,34.584,24.6,42.428,8.535,4.927,16.028,4.25,20.434-.785C182.143,312.272,178.032,311.239,173.638,308.7Z" transform="translate(-122.852 -223.347)" fill="#72b5e8"/><path d="M203.473,311.614a48.653,48.653,0,0,0-.421-5.963L213,304.393a89.917,89.917,0,0,0-4.506-15.053l-11.33-3.426a79.681,79.681,0,0,0-7.052-12.163l2.715-11.434a90.741,90.741,0,0,0-10.851-11.435l-6.1,7.888a49.513,49.513,0,0,0-4.984-3.36,38.471,38.471,0,0,0-4.986-2.4l-6.1-14.93a30.227,30.227,0,0,0-10.851-1.1l2.715,14.569a15.553,15.553,0,0,0-7.052,4.021l-11.33-9.657a29.594,29.594,0,0,0-4.506,9.849l9.943,12.74a37.724,37.724,0,0,0-.421,5.477,48.625,48.625,0,0,0,.421,5.962l-9.943,1.258a89.918,89.918,0,0,0,4.506,15.053l11.33,3.426a79.54,79.54,0,0,0,7.052,12.163l-2.715,11.434A90.749,90.749,0,0,0,159.8,334.721l6.1-7.889a49.359,49.359,0,0,0,4.986,3.36,38.36,38.36,0,0,0,4.984,2.4l6.1,14.932a30.19,30.19,0,0,0,10.851,1.094l-2.715-14.569a15.551,15.551,0,0,0,7.052-4.019l11.33,9.655A29.594,29.594,0,0,0,213,329.831l-9.943-12.74A37.728,37.728,0,0,0,203.473,311.614ZM171.2,320.851c-13.586-7.844-24.6-26.84-24.6-42.428s11.013-21.87,24.6-14.025,24.6,26.84,24.6,42.428S184.785,328.7,171.2,320.851Z" transform="translate(-128.778 -231.403)" fill="#a8cff0"/><path d="M165.115,248.959l-6.1-14.931-9.529,5.473,6.1,14.931Z" transform="translate(-118.462 -232.822)" fill="#72b5e8"/><path d="M153.558,249.468a38.471,38.471,0,0,1,4.986,2.4,49.513,49.513,0,0,1,4.984,3.36l6.1-7.888h0s-1.031-.647-1.552-.948a38.443,38.443,0,0,0-4.984-2.394Z" transform="translate(-116.434 -227.858)" fill="#d1ebff"/><path d="M162.624,234.429a30.2,30.2,0,0,0-10.852-1.094l-9.528,5.473a30.227,30.227,0,0,1,10.851,1.1Z" transform="translate(-122.07 -233.223)" fill="#d1ebff"/><path d="M184.664,254.006a90.952,90.952,0,0,0-10.851-11.435l-9.53,5.474a90.741,90.741,0,0,1,10.851,11.435Z" transform="translate(-111.092 -228.567)" fill="#d1ebff"/><path d="M172.43,255.678l-2.715,11.434,9.529-5.473,2.715-11.434Z" transform="translate(-108.386 -224.765)" fill="#72b5e8"/><path d="M169.715,263.31a79.681,79.681,0,0,1,7.052,12.163L186.3,270a79.751,79.751,0,0,0-7.052-12.165Z" transform="translate(-108.386 -220.963)" fill="#72b5e8"/><path d="M174.422,271.429l11.33,3.426,9.529-5.473-11.33-3.426Z" transform="translate(-106.042 -216.919)" fill="#d1ebff"/><path d="M181.985,273.716a89.918,89.918,0,0,1,4.506,15.053l9.528-5.474a89.93,89.93,0,0,0-4.5-15.052Z" transform="translate(-102.274 -215.779)" fill="#72b5e8"/><path d="M150.168,250.37l-.789-4.238-8.063-6.872-9.53,5.474,11.33,9.657A15.553,15.553,0,0,1,150.168,250.37Z" transform="translate(-127.28 -230.216)" fill="#72b5e8"/><path d="M186.491,300.744a29.594,29.594,0,0,1-4.506,9.849l9.53-5.473a29.586,29.586,0,0,0,4.5-9.85Z" transform="translate(-102.274 -202.316)" fill="#72b5e8"/><path d="M187.884,289.167a37.532,37.532,0,0,0,.421-5.477c0-.574-.037-1.158-.067-1.741l-9.882,1.251a48.653,48.653,0,0,1,.421,5.963,37.728,37.728,0,0,1-.421,5.477Z" transform="translate(-104.082 -208.952)" fill="#72b5e8"/><path d="M178.356,292.24l9.943,12.739,9.529-5.473-9.943-12.739Z" transform="translate(-104.082 -206.552)" fill="#d1ebff"/><path d="M176.767,299.053a15.551,15.551,0,0,1-7.052,4.019l2.715,14.569,9.53-5.474-1.925-10.331Z" transform="translate(-108.386 -200.432)" fill="#72b5e8"/><path d="M138.363,262.713l-9.585,5.625,9.943-1.258C138.538,265.61,138.426,264.154,138.363,262.713Z" transform="translate(-128.778 -218.534)" fill="#d1ebff"/><path d="M155.586,296.922l-6.1,7.889,9.6-5.464C157.9,298.591,156.735,297.789,155.586,296.922Z" transform="translate(-118.462 -201.494)" fill="#72b5e8"/><g transform="translate(0.479 5.429)" style="mix-blend-mode:color-dodge;isolation:isolate"><path d="M143.73,247.164l-.027-.148c-.454.175-.888.384-1.321.6C142.827,247.453,143.267,247.286,143.73,247.164Z" transform="translate(-122.481 -231.781)" fill="#fff"/><path d="M137.353,265.741l-8.255,1.044c.033.16.076.321.109.481l8.195-1.037C137.383,266.066,137.372,265.9,137.353,265.741Z" transform="translate(-129.098 -222.454)" fill="#fff"/><path d="M174.566,258.3l-2.715,11.434a79.679,79.679,0,0,1,7.052,12.163l11.33,3.426a90.259,90.259,0,0,1,4.4,14.572l1.122-.186a89.957,89.957,0,0,0-4.506-15.053l-11.33-3.426a79.685,79.685,0,0,0-7.052-12.163l2.715-11.434A90.839,90.839,0,0,0,164.728,246.2l-.373,1.255A91.4,91.4,0,0,1,174.566,258.3Z" transform="translate(-111.536 -232.19)" fill="#fff"/><path d="M165.64,311.821c-13.585-7.844-24.6-26.84-24.6-42.43,0-6.885,2.16-11.933,5.735-14.763-4.129,2.659-6.668,7.963-6.668,15.429,0,15.589,11.013,34.586,24.6,42.43,6.858,3.96,13.056,4.31,17.518,1.69-.33.1-.676.166-1.017.243C176.965,315.959,171.55,315.233,165.64,311.821Z" transform="translate(-123.614 -227.989)" fill="#fff"/><path d="M170.936,302.359a15.423,15.423,0,0,0,4.482-2.511l-.419-.357A15.512,15.512,0,0,1,170.936,302.359Z" transform="translate(-108.257 -205.642)" fill="#fff"/><path d="M142.718,252.842c-.413.018,0-.322.418-.659l-10.911-9.3c-.309.428-.587.9-.075.953Z" transform="translate(-127.719 -233.84)" fill="#fff"/><path d="M169.566,302.359l2.6,13.943c-.3-.015.292-.022.866-.076L170.342,301.8C169.8,302.013,169.248,302.21,169.566,302.359Z" transform="translate(-108.986 -204.49)" fill="#fff" style="mix-blend-mode:color-dodge;isolation:isolate"/><path d="M179.408,288.556a47.188,47.188,0,0,0-.37-5.476l-.99.075a48.354,48.354,0,0,1,.421,5.963,37.516,37.516,0,0,1-.421,5.477l9.943,12.74a30.375,30.375,0,0,1-3.63,8.5l.064.79a29.616,29.616,0,0,0,4.506-9.85l-9.943-12.74A37.722,37.722,0,0,0,179.408,288.556Z" transform="translate(-104.715 -213.817)" fill="#fff"/><path d="M152.521,238.493l6.1,14.932a38.438,38.438,0,0,1,4.984,2.394,49.181,49.181,0,0,1,4.984,3.362l.192-.947a46.812,46.812,0,0,0-4.28-2.855,38.261,38.261,0,0,0-4.986-2.394l-6.1-14.932a30.227,30.227,0,0,0-10.851-1.1l.117.626A35.528,35.528,0,0,1,152.521,238.493Z" transform="translate(-122.39 -236.847)" fill="#fff"/><path d="M154.48,297.361l-5.1,6.6c.216.193.424.4.64.59l5.164-6.68C154.95,297.7,154.712,297.536,154.48,297.361Z" transform="translate(-118.995 -206.703)" fill="#fff"/></g></g><g transform="translate(62.018 22.516)"><path d="M212.082,333.593a.751.751,0,0,1-.7-1.008q.436-1.187.8-2.451a.749.749,0,0,1,1.44.415q-.38,1.317-.834,2.553A.75.75,0,0,1,212.082,333.593Zm1.829-6.878a.655.655,0,0,1-.132-.012.748.748,0,0,1-.607-.867q.252-1.422.424-2.92a.749.749,0,1,1,1.488.169q-.175,1.544-.437,3.011A.75.75,0,0,1,213.911,326.715Zm.755-7.447h-.025a.751.751,0,0,1-.724-.775q.034-1,.033-2.019l-.008-.939a.751.751,0,0,1,.74-.76h.009a.749.749,0,0,1,.749.739l.007.959q0,1.054-.034,2.072A.748.748,0,0,1,214.666,319.268Zm-.19-7.483a.75.75,0,0,1-.746-.689q-.117-1.47-.3-2.953a.749.749,0,0,1,1.488-.178q.182,1.51.3,3.011a.748.748,0,0,1-.686.806C214.516,311.783,214.5,311.785,214.476,311.785Zm-.969-7.429a.749.749,0,0,1-.736-.617q-.258-1.454-.574-2.914a.749.749,0,1,1,1.465-.313q.319,1.483.583,2.963a.75.75,0,0,1-.605.869A.818.818,0,0,1,213.507,304.355Zm-1.631-7.306a.746.746,0,0,1-.722-.556q-.382-1.431-.812-2.861a.749.749,0,0,1,1.435-.43q.436,1.452.824,2.9a.75.75,0,0,1-.53.917A.732.732,0,0,1,211.875,297.049Zm-2.207-7.161a.749.749,0,0,1-.707-.5q-.488-1.4-1.022-2.794a.749.749,0,0,1,1.4-.535q.539,1.416,1.037,2.834a.747.747,0,0,1-.46.953A.716.716,0,0,1,209.668,289.888Zm-2.721-6.978a.752.752,0,0,1-.689-.454q-.587-1.369-1.215-2.727a.749.749,0,1,1,1.36-.628q.636,1.378,1.231,2.763a.75.75,0,0,1-.688,1.046Zm-3.191-6.792a.75.75,0,0,1-.668-.408q-.676-1.328-1.389-2.638a.749.749,0,1,1,1.315-.716q.721,1.326,1.408,2.673a.747.747,0,0,1-.667,1.089Zm-3.624-6.565a.745.745,0,0,1-.644-.366q-.762-1.283-1.555-2.539a.749.749,0,0,1,1.267-.8q.8,1.274,1.575,2.572a.747.747,0,0,1-.261,1.026A.738.738,0,0,1,200.133,269.552Zm-4.034-6.307a.752.752,0,0,1-.619-.327q-.843-1.229-1.714-2.428a.749.749,0,0,1,1.212-.881q.883,1.218,1.738,2.463a.75.75,0,0,1-.617,1.173Zm-4.436-6.027a.748.748,0,0,1-.589-.285q-.924-1.173-1.876-2.312a.749.749,0,0,1,1.151-.96c.643.772,1.278,1.551,1.9,2.345a.748.748,0,0,1-.587,1.212Zm-4.843-5.715a.749.749,0,0,1-.554-.244q-1-1.1-2.034-2.169a.749.749,0,0,1,1.077-1.041q1.045,1.083,2.066,2.2a.75.75,0,0,1-.554,1.254Zm-5.251-5.344a.747.747,0,0,1-.512-.2q-1.09-1.022-2.2-2a.749.749,0,1,1,.99-1.124q1.128.991,2.234,2.03a.749.749,0,0,1,.034,1.059A.738.738,0,0,1,181.568,246.159Zm-5.672-4.893a.742.742,0,0,1-.463-.162q-1.171-.924-2.364-1.793a.75.75,0,0,1,.882-1.212q1.216.888,2.41,1.829a.75.75,0,0,1-.466,1.338Zm-6.1-4.349a.743.743,0,0,1-.4-.117q-1.258-.8-2.533-1.539a.748.748,0,1,1,.749-1.3q1.3.751,2.589,1.57a.749.749,0,0,1-.4,1.381Z" transform="translate(-166.491 -233.864)" fill="#0fbab8"/></g><g transform="translate(103.987 110.51)"><g transform="translate(14.685)"><path d="M205.057,295.6h-.015a.749.749,0,0,1-.734-.764c.009-.491.013-.986.013-1.486a.749.749,0,1,1,1.5,0q0,.764-.013,1.515A.75.75,0,0,1,205.057,295.6Z" transform="translate(-204.308 -292.6)" fill="#a8cff0"/></g><g transform="translate(4.73 6.412)"><path d="M198.412,324a.749.749,0,0,1-.563-1.243,31.265,31.265,0,0,0,1.984-2.508.749.749,0,1,1,1.219.869,32.922,32.922,0,0,1-2.076,2.629A.749.749,0,0,1,198.412,324ZM203,317.237a.729.729,0,0,1-.345-.085.748.748,0,0,1-.321-1.01c.487-.938.947-1.918,1.363-2.911a.749.749,0,1,1,1.381.58c-.433,1.031-.909,2.048-1.414,3.022A.751.751,0,0,1,203,317.237Zm3.032-7.6a.761.761,0,0,1-.213-.03.749.749,0,0,1-.5-.93c.3-1.02.575-2.07.815-3.127a.75.75,0,0,1,1.462.334c-.247,1.085-.53,2.168-.84,3.216A.749.749,0,0,1,206.032,309.64Zm1.709-8.006a.8.8,0,0,1-.1-.008.749.749,0,0,1-.64-.846q.22-1.573.364-3.218a.764.764,0,0,1,.812-.68.747.747,0,0,1,.68.812q-.146,1.683-.372,3.294A.75.75,0,0,1,207.741,301.634Z" transform="translate(-197.663 -296.88)" fill="#a8cff0"/></g><g transform="translate(0 35.464)"><path d="M195.255,318.682a.748.748,0,0,1-.442-1.353q.584-.429,1.148-.888a.749.749,0,1,1,.947,1.161q-.593.485-1.21.935A.736.736,0,0,1,195.255,318.682Z" transform="translate(-194.506 -316.273)" fill="#a8cff0"/></g></g><g transform="translate(0 0)"><g transform="translate(0 40.483)"><path d="M125.843,248.856a.747.747,0,0,1-.749-.749c0-.506,0-1.013.013-1.515a.75.75,0,0,1,.749-.736h.015a.748.748,0,0,1,.734.764c-.009.493-.013.987-.013,1.486A.748.748,0,0,1,125.843,248.856Z" transform="translate(-125.094 -245.857)" fill="#a8cff0"/></g><g transform="translate(0.24)"><path d="M235.357,289.35a.748.748,0,0,1-.692-.46q-.58-1.391-1.194-2.777a.749.749,0,0,1,1.369-.605q.62,1.4,1.207,2.806a.747.747,0,0,1-.691,1.037Zm-3.11-6.923a.749.749,0,0,1-.676-.424q-.654-1.36-1.339-2.707a.749.749,0,0,1,1.335-.679q.692,1.362,1.354,2.736a.748.748,0,0,1-.351,1A.716.716,0,0,1,232.247,282.428Zm-3.471-6.748a.75.75,0,0,1-.658-.388q-.726-1.326-1.479-2.632a.749.749,0,1,1,1.3-.749q.762,1.324,1.5,2.661a.749.749,0,0,1-.3,1.017A.741.741,0,0,1,228.776,275.68Zm-3.819-6.553a.749.749,0,0,1-.638-.355q-.793-1.283-1.613-2.55a.749.749,0,1,1,1.258-.813q.827,1.279,1.628,2.577a.749.749,0,0,1-.635,1.142Zm-4.154-6.343a.746.746,0,0,1-.616-.322q-.861-1.243-1.745-2.458a.75.75,0,0,1,1.213-.881q.892,1.229,1.763,2.485a.75.75,0,0,1-.616,1.176Zm-4.484-6.111a.752.752,0,0,1-.593-.291q-.924-1.191-1.873-2.36a.749.749,0,0,1,1.163-.945q.96,1.182,1.9,2.387a.749.749,0,0,1-.133,1.05A.735.735,0,0,1,216.319,256.673Zm-90.314-.4-.061,0a.749.749,0,0,1-.686-.807q.128-1.555.322-3.052a.749.749,0,0,1,1.486.193q-.189,1.461-.315,2.981A.749.749,0,0,1,126,256.272Zm85.5-5.452a.745.745,0,0,1-.565-.256q-.993-1.139-2-2.247a.749.749,0,1,1,1.106-1.01q1.027,1.121,2.028,2.273a.751.751,0,0,1-.073,1.058A.742.742,0,0,1,211.508,250.82Zm-84.434-2.049a.661.661,0,0,1-.153-.015.751.751,0,0,1-.581-.887q.321-1.533.715-2.99a.748.748,0,1,1,1.446.388q-.382,1.418-.694,2.909A.749.749,0,0,1,127.074,248.771Zm79.288-3.515a.744.744,0,0,1-.533-.225q-1.061-1.079-2.141-2.124a.749.749,0,0,1,1.043-1.076q1.092,1.056,2.166,2.15a.75.75,0,0,1-.535,1.275Zm-77.194-3.762a.748.748,0,0,1-.7-1.014c.367-.971.767-1.93,1.189-2.846a.75.75,0,0,1,1.362.629c-.409.884-.8,1.808-1.151,2.748A.746.746,0,0,1,129.168,241.494Zm71.708-1.474a.751.751,0,0,1-.5-.19q-1.128-1.009-2.274-1.976a.748.748,0,1,1,.966-1.143q1.162.98,2.306,2a.749.749,0,0,1-.5,1.308Zm-5.829-4.845a.754.754,0,0,1-.457-.154q-1.2-.924-2.413-1.8a.749.749,0,1,1,.878-1.213q1.234.892,2.449,1.829a.749.749,0,0,1-.457,1.342Zm-62.563-.485a.75.75,0,0,1-.637-1.145c.548-.884,1.136-1.745,1.742-2.559a.75.75,0,0,1,1.2.9c-.583.777-1.143,1.6-1.669,2.451A.748.748,0,0,1,132.484,234.69Zm56.377-3.9a.744.744,0,0,1-.407-.123q-1.267-.822-2.55-1.592a.75.75,0,0,1,.772-1.285q1.306.784,2.595,1.624a.749.749,0,0,1-.409,1.377Zm-51.693-2.033a.748.748,0,0,1-.529-1.279,29.771,29.771,0,0,1,2.318-2.073.749.749,0,1,1,.939,1.167,28.549,28.549,0,0,0-2.2,1.967A.751.751,0,0,1,137.168,228.756Zm45.155-1.805a.757.757,0,0,1-.346-.085q-1.353-.708-2.688-1.338a.75.75,0,1,1,.64-1.356q1.362.645,2.743,1.366a.75.75,0,0,1-.349,1.413Zm-39.141-2.772a.748.748,0,0,1-.37-1.4,29.014,29.014,0,0,1,2.782-1.39.749.749,0,0,1,.6,1.375,27.93,27.93,0,0,0-2.638,1.317A.751.751,0,0,1,143.182,224.179Zm32.25-.381a.727.727,0,0,1-.273-.051q-1.418-.555-2.815-1.016a.749.749,0,0,1,.469-1.422q1.434.474,2.891,1.043a.748.748,0,0,1-.273,1.446Zm-7.227-2.271a.686.686,0,0,1-.172-.021q-1.481-.348-2.926-.595a.75.75,0,0,1,.252-1.479c.993.171,2,.375,3.019.617a.749.749,0,0,1-.172,1.477Zm-18.016-.172a.75.75,0,0,1-.187-1.476c.98-.253,2-.464,3.037-.631a.75.75,0,1,1,.235,1.482c-.989.156-1.963.36-2.9.6A.739.739,0,0,1,150.189,221.355Zm10.527-.954-.046,0c-1.007-.06-2-.079-2.969-.057a.708.708,0,0,1-.767-.733.749.749,0,0,1,.733-.766c1.013-.024,2.046,0,3.094.06a.749.749,0,0,1-.043,1.5Z" transform="translate(-125.254 -218.835)" fill="#a8cff0"/></g><g transform="translate(111.299 73.315)"><path d="M200.656,270.678a.75.75,0,0,1-.7-.493c-.169-.467-.342-.932-.517-1.4a.748.748,0,1,1,1.4-.526q.267.7.526,1.413a.75.75,0,0,1-.449.96A.764.764,0,0,1,200.656,270.678Z" transform="translate(-199.386 -267.773)" fill="#a8cff0"/></g></g><g transform="translate(78.98 144.865)"><g transform="translate(11.539)"><path d="M186.833,318.416a.748.748,0,0,1-.694-.467q-.279-.69-.565-1.377a.749.749,0,1,1,1.381-.58q.29.694.572,1.395a.749.749,0,0,1-.415.975A.763.763,0,0,1,186.833,318.416Z" transform="translate(-185.516 -315.532)" fill="#0fbab8"/></g><g transform="translate(5.398 5.445)"><path d="M182.166,376.463a.75.75,0,0,1-.376-1.4,21.09,21.09,0,0,0,2.313-1.557.749.749,0,1,1,.917,1.184,22.493,22.493,0,0,1-2.478,1.67A.741.741,0,0,1,182.166,376.463Zm5.546-4.586a.75.75,0,0,1-.563-1.243,23.954,23.954,0,0,0,1.721-2.214.749.749,0,1,1,1.233.851,25.891,25.891,0,0,1-1.828,2.352A.751.751,0,0,1,187.712,371.877Zm3.94-6.034a.727.727,0,0,1-.322-.073.752.752,0,0,1-.352-1c.4-.828.77-1.7,1.106-2.6a.749.749,0,1,1,1.4.524c-.349.936-.739,1.85-1.157,2.722A.749.749,0,0,1,191.652,365.843Zm2.4-6.807a.808.808,0,0,1-.178-.021.75.75,0,0,1-.55-.906q.33-1.348.577-2.779a.749.749,0,1,1,1.477.255c-.171.984-.372,1.952-.6,2.881A.749.749,0,0,1,194.054,359.035Zm1.13-7.133-.061,0a.751.751,0,0,1-.686-.807q.115-1.393.157-2.849a.773.773,0,0,1,.772-.727.749.749,0,0,1,.727.77q-.045,1.5-.162,2.929A.75.75,0,0,1,195.183,351.9Zm.13-7.225a.749.749,0,0,1-.748-.718q-.061-1.42-.18-2.855a.749.749,0,1,1,1.492-.126q.124,1.467.184,2.92a.75.75,0,0,1-.718.779Zm-.677-7.2a.75.75,0,0,1-.742-.643q-.2-1.409-.461-2.828a.748.748,0,1,1,1.473-.268c.177.963.334,1.927.472,2.882a.75.75,0,0,1-.635.849A.848.848,0,0,1,194.636,337.477Zm-1.357-7.1a.752.752,0,0,1-.728-.577q-.326-1.389-.706-2.781a.749.749,0,0,1,1.446-.391c.256.941.5,1.885.719,2.825a.75.75,0,0,1-.557.9A.7.7,0,0,1,193.279,330.373Zm-1.943-6.968a.752.752,0,0,1-.715-.52q-.436-1.36-.917-2.719a.749.749,0,1,1,1.411-.5q.49,1.38.933,2.761a.75.75,0,0,1-.713.978Z" transform="translate(-181.417 -319.167)" fill="#0fbab8"/></g><g transform="translate(0 63.045)"><path d="M178.562,359.543a.748.748,0,0,1-.193-1.471c.47-.127.932-.265,1.386-.419a.749.749,0,1,1,.481,1.419q-.728.245-1.477.446A.745.745,0,0,1,178.562,359.543Z" transform="translate(-177.814 -357.615)" fill="#0fbab8"/></g></g><g transform="translate(116.656 107.768)"><path d="M207.25,297.647a.748.748,0,0,1-.715-.523l-1.02-3.242-1.1,3.1a.749.749,0,1,1-1.411-.5l1.846-5.215a.723.723,0,0,1,.719-.5.746.746,0,0,1,.7.523l1.693,5.38a.749.749,0,0,1-.49.939A.739.739,0,0,1,207.25,297.647Z" transform="translate(-202.962 -290.77)" fill="#a8cff0"/></g><g transform="translate(26.008 59.65)"><path d="M179.863,287.7c0,4.586-1.583,7.834-4.156,9.405-.076.048-4.394,2.725-4.473,2.77-2.677,1.5-.965-1.9-5.029-4.246-8.181-4.724-14.813-16.163-14.813-25.551,0-4.641-4.291-4.679-1.663-6.229.073-.043,4.906-2.8,4.981-2.842,2.67-1.446,6.318-1.179,10.34,1.143C173.231,266.873,179.863,278.311,179.863,287.7Z" transform="translate(-139.256 -257.922)" fill="#fc0"/><path d="M160.282,263.84c-3.922-2.265-7.485-2.569-10.135-1.245,2.47-.691,5.536-.175,8.855,1.742,8.18,4.722,14.812,16.162,14.812,25.549,0,4.887-1.8,8.25-4.679,9.69,3.616-1.011,5.958-4.61,5.958-10.187C175.094,280,168.462,268.562,160.282,263.84Z" transform="translate(-138.623 -257.079)" fill="#fff"/><ellipse cx="12.056" cy="20.883" rx="12.056" ry="20.883" transform="translate(0 12.169) rotate(-30.311)" fill="#ffd70f"/><path d="M156.053,271.972c0,1.318-.932,1.85-2.082,1.187a4.587,4.587,0,0,1-2.081-3.591c0-1.318.932-1.85,2.081-1.187A4.585,4.585,0,0,1,156.053,271.972Z" transform="translate(-137.755 -253.947)" fill="#d99f00"/><path d="M161.672,275.216c0,1.32-.932,1.85-2.081,1.186a4.585,4.585,0,0,1-2.082-3.589c0-1.32.932-1.85,2.082-1.187A4.587,4.587,0,0,1,161.672,275.216Z" transform="translate(-134.956 -252.33)" fill="#d99f00"/><path d="M150.839,274.309l1.942.328a14.148,14.148,0,0,0,5.96,8.265c2.59,1.5,4.962,1,5.9-1.227l1.922,1.964c-1.243,2.957-4.385,3.611-7.82,1.627C155.2,283.223,152.024,278.82,150.839,274.309Z" transform="translate(-138.278 -250.852)" fill="#d99f00"/><path d="M154.579,272.722a4.588,4.588,0,0,1-2.081-3.591,1.729,1.729,0,0,1,.28-1.013c-.536.121-.888.631-.888,1.44a4.587,4.587,0,0,0,2.081,3.59c.776.448,1.444.342,1.8-.172A1.669,1.669,0,0,1,154.579,272.722Z" transform="translate(-137.755 -253.935)" fill="#b08100"/><path d="M160.2,275.966a4.587,4.587,0,0,1-2.081-3.59,1.737,1.737,0,0,1,.28-1.014c-.536.123-.888.631-.888,1.44a4.585,4.585,0,0,0,2.082,3.589c.775.448,1.443.342,1.8-.172A1.67,1.67,0,0,1,160.2,275.966Z" transform="translate(-134.956 -252.32)" fill="#b08100"/><g transform="translate(12.561 23.457)"><path d="M160.584,279.47l-.238-.244a3.56,3.56,0,0,1-.888,1.273A3.124,3.124,0,0,0,160.584,279.47Z" transform="translate(-146.546 -271.86)" fill="#b08100"/><path d="M159.348,284.841c-3.395-1.96-6.448-6.088-7.741-10.4l-.769-.13c1.185,4.511,4.361,8.914,7.9,10.957,2.586,1.494,5.005,1.491,6.574.138C163.762,286.3,161.621,286.153,159.348,284.841Z" transform="translate(-150.839 -274.309)" fill="#b08100"/></g></g></g><ellipse cx="50.012" cy="86.626" rx="50.012" ry="86.626" transform="translate(260.942 1563.887) rotate(-30.311)" fill="url(#a)" style="mix-blend-mode:multiply;isolation:isolate"/><g transform="translate(185.123 1500.416)"><ellipse cx="59.931" cy="24.935" rx="59.931" ry="24.935" transform="translate(85.028 168.483)" fill="#92b4d1" opacity="0.2"/><path d="M207.435,375.342c0-46.851-33.1-103.94-73.928-127.513-19.685-11.366-37.573-12.861-50.821-6.115l-.04-.069L71.182,248.03l5.321,9.14a74.8,74.8,0,0,0-3.82,24.777c0,46.851,33.1,103.941,73.926,127.514a75.944,75.944,0,0,0,23.956,9.273l5.425,9.32,7.669-4.121C198.278,416.876,207.435,399.98,207.435,375.342Z" transform="translate(-18.66 -217.029)" fill="#03336e"/><ellipse cx="60.172" cy="104.225" rx="60.172" ry="104.225" transform="matrix(0.863, -0.505, 0.505, 0.863, 1.644, 60.736)" fill="#3f92d1"/><ellipse cx="60.172" cy="104.225" rx="60.172" ry="104.225" transform="translate(0 61.629) rotate(-30.311)" fill="#2672ab"/><ellipse cx="51.347" cy="88.939" rx="51.347" ry="88.939" transform="translate(15.334 70.372) rotate(-30.311)" fill="#fff"/><path d="M161,371.889c5.083-7.5,7.991-17.84,7.991-30.644,0-.193-.01-.391-.012-.584l-63.073-35.838Z" transform="translate(-1.361 -183.583)" fill="#eb4680"/><path d="M129.455,401.944c-34.842-20.115-63.086-68.831-63.086-108.812,0-20.018,7.083-34.048,18.527-40.544-12.942,5.784-21.1,20.357-21.1,41.829,0,39.98,28.244,88.7,63.084,108.812,17.4,10.043,33.146,11.056,44.559,4.578C160.29,412.794,145.583,411.257,129.455,401.944Z" transform="translate(-22.337 -209.602)" fill="#084c94"/><path d="M110.506,308.288c0,2.186-1.545,3.067-3.45,1.967a7.6,7.6,0,0,1-3.45-5.951c0-2.187,1.545-3.068,3.45-1.967A7.6,7.6,0,0,1,110.506,308.288Z" transform="translate(-2.509 -185.057)" fill="#03336e"/><g transform="translate(46.889 46.056)"><path d="M106.87,265.717h0a2.289,2.289,0,0,1-.956-1.826v-3.21c0-.7.428-1.028.956-.722h0a2.286,2.286,0,0,1,.957,1.826v3.21C107.827,265.7,107.4,266.023,106.87,265.717Z" transform="translate(-48.248 -252.045)" fill="#72b5e8"/><path d="M106.87,351.679h0a2.294,2.294,0,0,1-.956-1.828V346.64c0-.7.428-1.028.956-.722h0a2.286,2.286,0,0,1,.957,1.826v3.211C107.827,351.659,107.4,351.983,106.87,351.679Z" transform="translate(-48.248 -209.226)" fill="#72b5e8"/><path d="M72.441,285.367h0c0,.607-.369.885-.822.622l-3.374-1.948a1.967,1.967,0,0,1-.822-1.571h0c0-.607.367-.885.822-.622l3.374,1.948A1.971,1.971,0,0,1,72.441,285.367Z" transform="translate(-67.422 -241.133)" fill="#72b5e8"/><path d="M147.352,328.617h0c0,.607-.369.885-.822.623l-3.374-1.949a1.971,1.971,0,0,1-.822-1.571h0c0-.607.369-.885.822-.622l3.374,1.948A1.971,1.971,0,0,1,147.352,328.617Z" transform="translate(-30.107 -219.589)" fill="#72b5e8"/><path d="M89.655,261.077h0c-.457.039-1.041-.478-1.306-1.155L86.8,255.937c-.264-.677-.106-1.258.351-1.3h0c.457-.039,1.041.479,1.306,1.157l1.554,3.985C90.27,260.458,90.112,261.038,89.655,261.077Z" transform="translate(-57.835 -254.638)" fill="#72b5e8"/><path d="M127.112,357.146h0c-.457.039-1.043-.479-1.306-1.155L124.252,352c-.264-.677-.108-1.257.349-1.3h0c.458-.039,1.043.478,1.306,1.155l1.554,3.985C127.726,356.526,127.568,357.107,127.112,357.146Z" transform="translate(-39.178 -206.783)" fill="#72b5e8"/><path d="M77.054,307.846h0c.264.677.106,1.257-.351,1.3l-2.691.229c-.457.039-1.043-.478-1.306-1.155h0c-.264-.677-.108-1.258.351-1.3l2.691-.229C76.2,306.651,76.791,307.169,77.054,307.846Z" transform="translate(-64.853 -228.71)" fill="#72b5e8"/><path d="M141.929,302.321h0c.264.677.106,1.258-.351,1.3l-2.691.229c-.457.039-1.043-.479-1.306-1.157h0c-.264-.677-.108-1.257.351-1.3l2.691-.229C141.08,301.127,141.665,301.644,141.929,302.321Z" transform="translate(-32.538 -231.462)" fill="#72b5e8"/><path d="M77.054,268.262h0c-.264.373-.849.214-1.306-.352l-2.691-3.336a1.605,1.605,0,0,1-.351-1.7h0c.264-.372.849-.214,1.306.354l2.691,3.336A1.606,1.606,0,0,1,77.054,268.262Z" transform="translate(-64.853 -250.636)" fill="#72b5e8"/><path d="M141.929,348.7h0c-.264.372-.849.214-1.306-.354l-2.691-3.336a1.6,1.6,0,0,1-.351-1.7h0c.264-.371.849-.214,1.306.352L141.579,347A1.608,1.608,0,0,1,141.929,348.7Z" transform="translate(-32.538 -210.569)" fill="#72b5e8"/><path d="M89.655,330.234h0a1.606,1.606,0,0,1,.351,1.7l-1.554,2.192c-.265.372-.849.214-1.306-.352h0a1.608,1.608,0,0,1-.351-1.7l1.554-2.19C88.614,329.509,89.2,329.668,89.655,330.234Z" transform="translate(-57.835 -217.257)" fill="#72b5e8"/><path d="M127.112,277.415h0a1.6,1.6,0,0,1,.349,1.7l-1.554,2.19c-.264.373-.848.214-1.306-.352h0a1.6,1.6,0,0,1-.349-1.7l1.554-2.192C126.069,276.691,126.655,276.849,127.112,277.415Z" transform="translate(-39.178 -243.567)" fill="#72b5e8"/></g><path d="M108.13,325.55l-3.334-1.925V270.181l3.334,1.925Z" transform="translate(-1.916 -200.839)" fill="#03336e"/><path d="M106.644,304.349l-1.021,1.44L150.7,361.681l1.021-1.44Z" transform="translate(-1.504 -183.819)" fill="#03336e"/><path d="M108.207,306.555c0,1.094-.772,1.534-1.724.983a3.8,3.8,0,0,1-1.724-2.975c0-1.092.772-1.533,1.724-.983A3.8,3.8,0,0,1,108.207,306.555Z" transform="translate(-1.935 -184.32)" fill="#eb4680"/><path d="M132.8,302.273l-1.814-3.128-7.349,4.19.475.819L78.552,330.131l.864,1.491,45.563-25.978.475.819Z" transform="translate(-14.989 -186.411)" fill="#eb4680"/></g><ellipse cx="27.551" cy="47.721" rx="27.551" ry="47.721" transform="matrix(0.863, -0.505, 0.505, 0.863, 190.432, 1541.689)" fill="url(#b)" style="mix-blend-mode:multiply;isolation:isolate"/><g transform="translate(187.805 1531.505)"><path d="M96.712,291.709c0-14.981-10.584-33.237-23.64-40.776-6.3-3.633-12.015-4.112-16.252-1.955l-.012-.022-7.684,4.09,1.7,2.923a23.9,23.9,0,0,0-1.222,7.924c0,14.981,10.584,33.237,23.64,40.774a24.311,24.311,0,0,0,7.66,2.966l1.735,2.98,5.387-2.731C92.7,305.625,96.712,299.588,96.712,291.709Z" transform="translate(-32.329 -243.132)" fill="#0ba19f"/><ellipse cx="19.241" cy="33.328" rx="19.241" ry="33.328" transform="translate(0.525 19.422) rotate(-30.311)" fill="#3ecfcd"/><ellipse cx="19.241" cy="33.328" rx="19.241" ry="33.328" transform="matrix(0.863, -0.505, 0.505, 0.863, 0, 19.707)" fill="#0fbab8"/></g><path d="M68.485,267.833c-4.088-7.05-9.551-6.822-11.54-4.259v-3.02c.659.045,1.121-.443,1.121-1.324a4.145,4.145,0,0,0-1.88-3.243c-1.038-.6-1.88-.12-1.88,1.073a4.147,4.147,0,0,0,1.121,2.617v30.3c-.659-.045-1.121.442-1.121,1.324l3.76,2.171a4.154,4.154,0,0,0-1.121-2.619v-14.47c1.99-2.563,7.452-2.792,11.54,4.259,4.261,7.353,10.781,5.793,10.781,5.793v-12.8S72.745,275.186,68.485,267.833Z" transform="translate(158.057 1292.377)" fill="#fff"/></g></svg>
