<svg xmlns="http://www.w3.org/2000/svg" width="194.548" height="249.052" viewBox="0 0 194.548 249.052"><g transform="translate(-29.373 -5065.24)"><path d="M53.23,40.984C64.257,33.993,71.722,20.555,71.722,5.123A47.258,47.258,0,0,0,71.443,0H.279A47.176,47.176,0,0,0,0,5.123c0,15.432,7.465,28.87,18.491,35.861C7.465,47.975,0,61.412,0,76.845a47.232,47.232,0,0,0,.279,5.126l71.164,0a47.216,47.216,0,0,0,.278-5.123C71.722,61.412,64.257,47.974,53.23,40.984ZM7.684,76.844c0-14.962,6.417-27.649,17.93-31.835V36.958C14.1,32.772,7.684,20.085,7.684,5.123H64.037c0,14.962-6.417,27.649-17.93,31.835v8.052C57.62,49.2,64.037,61.883,64.037,76.844ZM44.476,53.6c-5.736-3.253-6.052-7.474-6.054-10.035V38.422c0-2.561.3-6.8,6.063-10.059a22.264,22.264,0,0,0,7.768-7.871H19.468a22.261,22.261,0,0,0,7.778,7.877C32.982,31.622,33.3,35.843,33.3,38.4v5.141c0,2.561-.3,6.8-6.063,10.059-5.813,3.376-10.145,10.061-11.454,18.117H55.939C54.63,63.66,50.294,56.973,44.476,53.6Z" transform="matrix(0.978, 0.208, -0.208, 0.978, 53.368, 5065.24)" fill="#004bc1"/><g transform="matrix(0.978, -0.208, 0.208, 0.978, 146.218, 5112.533)"><path d="M59.056,29.528A29.528,29.528,0,1,1,29.528,0,29.528,29.528,0,0,1,59.056,29.528Z" transform="translate(0 16.873)" fill="none" stroke="#004bc1" stroke-linecap="round" stroke-linejoin="round" stroke-width="7"/><path d="M0,0V12.655l6.327,6.327" transform="translate(29.528 33.746)" fill="none" stroke="#004bc1" stroke-linecap="round" stroke-linejoin="round" stroke-width="7"/><path d="M38.091,68.969,36.615,85.125A8.437,8.437,0,0,1,28.178,92.8H9.913a8.437,8.437,0,0,1-8.437-7.677L0,68.969M.042,23.833,1.519,7.677A8.437,8.437,0,0,1,9.913,0h18.35A8.437,8.437,0,0,1,36.7,7.677l1.476,16.156" transform="translate(10.461 0)" fill="none" stroke="#004bc1" stroke-linecap="round" stroke-linejoin="round" stroke-width="7"/></g><path d="M24.3,29.162h9.721v9.721H24.3Zm14.581,0H48.6v9.721H38.883Zm14.581,0h9.721v9.721H53.464ZM9.721,58.324h9.721v9.721H9.721Zm14.581,0h9.721v9.721H24.3Zm14.581,0H48.6v9.721H38.883ZM24.3,43.743h9.721v9.721H24.3Zm14.581,0H48.6v9.721H38.883Zm14.581,0h9.721v9.721H53.464Zm-43.743,0h9.721v9.721H9.721ZM63.185,0V4.86H53.464V0H19.441V4.86H9.721V0H0V77.766H72.905V0H63.185Zm4.86,72.905H4.86V19.441H68.045Z" transform="translate(67.075 5160.174) rotate(29)" fill="#004bc1"/><path d="M57.25,41.837A28.625,28.625,0,1,1,24.221,13.556V8.808H20.368a1.656,1.656,0,0,1-1.651-1.651v-5.5A1.656,1.656,0,0,1,20.368,0H36.883a1.656,1.656,0,0,1,1.651,1.651v5.5a1.656,1.656,0,0,1-1.651,1.651H33.029v4.748A28.451,28.451,0,0,1,46.75,19.694l3.785-3.785a1.653,1.653,0,0,1,2.34,0L56.769,19.8a1.653,1.653,0,0,1,0,2.34l-4.046,4.046-.083.083A28.339,28.339,0,0,1,57.25,41.837ZM33.029,46.791V25.942a1.656,1.656,0,0,0-1.651-1.651h-5.5a1.656,1.656,0,0,0-1.651,1.651v20.85a1.656,1.656,0,0,0,1.651,1.651h5.5A1.656,1.656,0,0,0,33.029,46.791Z" transform="matrix(0.951, 0.309, -0.309, 0.951, 168.294, 5229.585)" fill="#004bc1"/></g></svg>