<svg xmlns="http://www.w3.org/2000/svg" xmlns:xlink="http://www.w3.org/1999/xlink" width="108.15" height="123.625" viewBox="0 0 108.15 123.625"><defs><clipPath id="a"><path d="M52.869-5.625c28.719,0,53.1,30.051,53.1,58.77S94.8,117.906,52,117.906-2.178,80.893-2.178,52.174,24.15-5.625,52.869-5.625Z" transform="translate(818 5194)" fill="#fff" stroke="#707070" stroke-width="1"/></clipPath></defs><g transform="translate(-815.822 -5174.375)"><circle cx="52" cy="52" r="52" transform="translate(818 5194)" fill="#0248b4"/><g transform="translate(0 -14)" clip-path="url(#a)"><g transform="translate(602.815 4921.035)"><path d="M216.244,310.8s-3.555-8.317-14.529-8.42C201.715,302.376,204.436,312.734,216.244,310.8Z" transform="translate(6.748 161.973)" fill="#131c24"/><g transform="translate(200.469 460.069)"><path d="M212.346,301.709s-9.145,11.628-9.973,14.7-4.666,16.05,1.707,24.932c3.459,4.8,5.423-1.868,6.4-10.583.436-3.934-.09-6.963,5.134-11.173,3.774-3.029,8.028-9.2,9.652-12.424S212.346,301.709,212.346,301.709Z" transform="translate(-200.469 -301.709)" fill="#efb185"/><path d="M221.686,304.892c-1.617,3.215-6.257,8.773-7,13.56-.9,5.737-7.156,5.41-7.592,9.344-.77,6.764-2.3,12.412-4.428,12.238.963-5.1-4.98-9.023,1.5-20.857,2.349-4.306,10.159-13.246,14.561-16.923C221.314,303.5,222.3,303.622,221.686,304.892Z" transform="translate(-197.084 -298.751)" fill="#e6a376"/><path d="M213.429,302.242s-1.964,16.544-3.3,21.467-4.319,7.791-4.9,6.719c-.616-1.1,2.5-15.9-2.869-15.531C199.5,315.09,212.614,304.54,213.429,302.242Z" transform="translate(-192.434 -298.822)" fill="#efb185"/></g><path d="M254.839,281.558s-16.615-3.85-23.514,29.142c-6.918,33.018-6.912,45.892-11.776,57.206s-17.834,48-17.834,48,10.505.539,14.529,8.42c0,0,27.249-45.308,32.62-65.266S272.115,290.71,254.839,281.558Z" transform="translate(6.748 48.446)" fill="#5fb9e6"/><path d="M219.549,366.544c4.864-11.314,4.858-24.188,11.776-57.206,3.741-17.937,10.364-24.983,15.64-27.666,15.684,10.371-1.611,57.328-6.886,76.92-4.024,14.94-19.785,45.417-27.538,59.946a19.313,19.313,0,0,0-10.826-4S214.678,377.858,219.549,366.544Z" transform="translate(6.748 49.809)" fill="#77d2ff"/><path d="M257.9,334.573s4.415,10.313,0,12.931c-4.422,2.67-5,5.609-12.071,5.031-7.085-.6-6.045,1.765-8.471,4.409s-27.435,13.548-32.152,8.247c-4.71-5.32,8.522-11.519,13.233-14.6s15.916-15.434,16.2-18.964S257.9,334.573,257.9,334.573Z" transform="translate(20.278 314.741)" fill="#111114"/><path d="M257.907,343.566c-4.422,2.67-5,5.609-12.071,5.031-7.085-.6-6.045,1.765-8.471,4.409s-27.435,13.548-32.152,8.247c-1.617-1.829-1.123-3.735.4-5.6,1.726.3,4.159.757,7.329,1.3,7.361,1.284,16.846-7.2,20.5-10.358s8.279-1.919,14.6-2.971,5.436-10.711,5.436-10.711l4.685-1.617C259.036,333.593,261.655,341.333,257.907,343.566Z" transform="translate(20.276 318.68)" fill="#0a0a0a"/><path d="M243.09,336.409s1.874,12.174-2.817,18.771S225.3,373.175,220.86,372.662s-5.147-2.516-5.147-2.516a44.55,44.55,0,0,1,1.393-19.785c3.292-9.889,3.517-13.952,3.517-13.952Z" transform="translate(79.713 346.347)" fill="#111114"/><path d="M233.915,355.18c-4.114,5.789-12.572,15.293-17.558,17.16,6.6-8.484-3.3-6.719,4.152-10.756,10.2-5.558,3.671-10.185,8.234-11.481s1.226-12.566,1.226-12.566l2.471-1.129h4.293S238.607,348.583,233.915,355.18Z" transform="translate(86.071 346.347)" fill="#0a0a0a"/><path d="M235.134,320.6s-21.03-2.272-28.038-17.841a511.78,511.78,0,0,0,2.323,74.161c4.268,39.814,7.778,109.855,7.778,109.855s13.6,12.822,27.647,0c0,0,3.947-46.244,0-71.87,0,0,2.644-44.852-1.745-67.281S235.134,320.6,235.134,320.6Z" transform="translate(33.531 164.042)" fill="#ea49bd"/><path d="M217.429,491.162s-3.51-70.041-7.778-109.855-2.792-79.359-2.792-79.359c5.134,11.41,18.271,20.876,24.65,22.333-.494,15.222-1.912,60.01-1.688,74.905.212,14.176,2.99,72.864,4.171,97.508C224.623,497.939,217.429,491.162,217.429,491.162Z" transform="translate(33.3 159.654)" fill="#ff61cb"/><path d="M267.737,305.165s2.015,23.276,2.458,59.478c.436,36.182,3.068,49.819,3.947,55.364s3.96,66.113,2.2,83.793c0,0-11.423,17.648-29.431,0,0,0-3.061-62.083-6.142-76.214s-20.279-82.779-27.217-107.41c-3.061-10.878-3.793-15.01-3.793-15.01S240.064,326.952,267.737,305.165Z" transform="translate(50.337 177.082)" fill="#ea49bd"/><path d="M252.292,507.381s-3.061-62.083-6.142-76.214-20.279-82.779-27.217-107.41A57.555,57.555,0,0,0,208.768,304.5s19.907,13.958,37.138,13.913c.751,5.314,8.054,55.993,9.767,78.159,1.682,21.961,16.718,99.253,12.688,118.64C263.92,515.351,258.5,513.452,252.292,507.381Z" transform="translate(44.958 173.501)" fill="#ff61cb"/><path d="M264.771,290.159s30.971,18.662,31.58,21.191c.648,2.529,8.555,9.062-5.359,36.439,0,0-18.123,29.514-12.29,60.71,3.382,18.1,6.867,27.64,6.867,27.64s-15.742,20.138-54.761,2.58c-7.887-3.555-20.69-15.543-24.155-24.707a209.136,209.136,0,0,0,2.734-56.865c-2.837-30.965-2.849-70.875,14.882-74.925C224.27,282.221,229.09,277.2,264.771,290.159Z" transform="translate(33.505 47.591)" fill="#77d2ff"/><g transform="translate(237.733 272.478)"><path d="M242.61,278.452s-7.444,16.275,1.81,25.054c5.16,4.9-2.92,19.689-20.414,21.306,0,0-8.035-.712-7.675-3.626.789-6.648-2.31-9.851-5.827-14.311C206.993,302.453,242.61,278.452,242.61,278.452Z" transform="translate(-184.692 -240.113)" fill="#efb185"/><path d="M231.445,302.487a4.462,4.462,0,0,1,1.264,2.15c-7.528-5.609-20.055-4.184-20.055-4.184L226.3,279.718c.59-.411,1.1-.777,1.547-1.078l.744,1.547C226.934,285.218,224.547,295.935,231.445,302.487Z" transform="translate(-171.718 -239.095)" fill="#dd9569"/><g transform="translate(9.67 0.245)"><path d="M258.058,301.321s-1.2,20.209-13.271,31.144c-10.711,9.723-23.783,17.019-28.551,3.2-3.773-11-13.778-38.948-4.691-46.257,11.738-9.466,15.01-19.387,30.753-16.2C242.3,273.206,260.529,278.391,258.058,301.321Z" transform="translate(-207.494 -272.077)" fill="#efb185"/><path d="M256.938,296.8a44.382,44.382,0,0,1-13.175,31.4,57.785,57.785,0,0,1-10.345,7.759c5.538-5.6,5.962-7.117,9.954-13.547,3.979-6.4-7.784-2.349-1.752-18.1,2.054-5.352-10.749,3.132-13.862,3.542-18.418,2.355-18.669-8.349-19.715-12.752a31.481,31.481,0,0,1,.687-5.667l1.213-3.587c.173-.34.321-.667.481-.969a60.781,60.781,0,0,1,4.935-7.47c7.893-1.052,30.291-4.024,30.759-3.985.314.019,4.954,4.653,9.3,9.062A30.43,30.43,0,0,1,256.938,296.8Z" transform="translate(-206.373 -267.56)" fill="#e6a376"/><path d="M253.22,321.943s12.752-15.941,4.563-34.725a23.1,23.1,0,0,0-22.968-14.683c-8.522.289-22.987,3.882-26.748,21.717-1.161,5.583.449,16.294,20.273,7.739,2.83-1.258,10.518-3.485,13.682-1.405s4.2,6.745,3.478,10.942c-.623,3.684,2.528,3.575,2.837,2.779.282-.822,2.7-11.436,7.066-8.1C259.323,309.2,253.483,321.205,253.22,321.943Z" transform="translate(-207.783 -272.516)" fill="#341c09"/><path d="M235.867,318.233c.263-.738,6.1-12.739,2.182-15.736-4.37-3.337-6.783,7.277-7.066,8.1-.308.8-3.459.9-2.837-2.779.719-4.2-.308-8.85-3.478-10.942-2.869-1.893-9.588.34-13.682,1.405,3.074-2.708,9.8-4.557,11.34-10.64,2.06-8.144,6.1-12.424,10.229-14.439a23.845,23.845,0,0,1,7.874,10.307C248.618,302.292,235.867,318.233,235.867,318.233Z" transform="translate(-190.43 -268.806)" fill="#221101"/></g><path d="M206.276,292.334s8.3,20.851,31.221,10.307c0,0,11.474-5.025,14.581-16.891.674-2.541,2.843-6.905,6.828-7.945,0,0-7.784-8.061-24.117-4.351-7.694,1.765-14.561,10.55-16.352,12.091S212.623,292.9,206.276,292.334Z" transform="translate(-206.276 -272.478)" fill="#341c09"/></g><path d="M253.212,294.316c.648,2.529,8.555,9.062-5.359,36.439,0,0-18.123,29.514-12.29,60.71,3.382,18.1,6.867,27.64,6.867,27.64s-7.842,9.941-26.074,9.723c-4.473-26.8.8-74.116,3.35-106.736,1.656-21,11.808-32.075,20.035-37.683C246.634,288.854,252.936,293.18,253.212,294.316Z" transform="translate(76.644 64.626)" fill="#5fb9e6"/><path d="M225.272,311.06s.764-13,3.119-15.376-.2-6.366-2.708-3.286a19.159,19.159,0,0,0-3.388,7.47s-2.4-15.023,1.887-16.814-11.937-.34-14.266,6.745-6.187,14.42,6.559,28.256A13.062,13.062,0,0,0,225.272,311.06Z" transform="translate(38.028 53.516)" fill="#e6a376"/><path d="M259.519,287.375c8.574-4.909,25.311-.995,16.564,20.427-8.754,21.4-46.617,70.663-58.361,69.521s-7.451-24.637,1.848-38.28S251.484,291.989,259.519,287.375Z" transform="translate(54.82 70.456)" fill="#5fb9e6"/><path d="M227.643,370.214s-21.832-27.4-19.3-80.456c0,0,6.347,3.215,14.086-3.093C222.426,286.665,255.745,378.9,227.643,370.214Z" transform="translate(41.529 76.859)" fill="#5fb9e6"/></g></g></g></svg>