<svg xmlns="http://www.w3.org/2000/svg" xmlns:xlink="http://www.w3.org/1999/xlink" width="187.733" height="135.407" viewBox="0 0 187.733 135.407"><defs><linearGradient id="a" x1="0.934" y1="0.075" x2="0.077" y2="0.914" gradientUnits="objectBoundingBox"><stop offset="0" stop-color="#1a6bb2"/><stop offset="1" stop-color="#1b4b92"/></linearGradient><linearGradient id="b" y1="0.5" x2="1" y2="0.5" gradientUnits="objectBoundingBox"><stop offset="0" stop-color="#1b4b92"/><stop offset="1" stop-color="#1a5cb2"/></linearGradient><clipPath id="c"><path d="M93.9,83.479c0-.591.006-1.183.006-1.774h0C93.9,82.3,93.9,82.888,93.9,83.479Z" transform="translate(-93.896 -81.705)" fill="rgba(0,0,0,0)"/></clipPath><clipPath id="d"><path d="M51.992,91.086,52,88.457a2.879,2.879,0,0,0,1.7,2.371l-.009,2.626A2.879,2.879,0,0,1,51.992,91.086Z" transform="translate(-51.992 -88.457)" fill="#95c4de"/></clipPath><clipPath id="e"><path d="M51.992,90.908,52,88.457a2.684,2.684,0,0,0,1.582,2.21l-.009,2.448A2.684,2.684,0,0,1,51.992,90.908Z" transform="translate(-51.992 -88.457)" fill="#95c4de"/></clipPath></defs><g transform="translate(0.133)"><rect width="187.733" height="135.407" transform="translate(-0.133)" fill="none"/><g transform="translate(18.771 11.818)"><g transform="translate(0.06 21.438)" opacity="0.1"><path d="M170.376,95.652c2.195,1.258,2.205,3.306.032,4.579l-4.327,2.533L85.826,149.727l-6.693,3.917a8.7,8.7,0,0,1-7.9.023l-46.9-26.887c-2.193-1.259-2.211-3.3-.038-4.575l91.275-53.412a8.7,8.7,0,0,1,7.907-.029Z" transform="translate(-22.68 -67.829)"/></g><path d="M123.084,76.4a1.945,1.945,0,0,1-.1.576l-.018.061a2.439,2.439,0,0,1-.267.524c-.021.029-.039.056-.059.087a3.407,3.407,0,0,1-.447.492,4.432,4.432,0,0,1-.395.292c-.115.082-.214.169-.346.246L117.12,81.2l-.02,7.293,4.335-2.52.068-.041c.1-.062.178-.134.27-.2a3.961,3.961,0,0,0,.4-.3.329.329,0,0,0,.036-.027,2.957,2.957,0,0,0,.349-.374.992.992,0,0,0,.059-.088c.023-.03.041-.059.061-.09.033-.053.076-.1.106-.158a2.408,2.408,0,0,0,.149-.317.489.489,0,0,0,.014-.05c.008-.018.011-.038.017-.056a1.781,1.781,0,0,0,.059-.208,1.919,1.919,0,0,0,.036-.32V83.7l0,0q.009-3.18.018-6.359l0-.885Z" transform="translate(26.364 -41.943)" fill="#a9d6ea"/><path d="M24.31,95.879a2.8,2.8,0,0,1-1.649-2.3l-.02,7.293a2.793,2.793,0,0,0,1.652,2.3L71.1,130.2l.021-7.293Z" transform="translate(-22.641 -33.033)" fill="#95c4de"/><path d="M62.471,114.218a6.116,6.116,0,0,1-1.1.484c-.14.049-.279.09-.424.131-.182.05-.365.1-.554.137-.225.047-.454.09-.685.118-.053.008-.106.017-.159.023-.313.033-.63.05-.946.053h-.135c-.314,0-.627-.02-.939-.052L57.4,115.1a8.8,8.8,0,0,1-.905-.155c-.049-.012-.1-.026-.152-.038a6.954,6.954,0,0,1-.787-.24c-.041-.015-.087-.026-.128-.041a6.492,6.492,0,0,1-.854-.406l-.021,7.293a6.192,6.192,0,0,0,.808.387c.015.008.03.011.046.017.043.017.088.029.132.043.166.061.331.122.5.172.091.026.185.046.281.068.05.014.1.026.153.038s.1.026.149.036c.182.036.368.07.553.1l.193.021.147.017c.068.006.134.017.2.023.181.015.363.026.548.029.058,0,.115,0,.172,0l.15,0c.084,0,.166,0,.249,0,.205-.008.413-.023.618-.041.024,0,.049-.009.071-.011.055-.006.109-.017.163-.023.161-.02.322-.038.477-.067.07-.012.134-.036.2-.05.19-.041.374-.088.559-.14.1-.026.2-.043.3-.071.044-.017.082-.043.126-.058a6.277,6.277,0,0,0,1.1-.484l6.706-3.9.02-7.293Z" transform="translate(-6.087 -24.345)" fill="#a9d6ea"/><g transform="translate(0.02 4.182)"><path d="M170.435,84.442c2.192,1.264,2.2,3.314.02,4.579l-4.336,2.52L85.724,138.262l-6.705,3.9a8.7,8.7,0,0,1-7.9,0L24.3,115.131c-2.19-1.267-2.2-3.309-.024-4.576l91.435-53.137a8.713,8.713,0,0,1,7.908,0Z" transform="translate(-22.654 -56.467)" fill="#def6ff"/></g><g transform="translate(8.351 7.652)"><path d="M163.273,90.356l-80.4,46.721-54.738-31.6,80.395-46.723Z" transform="translate(-28.139 -58.752)" fill="url(#a)"/></g><g transform="translate(110.181 15.926)"><path d="M114.616,73.9c.586.339.6,1.03-.258,1.478a2.085,2.085,0,0,1-1.938.216L95.4,65.926c-.586-.339.172-1.136.755-1.475a2.334,2.334,0,0,1,2.107,0Z" transform="translate(-95.186 -64.2)" fill="#75b2cc"/></g><g transform="translate(110.195 16.365)"><path d="M114.1,74.185a.648.648,0,0,1,.014,1.224,2.348,2.348,0,0,1-2.12,0L95.634,65.964a.646.646,0,0,1,0-1.224,2.326,2.326,0,0,1,2.105,0Z" transform="translate(-95.195 -64.488)" fill="#a9d6ea"/></g><g transform="translate(63.069 39.256)"><path d="M144.582,79.56l-.02,7.293-80.4,46.721.02-7.293Z" transform="translate(-64.167 -79.56)" fill="url(#b)"/></g><g transform="translate(108.222 42.513)" style="isolation:isolate"><g clip-path="url(#c)"><g transform="translate(-0.036 -0.241)" style="isolation:isolate"><path d="M94.461,81.546l0,2.008a2.9,2.9,0,0,0-.55.243.215.215,0,0,0-.035.021l.006-2.011.036-.02a2.788,2.788,0,0,1,.547-.241Z" transform="translate(-93.872 -81.546)" fill="#b8387b"/></g></g></g><g transform="translate(30.666 27.012)"><g transform="translate(13.913 16.642)"><g transform="translate(0.309 9.184)" opacity="0.1"><path d="M90.625,100.242c2.252,1.3,2.254,3.41.026,4.7l-4.212,2.448-5.778,3.358L70.4,116.718l-3.385-9.155L53.893,99.987c-2.254-1.3-2.265-3.4-.026-4.7l9.989-5.806a8.963,8.963,0,0,1,8.124,0ZM81.652,105.9l1.523-.887L63.232,93.5l-1.523.887L81.652,105.9Zm4.048-2.356,1.523-.885L67.28,91.146l-1.525.887L85.7,103.545Zm-8.1,4.705,1.525-.885L59.183,95.851l-1.523.885L77.6,108.25Z" transform="translate(-52.195 -88.503)"/></g><g transform="translate(13.563 2.643)"><path d="M62.45,84.2l0,2.629-1.524.885,0-2.628Z" transform="translate(-60.922 -84.196)" fill="#c5c5c5"/></g><g transform="translate(9.515 4.996)"><path d="M59.786,85.745l-.006,2.628-1.524.885.006-2.626Z" transform="translate(-58.257 -85.745)" fill="#c5c5c5"/></g><g transform="translate(5.465 7.348)"><path d="M57.121,87.294l-.008,2.628-1.523.885L55.6,88.18Z" transform="translate(-55.59 -87.294)" fill="#c5c5c5"/></g><g transform="translate(0 9.114)"><path d="M51.992,91.086,52,88.457a2.879,2.879,0,0,0,1.7,2.371l-.009,2.626A2.879,2.879,0,0,1,51.992,91.086Z" transform="translate(-51.992 -88.457)" fill="#95c4de"/><g clip-path="url(#d)"><g style="isolation:isolate"><path d="M53.7,90.828l-.009,2.626a2.879,2.879,0,0,1-1.7-2.368L52,88.457a2.879,2.879,0,0,0,1.7,2.371Z" transform="translate(-51.992 -88.457)" fill="#95c4de"/></g></g></g><g transform="translate(15.087 2.643)"><path d="M81.875,95.71l-.008,2.628L61.925,86.824l0-2.629Z" transform="translate(-61.925 -84.196)" fill="#898989"/></g><g transform="translate(13.568 2.643)"><path d="M82.393,95.71,80.87,96.6,60.925,85.082l1.523-.886Z" transform="translate(-60.925 -84.196)" fill="#3fbad4"/></g><g transform="translate(33.504 14.157)"><path d="M75.583,91.777l-.008,2.628-1.523.885.008-2.627Z" transform="translate(-74.052 -91.777)" fill="#38a7be"/></g><g transform="translate(13.563 3.528)"><path d="M80.871,96.294l-.008,2.627L60.922,87.407l0-2.628Z" transform="translate(-60.922 -84.779)" fill="#277484"/></g><g transform="translate(11.039 4.996)"><path d="M79.208,97.26,79.2,99.887,59.26,88.373l.006-2.628Z" transform="translate(-59.26 -85.745)" fill="#898989"/></g><g transform="translate(9.515 5.883)"><path d="M78.206,97.842,78.2,100.47,58.257,88.956l.006-2.626Z" transform="translate(-58.257 -86.329)" fill="#277484"/></g><g transform="translate(29.455 16.51)"><path d="M72.917,93.327l-.007,2.627-1.525.886.008-2.628Z" transform="translate(-71.386 -93.327)" fill="#38a7be"/></g><g transform="translate(9.521 4.996)"><path d="M79.726,97.26l-1.523.885L58.261,86.632l1.523-.887Z" transform="translate(-58.261 -85.745)" fill="#3fbad4"/></g><g transform="translate(6.988 7.348)"><path d="M76.545,98.809l-.009,2.627L56.593,89.922l.008-2.628Z" transform="translate(-56.593 -87.294)" fill="#898989"/></g><g transform="translate(1.697 11.485)"><path d="M66.239,97.593l-.008,2.627L53.11,92.644l.009-2.626Z" transform="translate(-53.11 -90.018)" fill="#95c4de"/></g><g transform="translate(25.409 18.862)"><path d="M70.253,94.875,70.244,97.5l-1.522.885.007-2.628Z" transform="translate(-68.721 -94.875)" fill="#38a7be"/></g><g transform="translate(5.465 8.235)"><path d="M75.541,99.39l-.007,2.628L55.59,90.5l.006-2.626Z" transform="translate(-55.59 -87.878)" fill="#277484"/></g><g transform="translate(0.008)"><path d="M90.427,94.195c2.254,1.3,2.255,3.41.027,4.7l-4.213,2.45L80.465,104.7,70.2,110.671l-3.385-9.155L53.695,93.941c-2.254-1.3-2.265-3.405-.024-4.705l9.988-5.8a8.949,8.949,0,0,1,8.124,0Zm-8.975,5.658,1.523-.885L63.034,87.451l-1.523.887L81.452,99.852ZM85.5,97.5l1.523-.885L67.08,85.1l-1.523.885L85.5,97.5ZM77.4,102.2l1.525-.885L58.985,89.8l-1.523.885L77.4,102.2Z" transform="translate(-51.997 -82.456)" fill="#f8f9fd"/></g><g transform="translate(5.471 7.348)"><path d="M77.063,98.809l-1.525.885L55.594,88.181l1.525-.887Z" transform="translate(-55.594 -87.294)" fill="#3fbad4"/></g><path d="M85.9,91.743a1.935,1.935,0,0,1-.1.591c-.006.023-.011.043-.018.065a2.329,2.329,0,0,1-.275.536.942.942,0,0,1-.061.091,3.245,3.245,0,0,1-.462.509,4.406,4.406,0,0,1-.377.279,4,4,0,0,1-.375.266l-4.213,2.45L74.25,99.887l-10.264,5.966-.008,2.626,10.264-5.963,5.776-3.358,4.21-2.447c.026-.015.049-.029.071-.044.123-.071.21-.156.319-.234s.26-.176.364-.269c.014-.012.032-.023.044-.033a3.568,3.568,0,0,0,.354-.381c.024-.03.039-.064.062-.094s.044-.062.064-.094a1.672,1.672,0,0,0,.1-.158,2.548,2.548,0,0,0,.155-.327c.006-.017.008-.032.014-.05s.012-.041.02-.064c.02-.07.046-.138.059-.21a2.17,2.17,0,0,0,.039-.33l0-.357Z" transform="translate(-45.774 -77.638)" fill="#a9d6ea"/><g transform="translate(14.819 19.06)"><path d="M65.143,104.16l-.008,2.627-3.386-9.154.008-2.627Z" transform="translate(-61.749 -95.005)" fill="#95c4de"/></g></g><g transform="translate(47.196)"><g transform="translate(0.288 8.562)" opacity="0.1"><path d="M88.022,99.447c2.1,1.213,2.1,3.179.024,4.385l-3.926,2.282-5.386,3.131-9.567,5.562-3.156-8.535L53.778,99.209c-2.1-1.212-2.111-3.173-.024-4.385l9.313-5.413a8.355,8.355,0,0,1,7.574,0Zm-8.365,5.276,1.42-.827L62.484,93.16l-1.42.827,18.592,10.736Zm3.773-2.2,1.42-.825L66.258,90.967l-1.422.827L83.43,102.526Zm-7.548,4.387,1.422-.825L58.71,95.353l-1.42.825,18.592,10.734Z" transform="translate(-52.195 -88.503)"/></g><g transform="translate(12.644 2.464)"><path d="M62.347,84.2l0,2.451-1.421.825,0-2.45Z" transform="translate(-60.922 -84.196)" fill="#c5c5c5"/></g><g transform="translate(8.87 4.657)"><path d="M59.683,85.745l-.005,2.45-1.421.825.006-2.449Z" transform="translate(-58.257 -85.745)" fill="#c5c5c5"/></g><g transform="translate(5.095 6.85)"><path d="M57.018,87.294l-.007,2.45-1.42.825L55.6,88.12Z" transform="translate(-55.59 -87.294)" fill="#c5c5c5"/></g><g transform="translate(0 8.497)"><path d="M51.992,90.908,52,88.457a2.684,2.684,0,0,0,1.582,2.21l-.009,2.448A2.684,2.684,0,0,1,51.992,90.908Z" transform="translate(-51.992 -88.457)" fill="#95c4de"/><g clip-path="url(#e)"><g style="isolation:isolate"><path d="M53.582,90.667l-.009,2.448a2.684,2.684,0,0,1-1.582-2.207L52,88.457a2.684,2.684,0,0,0,1.582,2.21Z" transform="translate(-51.992 -88.457)" fill="#95c4de"/></g></g></g><g transform="translate(14.065 2.464)"><path d="M80.523,94.93l-.008,2.45L61.925,86.646l0-2.451Z" transform="translate(-61.925 -84.196)" fill="#898989"/></g><g transform="translate(12.649 2.464)"><path d="M80.939,94.93l-1.421.826L60.925,85.022l1.42-.826Z" transform="translate(-60.925 -84.196)" fill="#3fbad4"/></g><g transform="translate(31.235 13.198)"><path d="M75.48,91.777l-.008,2.45-1.42.825.007-2.449Z" transform="translate(-74.052 -91.777)" fill="#38a7be"/></g><g transform="translate(12.644 3.289)"><path d="M79.52,95.514l-.007,2.449L60.922,87.229l0-2.45Z" transform="translate(-60.922 -84.779)" fill="#277484"/></g><g transform="translate(10.291 4.657)"><path d="M77.857,96.48l-.006,2.449L59.26,88.2l.005-2.45Z" transform="translate(-59.26 -85.745)" fill="#898989"/></g><g transform="translate(8.87 5.484)"><path d="M76.854,97.062l-.008,2.45L58.257,88.778l.006-2.449Z" transform="translate(-58.257 -86.329)" fill="#277484"/></g><g transform="translate(27.46 15.392)"><path d="M72.813,93.327l-.006,2.449-1.421.826.008-2.45Z" transform="translate(-71.386 -93.327)" fill="#38a7be"/></g><g transform="translate(8.876 4.657)"><path d="M78.272,96.48l-1.419.825L58.261,86.572l1.42-.827Z" transform="translate(-58.261 -85.745)" fill="#3fbad4"/></g><g transform="translate(6.515 6.85)"><path d="M75.194,98.029l-.009,2.449L56.593,89.744l.007-2.45Z" transform="translate(-56.593 -87.294)" fill="#898989"/></g><g transform="translate(1.582 10.707)"><path d="M65.349,97.08l-.007,2.449L53.11,92.466l.008-2.449Z" transform="translate(-53.11 -90.018)" fill="#95c4de"/></g><g transform="translate(23.688 17.585)"><path d="M70.149,94.875l-.009,2.449-1.419.825.007-2.45Z" transform="translate(-68.721 -94.875)" fill="#38a7be"/></g><g transform="translate(5.095 7.677)"><path d="M74.19,98.61l-.007,2.45L55.59,90.326l.006-2.448Z" transform="translate(-55.59 -87.878)" fill="#277484"/></g><g transform="translate(0.008)"><path d="M87.824,93.4c2.1,1.212,2.1,3.179.025,4.385l-3.928,2.284L78.537,103.2l-9.569,5.562-3.156-8.535L53.58,93.163c-2.1-1.213-2.111-3.174-.023-4.387l9.311-5.412a8.342,8.342,0,0,1,7.574,0Zm-8.367,5.274,1.42-.825L62.286,87.113l-1.42.827L79.457,98.674Zm3.775-2.195,1.42-.825L66.058,84.92l-1.42.825L83.232,96.479Zm-7.548,4.387,1.422-.825L58.512,89.306l-1.42.825,18.592,10.734Z" transform="translate(-51.997 -82.456)" fill="#f8f9fd"/></g><g transform="translate(5.101 6.85)"><path d="M75.609,98.029l-1.421.825L55.594,88.121l1.421-.827Z" transform="translate(-55.594 -87.294)" fill="#3fbad4"/></g><path d="M84.42,91.743a1.8,1.8,0,0,1-.092.551c-.006.021-.01.04-.017.061a2.171,2.171,0,0,1-.256.5.879.879,0,0,1-.057.085,3.027,3.027,0,0,1-.43.474,4.11,4.11,0,0,1-.351.261,3.732,3.732,0,0,1-.35.248l-3.928,2.284-5.385,3.129L63.985,104.9l-.007,2.448,9.569-5.559,5.385-3.131,3.925-2.281c.024-.014.045-.027.067-.041.115-.067.2-.146.3-.218s.242-.164.34-.251c.013-.011.03-.021.041-.031a3.326,3.326,0,0,0,.33-.355c.023-.028.037-.059.058-.088s.041-.058.059-.088a1.554,1.554,0,0,0,.1-.147,2.372,2.372,0,0,0,.144-.3c.006-.016.007-.03.013-.047s.011-.038.018-.059c.018-.065.042-.129.055-.2a2.024,2.024,0,0,0,.037-.307v-.333Z" transform="translate(-47.007 -78.593)" fill="#a9d6ea"/><g transform="translate(13.815 17.769)"><path d="M64.913,103.54l-.007,2.449-3.157-8.534.007-2.449Z" transform="translate(-61.749 -95.005)" fill="#95c4de"/></g></g><path d="M56.141,83.255a12.175,12.175,0,0,0-11.042,0c-3.038,1.766-3.022,4.631.036,6.4a12.158,12.158,0,0,0,11.036,0C59.208,87.881,59.2,85.021,56.141,83.255Z" transform="translate(-42.832 -66.086)" opacity="0.1"/><g transform="translate(2.153 11.702)"><g transform="translate(2.457 2.329)"><path d="M54.258,81.164a1.088,1.088,0,0,1,.011,2.059,3.632,3.632,0,0,1-1.821.428,2.054,2.054,0,0,1-.7,2.378l-5.885-3.4a8.685,8.685,0,0,1,4.1-.415,1.227,1.227,0,0,1,.731-1.057A3.927,3.927,0,0,1,54.258,81.164Z" transform="translate(-45.867 -80.737)" fill="#f8f9fd"/></g><path d="M59.844,82.451c-.009.076-.012.15-.027.228s-.033.14-.053.21-.038.149-.062.222-.055.131-.084.2c-.035.08-.07.163-.112.243-.032.055-.067.111-.1.166a2.97,2.97,0,0,1-.191.281c-.036.052-.079.1-.12.152-.1.123-.216.245-.339.365-.043.039-.079.08-.123.118-.076.071-.164.138-.249.208-.07.053-.137.111-.211.164s-.185.128-.283.19-.191.129-.3.19a8.1,8.1,0,0,1-1.09.518c-.1.041-.2.077-.3.114-.237.087-.484.153-.731.223s-.522.143-.791.2c-.305.064-.617.122-.931.159-.082.011-.164.027-.248.036a12.856,12.856,0,0,1-1.3.073l-.213,0c-.434,0-.867-.027-1.3-.073-.062-.006-.128-.012-.19-.021a12.138,12.138,0,0,1-1.258-.213c-.074-.017-.146-.038-.219-.055a10.826,10.826,0,0,1-1.077-.328c-.067-.024-.137-.043-.2-.068a8.62,8.62,0,0,1-1.188-.56,3.9,3.9,0,0,1-2.3-3.218l0,2.008a3.9,3.9,0,0,0,2.3,3.22,8.637,8.637,0,0,0,1.125.539c.023.009.046.014.068.021.058.023.118.039.176.061.231.085.46.169.7.238.132.036.267.064.4.1.07.018.14.036.211.052s.132.035.2.05c.254.053.512.1.773.134.091.014.187.021.281.032.067.008.129.014.2.023.093.009.185.023.279.03.255.021.51.033.769.041.082,0,.166,0,.249,0h.2c.117,0,.234,0,.349,0q.435-.016.866-.059c.033,0,.065-.009.1-.012.081-.009.156-.024.237-.033.222-.029.442-.053.659-.093.1-.017.184-.05.281-.07.27-.055.529-.123.788-.2.134-.036.279-.058.41-.1.108-.036.21-.084.314-.12s.208-.077.311-.118a8.287,8.287,0,0,0,1.084-.515c.033-.018.064-.038.1-.056.07-.041.126-.085.191-.128.1-.064.2-.128.292-.194s.144-.114.216-.17.169-.134.245-.2c.015-.014.033-.026.046-.038.03-.027.05-.059.079-.085a4.616,4.616,0,0,0,.336-.361c.023-.026.052-.05.071-.074s.032-.053.05-.077a2.9,2.9,0,0,0,.188-.279c.023-.036.055-.073.074-.111a.492.492,0,0,0,.027-.058c.046-.08.08-.164.118-.248.018-.046.046-.091.062-.138a.454.454,0,0,0,.015-.049c.026-.074.046-.152.065-.228.015-.056.036-.108.047-.164a.385.385,0,0,0,0-.046c.015-.074.02-.15.027-.225s.018-.118.02-.178v-.067l.006-2.011C59.864,82.289,59.85,82.369,59.844,82.451Z" transform="translate(-44.249 -77.666)" fill="#e1bb00"/><g transform="translate(0.005)"><path d="M57.561,80.527c3.059,1.766,3.07,4.628.03,6.393a12.154,12.154,0,0,1-11.036,0c-3.056-1.765-3.074-4.629-.035-6.4A12.172,12.172,0,0,1,57.561,80.527ZM46.7,83.43l5.884,3.4a2.053,2.053,0,0,0,.7-2.378,3.632,3.632,0,0,0,1.821-.428,1.088,1.088,0,0,0-.011-2.059,3.927,3.927,0,0,0-3.56,0,1.227,1.227,0,0,0-.731,1.057,8.685,8.685,0,0,0-4.1.415Z" transform="translate(-44.253 -79.203)" fill="#ffdf02"/></g></g></g><g transform="translate(67.304 19.149)"><path d="M75.88,73.693a12.163,12.163,0,0,0-11.04,0c-3.038,1.765-3.022,4.629.036,6.4a12.158,12.158,0,0,0,11.036,0C78.951,78.321,78.939,75.458,75.88,73.693Z" transform="translate(-62.572 -67.622)" opacity="0.1"/><g transform="translate(0.852)"><g transform="translate(2.456 2.327)"><path d="M73.143,71.2a1.088,1.088,0,0,1,.012,2.06,3.6,3.6,0,0,1-1.823.425,2.054,2.054,0,0,1-.7,2.381l-5.885-3.4a8.727,8.727,0,0,1,4.1-.415,1.235,1.235,0,0,1,.732-1.057A3.922,3.922,0,0,1,73.143,71.2Z" transform="translate(-64.75 -70.776)" fill="#f8f9fd"/></g><path d="M78.727,72.49c-.008.077-.012.153-.026.228s-.035.14-.053.211-.038.147-.064.222-.053.131-.082.194a2.533,2.533,0,0,1-.115.245,1.881,1.881,0,0,1-.1.164c-.059.1-.122.19-.19.283-.039.05-.079.1-.12.15a4.435,4.435,0,0,1-.339.365c-.041.041-.079.081-.123.12-.077.07-.166.138-.249.207s-.135.112-.211.166-.187.128-.281.188-.191.129-.3.191a8.4,8.4,0,0,1-1.092.518c-.1.041-.2.077-.3.114-.235.085-.483.153-.731.223s-.519.141-.79.2c-.305.062-.615.122-.933.159-.081.012-.163.026-.246.035a12.843,12.843,0,0,1-1.3.074l-.214,0c-.431,0-.867-.027-1.294-.073-.064-.006-.126-.015-.19-.021a12.171,12.171,0,0,1-1.259-.216c-.073-.015-.144-.035-.219-.053a10.544,10.544,0,0,1-1.077-.327c-.065-.024-.137-.043-.2-.068a8.713,8.713,0,0,1-1.188-.56,3.9,3.9,0,0,1-2.3-3.22l-.006,2.009a3.9,3.9,0,0,0,2.3,3.218,7.99,7.99,0,0,0,1.124.539c.021.009.046.015.068.024.056.021.117.038.175.059.232.084.463.167.7.238.131.036.264.064.4.1l.211.052c.07.015.134.035.2.049.255.055.513.1.773.135.094.012.188.02.282.032l.2.02c.093.011.185.026.279.032.255.021.512.036.769.043.084,0,.166,0,.246,0s.135,0,.205,0c.115,0,.232,0,.348,0,.289-.009.579-.029.866-.058.033,0,.065-.012.1-.014.082-.009.158-.023.238-.033.22-.027.442-.052.659-.091.1-.018.185-.05.281-.071.27-.055.529-.123.788-.2.134-.036.278-.058.41-.1.108-.036.208-.084.316-.12s.207-.077.31-.118a8.315,8.315,0,0,0,1.086-.516c.03-.017.064-.036.094-.056.067-.041.126-.084.19-.126.1-.064.2-.128.292-.194s.146-.114.217-.17.167-.134.245-.2c.014-.014.032-.026.047-.04s.05-.056.077-.084c.122-.12.234-.24.336-.361.023-.027.05-.05.071-.076s.032-.052.052-.076c.068-.094.129-.187.187-.279.024-.038.055-.073.076-.112.011-.018.015-.038.027-.056.043-.082.079-.164.115-.249.02-.044.049-.091.065-.138l.012-.047a2.051,2.051,0,0,0,.067-.228c.015-.056.035-.109.047-.164a.423.423,0,0,0,0-.046c.015-.074.02-.15.027-.225,0-.059.017-.118.02-.178v-.068l.006-2.009C78.748,72.327,78.734,72.41,78.727,72.49Z" transform="translate(-63.133 -67.707)" fill="#e53399"/><g transform="translate(0.005)"><path d="M76.445,70.567c3.057,1.766,3.068,4.628.03,6.393a12.163,12.163,0,0,1-11.036,0c-3.057-1.765-3.074-4.629-.035-6.4A12.172,12.172,0,0,1,76.445,70.567Zm-10.858,2.9,5.885,3.4a2.054,2.054,0,0,0,.7-2.381,3.6,3.6,0,0,0,1.823-.425A1.088,1.088,0,0,0,73.98,72a3.922,3.922,0,0,0-3.56,0,1.235,1.235,0,0,0-.732,1.057,8.728,8.728,0,0,0-4.1.415Z" transform="translate(-63.136 -69.243)" fill="#ff4caa"/></g></g></g></g></g></svg>