<svg xmlns="http://www.w3.org/2000/svg" xmlns:xlink="http://www.w3.org/1999/xlink" width="187.733" height="135.407" viewBox="0 0 187.733 135.407"><defs><clipPath id="a"><path d="M398.73,330.117a2.121,2.121,0,0,0-1.245,1.744l.011-4.248a2.129,2.129,0,0,1,1.245-1.742q0,2.119-.011,4.243.007-2.123.011-4.243a6.705,6.705,0,0,1,6.079,0c0,1.412-.009,2.831-.012,4.243,0-1.412.009-2.831.012-4.243a2.148,2.148,0,0,1,1.266,1.769l-.01,4.246a2.152,2.152,0,0,0-1.268-1.772A6.7,6.7,0,0,0,398.73,330.117Z" transform="translate(-397.485 -325.144)" fill="none"/></clipPath><clipPath id="b"><path d="M406.086,326.814l-.011,4.243a2.133,2.133,0,0,1-1.248,1.75,6.684,6.684,0,0,1-6.073,0,2.157,2.157,0,0,1-1.269-1.775q.007-2.123.011-4.248a2.16,2.16,0,0,0,1.272,1.778,6.693,6.693,0,0,0,6.073,0A2.144,2.144,0,0,0,406.086,326.814Z" transform="translate(-397.485 -326.784)" fill="none"/></clipPath><linearGradient id="c" y1="0.5" x2="1" y2="0.5" gradientUnits="objectBoundingBox"><stop offset="0" stop-color="#1b4b92"/><stop offset="1" stop-color="#1a6bb2"/></linearGradient></defs><g transform="translate(0.133)"><rect width="187.733" height="135.407" transform="translate(-0.133)" fill="none"/><g transform="translate(-357.136 -271.411)"><path d="M522.758,324.061l-61.7-35.622a6.529,6.529,0,0,0-5.9,0l-82.948,48.207c-1.626.947-1.619,2.474.021,3.418l61.693,35.617a6.483,6.483,0,0,0,5.9,0l82.949-48.2C524.4,326.533,524.39,325.005,522.758,324.061Z" transform="translate(0 10.52)" opacity="0.1"/><g transform="translate(464.174 296.385)"><path d="M491.638,320.41l-.013,4.248-58.746-33.92.01-4.245Z" transform="translate(-432.879 -286.493)" fill="#778489"/></g><g transform="translate(393.7 296.385)"><path d="M456.56,286.493l-.01,4.245-70.474,40.955.013-4.245Z" transform="translate(-386.077 -286.493)" fill="#abbec5"/></g><g transform="translate(410.879 354.584)" style="isolation:isolate"><g clip-path="url(#a)"><g transform="translate(0 -0.002)" style="isolation:isolate"><path d="M403.835,327.5l-.011,4.243a2.152,2.152,0,0,0-1.268-1.769,4.455,4.455,0,0,0-.622-.3l.012-4.248a4.655,4.655,0,0,1,.622.3,2.148,2.148,0,0,1,1.266,1.769Z" transform="translate(-395.234 -324.997)" fill="#738085"/><path d="M402.122,325.489l-.012,4.248a5.035,5.035,0,0,0-.521-.176l.009-4.248a5.471,5.471,0,0,1,.524.176Z" transform="translate(-395.409 -325.057)" fill="#78858a"/><path d="M401.749,325.349l-.009,4.248c-.146-.042-.3-.083-.449-.113l.009-4.243c.154.032.3.065.449.108Z" transform="translate(-395.56 -325.093)" fill="#7c8a8f"/><path d="M401.445,325.267l-.009,4.243c-.145-.029-.283-.054-.431-.071l.012-4.249c.146.02.289.045.428.077Z" transform="translate(-395.705 -325.119)" fill="#818f94"/><path d="M401.158,325.205l-.012,4.249c-.137-.021-.279-.038-.419-.05l.015-4.245c.139.012.279.029.416.045Z" transform="translate(-395.845 -325.134)" fill="#859499"/><path d="M400.884,325.168l-.015,4.245c-.138-.011-.28-.02-.423-.021l.014-4.246c.139,0,.28.012.425.023Z" transform="translate(-395.987 -325.142)" fill="#8a999e"/><path d="M400.607,325.146l-.014,4.246c-.148,0-.292,0-.44,0l.009-4.243c.151-.006.3-.009.444,0Z" transform="translate(-396.135 -325.143)" fill="#8e9da3"/><path d="M400.324,325.147l-.009,4.243c-.161,0-.321.02-.48.033l.013-4.245c.158-.015.319-.026.476-.032Z" transform="translate(-396.296 -325.141)" fill="#93a2a8"/><path d="M400.032,325.168l-.014,4.245c-.182.017-.364.042-.545.074l.011-4.242c.182-.035.363-.06.548-.077Z" transform="translate(-396.479 -325.13)" fill="#97a7ad"/><path d="M399.756,325.219l-.011,4.242a6.383,6.383,0,0,0-.81.2l.012-4.246a6.1,6.1,0,0,1,.809-.2Z" transform="translate(-396.752 -325.104)" fill="#9bacb3"/><path d="M399.28,325.352l-.012,4.246a4.688,4.688,0,0,0-.938.414.44.44,0,0,0-.054.027l.014-4.245.051-.029a4.738,4.738,0,0,1,.94-.414Z" transform="translate(-397.085 -325.037)" fill="#a0b1b8"/><path d="M398.472,325.646l-.014,4.245a3.408,3.408,0,0,0-.542.4l.014-4.245a3.042,3.042,0,0,1,.542-.4Z" transform="translate(-397.267 -324.888)" fill="#9bacb3"/><path d="M398.019,325.914l-.014,4.245a2.9,2.9,0,0,0-.266.283l.015-4.245a2.206,2.206,0,0,1,.265-.283Z" transform="translate(-397.357 -324.753)" fill="#97a7ad"/><path d="M397.812,326.1l-.015,4.245c-.065.089-.122.173-.172.256l.012-4.243a2.267,2.267,0,0,1,.175-.257Z" transform="translate(-397.414 -324.658)" fill="#93a2a8"/><path d="M397.675,326.273l-.012,4.243a1.805,1.805,0,0,0-.113.245l.009-4.245a2.58,2.58,0,0,1,.116-.244Z" transform="translate(-397.452 -324.571)" fill="#8e9da3"/><path d="M397.582,326.435l-.009,4.245a1.27,1.27,0,0,0-.069.242l.012-4.246a2.048,2.048,0,0,1,.066-.241Z" transform="translate(-397.475 -324.489)" fill="#8a999e"/><path d="M397.525,326.595l-.012,4.246a1.24,1.24,0,0,0-.027.248l.009-4.248a1.725,1.725,0,0,1,.03-.247Z" transform="translate(-397.484 -324.408)" fill="#859499"/><path d="M397.5,326.759l-.009,4.248,0,.038.011-4.248v-.038Z" transform="translate(-397.485 -324.325)" fill="#818f94"/></g></g></g><g transform="translate(410.879 357.053)" style="isolation:isolate"><g clip-path="url(#b)"><g style="isolation:isolate"><path d="M403.2,326.8l-.011,4.243,0,.042.012-4.248V326.8Z" transform="translate(-394.6 -326.774)" fill="#376a80"/><path d="M403.21,326.829l-.012,4.248a1.3,1.3,0,0,1-.027.247l.011-4.248a1.219,1.219,0,0,0,.029-.247Z" transform="translate(-394.609 -326.761)" fill="#396e85"/><path d="M403.2,326.993l-.011,4.248a2.376,2.376,0,0,1-.069.238l.011-4.242a1.7,1.7,0,0,0,.069-.244Z" transform="translate(-394.632 -326.678)" fill="#3b7189"/><path d="M403.174,327.155l-.01,4.242a1.655,1.655,0,0,1-.116.247l.012-4.245a1.861,1.861,0,0,0,.114-.244Z" transform="translate(-394.671 -326.596)" fill="#3d758d"/><path d="M403.118,327.317l-.012,4.245a1.943,1.943,0,0,1-.172.256l.011-4.246a1.945,1.945,0,0,0,.173-.254Z" transform="translate(-394.729 -326.514)" fill="#3f7992"/><path d="M403.034,327.486l-.011,4.246a2.358,2.358,0,0,1-.268.289l.014-4.246a2.709,2.709,0,0,0,.265-.289Z" transform="translate(-394.819 -326.429)" fill="#417c96"/><path d="M402.952,327.678l-.014,4.246a3.389,3.389,0,0,1-.544.4l.014-4.245a3.684,3.684,0,0,0,.544-.4Z" transform="translate(-395.002 -326.332)" fill="#43809b"/><path d="M402.742,327.944l-.014,4.245a.469.469,0,0,1-.051.032,4.89,4.89,0,0,1-.941.414l.014-4.246a5.114,5.114,0,0,0,.941-.413.567.567,0,0,1,.051-.032Z" transform="translate(-395.335 -326.197)" fill="#44849f"/><path d="M402.023,328.239l-.014,4.246a6.246,6.246,0,0,1-.815.2l.015-4.243a6.117,6.117,0,0,0,.813-.2Z" transform="translate(-395.609 -326.048)" fill="#43809b"/><path d="M401.393,328.373l-.015,4.243a4.66,4.66,0,0,1-.545.077l.012-4.243c.182-.017.369-.045.548-.077Z" transform="translate(-395.792 -325.98)" fill="#417c96"/><path d="M401,328.424l-.012,4.243c-.16.017-.316.03-.476.033l.011-4.242c.161-.009.321-.018.477-.035Z" transform="translate(-395.951 -325.955)" fill="#3f7992"/><path d="M400.676,328.447l-.011,4.242c-.148.006-.294.006-.441,0l.012-4.245c.148,0,.294,0,.44,0Z" transform="translate(-396.1 -325.943)" fill="#3d758d"/><path d="M400.377,328.455l-.012,4.245c-.14,0-.28-.012-.42-.023l.01-4.245c.139.011.28.02.422.023Z" transform="translate(-396.241 -325.95)" fill="#3b7189"/><path d="M400.1,328.448l-.011,4.245c-.142-.014-.282-.029-.419-.048l.011-4.243c.14.021.279.035.419.047Z" transform="translate(-396.381 -325.966)" fill="#396e85"/><path d="M399.821,328.425l-.011,4.243c-.142-.02-.286-.045-.428-.071l.012-4.245c.142.024.28.05.426.072Z" transform="translate(-396.525 -325.99)" fill="#376a80"/><path d="M399.545,328.39l-.012,4.245c-.149-.035-.3-.071-.447-.111l.011-4.245c.149.039.3.077.449.111Z" transform="translate(-396.675 -326.028)" fill="#35667c"/><path d="M399.271,328.338l-.01,4.245c-.178-.05-.354-.11-.521-.175l.01-4.246c.169.066.345.125.521.176Z" transform="translate(-396.85 -326.087)" fill="#336377"/><path d="M399.385,328.859l-.011,4.246a5.63,5.63,0,0,1-.62-.3,2.157,2.157,0,0,1-1.269-1.775l.011-4.248a2.16,2.16,0,0,0,1.272,1.778,5.3,5.3,0,0,0,.617.3Z" transform="translate(-397.485 -326.784)" fill="#315f73"/></g></g></g><g transform="translate(393.7 337.34)"><path d="M444.834,347.609l-.011,4.248-58.746-33.92.013-4.245Z" transform="translate(-386.077 -313.692)" fill="#336277"/></g><g transform="translate(410.889 354.584)"><path d="M404.814,325.874c1.684.973,1.694,2.543.023,3.517a6.692,6.692,0,0,1-6.073,0c-1.683-.974-1.7-2.551-.027-3.52A6.7,6.7,0,0,1,404.814,325.874Z" transform="translate(-397.492 -325.144)" fill="#529ebe"/></g><g transform="translate(452.447 330.302)"><path d="M495.577,309.018l-.013,4.248-70.474,40.955.011-4.248Z" transform="translate(-425.091 -309.018)" fill="#498dab"/></g><g transform="translate(393.713 296.385)"><path d="M515.3,320.41,444.83,361.365l-58.745-33.917,70.471-40.955Z" transform="translate(-386.085 -286.493)" fill="url(#c)"/></g><path d="M505.558,309.317c0,.014-.006.029-.011.039a1.67,1.67,0,0,1-.2.395.412.412,0,0,0-.039.062,2.346,2.346,0,0,1-.334.366,3.783,3.783,0,0,1-.309.233c-.081.056-.154.116-.244.173l-82.951,48.2-.011,4.243,82.949-48.207a.238.238,0,0,0,.05-.029h0c.075-.042.128-.1.194-.142a3.3,3.3,0,0,0,.31-.229l.026-.021a2.307,2.307,0,0,0,.258-.277.578.578,0,0,0,.044-.068.39.39,0,0,0,.048-.066c.024-.039.057-.078.077-.116a1.746,1.746,0,0,0,.11-.235c0-.015.006-.026.009-.038a.272.272,0,0,0,.017-.045,1.464,1.464,0,0,0,.044-.154,1.628,1.628,0,0,0,.027-.241l.013-4.242v-.039A1.45,1.45,0,0,1,505.558,309.317Z" transform="translate(25.518 21.216)" fill="#a9d6ea"/><path d="M527.513,319.943c1.634.944,1.641,2.472.018,3.421l-82.951,48.2a6.5,6.5,0,0,1-5.9,0l-61.691-35.62c-1.638-.944-1.646-2.472-.021-3.415l82.948-48.207a6.5,6.5,0,0,1,5.9,0Zm-77.461,42.878,70.476-40.955-58.749-33.917L391.308,328.9l58.744,33.917Zm-40.3-12.426a6.693,6.693,0,0,0,6.073,0c1.671-.974,1.661-2.545-.021-3.517a6.705,6.705,0,0,0-6.079,0c-1.673.97-1.656,2.546.027,3.52Z" transform="translate(2.405 8.436)" fill="#def6ff"/><path d="M444.584,354.566a4.739,4.739,0,0,1-.822.361c-.1.033-.211.065-.315.1-.136.036-.272.074-.416.1-.169.036-.337.065-.506.087l-.125.017c-.229.023-.462.038-.7.041h-.121c-.232,0-.461-.018-.69-.041l-.1-.01a6.471,6.471,0,0,1-.661-.115c-.045-.008-.093-.023-.14-.033a5.21,5.21,0,0,1-.553-.17c-.039-.012-.08-.023-.12-.038a4.514,4.514,0,0,1-.633-.3L377,318.946a2.083,2.083,0,0,1-1.235-1.718c0,1.411-.006,2.829-.01,4.242a2.079,2.079,0,0,0,1.233,1.721l61.693,35.619a4.739,4.739,0,0,0,.6.289l.032.012c.035.01.072.023.108.036.12.042.239.087.364.122a1.65,1.65,0,0,0,.208.048.9.9,0,0,0,.122.032c.038.008.074.023.107.027.137.029.274.054.414.072.048.008.1.011.148.017s.071.009.1.01c.051.006.1.015.152.018.137.014.273.02.413.023.042,0,.087,0,.131,0s.069,0,.105,0c.06,0,.125,0,.188,0,.155-.006.31-.015.462-.032a.406.406,0,0,0,.057-.006l.113-.017c.12-.014.242-.029.361-.048.053-.011.1-.029.152-.039.142-.029.277-.065.416-.1.074-.02.152-.032.223-.054l.093-.045a4.608,4.608,0,0,0,.822-.36Z" transform="translate(2.401 25.436)" fill="#a9d6ea"/></g></g></svg>