<svg xmlns="http://www.w3.org/2000/svg" width="201.737" height="43.505" viewBox="0 0 201.737 43.505"><g transform="translate(-182 -2884)"><path d="M24.022,18.5C29,15.34,32.366,9.276,32.366,2.312A21.326,21.326,0,0,0,32.241,0H.126A21.29,21.29,0,0,0,0,2.312C0,9.276,3.369,15.34,8.345,18.5,3.369,21.65,0,27.714,0,34.678a21.315,21.315,0,0,0,.126,2.313H32.241a21.308,21.308,0,0,0,.126-2.312C32.366,27.714,29,21.65,24.022,18.5ZM3.468,34.678c0-6.752,2.9-12.477,8.092-14.366V16.678c-5.2-1.889-8.092-7.614-8.092-14.366H28.9c0,6.752-2.9,12.478-8.092,14.366v3.633C26,22.2,28.9,27.926,28.9,34.678Zm16.6-10.49a4.727,4.727,0,0,1-2.732-4.529v-2.32A4.73,4.73,0,0,1,20.075,12.8a10.047,10.047,0,0,0,3.506-3.552H8.786A10.046,10.046,0,0,0,12.3,12.8a4.727,4.727,0,0,1,2.732,4.529v2.32a4.73,4.73,0,0,1-2.736,4.539,11.46,11.46,0,0,0-5.169,8.176H25.244a11.459,11.459,0,0,0-5.173-8.179Z" transform="translate(304 2885)" fill="#2e72db"/><path d="M35.348,25.831A17.674,17.674,0,1,1,14.955,8.37V5.438H12.576a1.023,1.023,0,0,1-1.02-1.02V1.02A1.023,1.023,0,0,1,12.576,0h10.2a1.023,1.023,0,0,1,1.02,1.02v3.4a1.023,1.023,0,0,1-1.02,1.02H20.393V8.37a17.566,17.566,0,0,1,8.472,3.79L31.2,9.823a1.021,1.021,0,0,1,1.445,0l2.4,2.4a1.021,1.021,0,0,1,0,1.445l-2.5,2.5-.051.051A17.5,17.5,0,0,1,35.348,25.831ZM20.393,28.89V16.017A1.023,1.023,0,0,0,19.374,15h-3.4a1.023,1.023,0,0,0-1.02,1.02V28.89a1.023,1.023,0,0,0,1.02,1.02h3.4A1.023,1.023,0,0,0,20.393,28.89Z" transform="translate(182 2884)" fill="#2e72db"/><g transform="translate(361 2887)"><path d="M21.237,10.618A10.618,10.618,0,1,1,10.618,0,10.618,10.618,0,0,1,21.237,10.618Z" transform="translate(0 6.068)" fill="none" stroke="#2e72db" stroke-linecap="round" stroke-linejoin="round" stroke-width="3"/><path d="M0,0V4.551L2.275,6.826" transform="translate(10.618 12.135)" fill="none" stroke="#2e72db" stroke-linecap="round" stroke-linejoin="round" stroke-width="3"/><path d="M13.7,24.8l-.531,5.81a3.034,3.034,0,0,1-3.034,2.761H3.565A3.034,3.034,0,0,1,.531,30.611L0,24.8M.015,8.571l.531-5.81A3.034,3.034,0,0,1,3.565,0h6.6A3.034,3.034,0,0,1,13.2,2.761l.531,5.81" transform="translate(3.762 0)" fill="none" stroke="#2e72db" stroke-linecap="round" stroke-linejoin="round" stroke-width="3"/></g><path d="M12.432,14.919h4.973v4.973H12.432Zm7.459,0h4.973v4.973H19.892Zm7.459,0h4.973v4.973H27.351ZM4.973,29.838H9.946V34.81H4.973Zm7.459,0h4.973V34.81H12.432Zm7.459,0h4.973V34.81H19.892Zm-7.459-7.459h4.973v4.973H12.432Zm7.459,0h4.973v4.973H19.892Zm7.459,0h4.973v4.973H27.351Zm-22.378,0H9.946v4.973H4.973ZM32.324,0V2.486H27.351V0H9.946V2.486H4.973V0H0V39.783H37.3V0H32.324ZM34.81,37.3H2.486V9.946H34.81Z" transform="translate(242 2884)" fill="#2e72db"/></g></svg>