<svg xmlns="http://www.w3.org/2000/svg" width="518.509" height="502.707" viewBox="0 0 518.509 502.707"><g transform="translate(-625.663 -163.669)"><g transform="translate(882.064 303.775)"><g transform="translate(47.401 0)"><g transform="translate(83.122 0)"><path d="M725.755,105.235v203.94L614.622,245.113a6.765,6.765,0,0,1-3.386-5.861V46.3a4.089,4.089,0,0,1,6.132-3.543Z" transform="translate(-594.17 -42.204)" fill="#2672ab"/><path d="M724.914,106.288,616.524,43.809a4.027,4.027,0,0,0-5.175.989,4.059,4.059,0,0,1,5.81-2.043l108.386,62.479v203.94l-.631-.366Z" transform="translate(-593.96 -42.202)" fill="#72b5e8"/><g transform="translate(9.566 7.134)"><path d="M644.855,75.3v186.05l14.088-9.756V65.649Z" transform="translate(-541.284 -5.784)" fill="#d1ebff"/><path d="M726.271,104.566l-14.088,9.647L608.612,54.456,622.888,44.7Z" transform="translate(-608.612 -44.7)" fill="#fff"/></g><path d="M720.1,108.91V312.85L608.97,248.788a6.765,6.765,0,0,1-3.386-5.861V49.975a4.088,4.088,0,0,1,6.13-3.543Z" transform="translate(-604.67 -35.377)" fill="#72b5e8"/><path d="M645.155,74.784V278.721s11.75-.652,17.106-11.413l.066-.131V64.288l-.734.04A18.7,18.7,0,0,1,645.155,74.784Z" transform="translate(-531.162 -1.179)" fill="#72b5e8"/><path d="M719.783,109.156V313.1L608.65,249.034a6.764,6.764,0,0,1-3.386-5.858V50.221a4.089,4.089,0,0,1,6.13-3.543Z" transform="translate(-605.264 -34.92)" fill="#2672ab"/><path d="M645.3,75.611V279.55s11.753-.654,17.108-11.413l.063-.134V64.183h0C657.115,74.968,645.3,75.611,645.3,75.611Z" transform="translate(-530.889 -1.374)" fill="#3f92d1"/></g><g transform="translate(35.309 13.262)"><path d="M716.451,109.874v203.94L605.315,249.751a6.758,6.758,0,0,1-3.383-5.858V50.938a4.087,4.087,0,0,1,6.13-3.541Z" transform="translate(-563.64 -46.845)" fill="#0ba19f"/><path d="M715.61,110.927,607.22,48.45a4.026,4.026,0,0,0-5.175.986,4.055,4.055,0,0,1,5.807-2.04l108.39,62.476v203.94l-.632-.363Z" transform="translate(-563.43 -46.843)" fill="#3ecfcd"/><g transform="translate(9.567 7.132)"><path d="M628.124,90.678v186.05l35.313-20.5V70.29Z" transform="translate(-524.553 -10.424)" fill="#d1ebff"/><path d="M730.764,109.206l-35.313,20.388L591.88,69.837l35.5-20.5Z" transform="translate(-591.88 -49.34)" fill="#fff"/></g><path d="M703.374,117.309v203.94L592.238,257.187a6.764,6.764,0,0,1-3.386-5.858V58.374a4.09,4.09,0,0,1,6.132-3.543Z" transform="translate(-587.938 -33.037)" fill="#3ecfcd"/><path d="M628.423,90.161V294.1l10.942-1.843a37.574,37.574,0,0,0,27.39-20.309l.063-.134V68.929l-.735.037c-5.358,10.785-14.828,17.374-26.7,19.363Z" transform="translate(-514.43 -5.82)" fill="#3ecfcd"/><path d="M703.054,117.555v203.94L591.918,257.433a6.761,6.761,0,0,1-3.386-5.858V58.62a4.09,4.09,0,0,1,6.132-3.543Z" transform="translate(-588.532 -32.58)" fill="#0ba19f"/><path d="M628.571,90.991V294.93l10.942-1.846A37.558,37.558,0,0,0,666.9,272.775l.066-.131V68.824h0a37.563,37.563,0,0,1-27.439,20.332Z" transform="translate(-514.155 -6.015)" fill="#0fbab8"/></g><g transform="translate(0 37.687)"><path d="M699.651,118.423v203.94L588.515,258.3a6.765,6.765,0,0,1-3.386-5.861V59.488a4.09,4.09,0,0,1,6.132-3.543Z" transform="translate(-559.545 -55.392)" fill="#03336e"/><path d="M698.8,119.476,590.418,57a4.027,4.027,0,0,0-5.175.989,4.056,4.056,0,0,1,5.807-2.043l108.389,62.479v203.94L698.8,322Z" transform="translate(-559.333 -55.39)" fill="#3f92d1"/><g transform="translate(9.565 7.134)"><path d="M615.767,91.636v186.05l22.608-12.908V78.838Z" transform="translate(-512.196 -18.972)" fill="#d1ebff"/><path d="M705.7,117.754l-22.608,12.8L579.523,70.8l22.8-12.908Z" transform="translate(-579.523 -57.888)" fill="#fff"/></g><path d="M691.015,123.2v203.94L579.88,263.079a6.766,6.766,0,0,1-3.384-5.861V64.263a4.087,4.087,0,0,1,6.13-3.541Z" transform="translate(-575.582 -46.516)" fill="#3f92d1"/><path d="M616.067,91.121v203.94s20.272-3.8,25.624-14.565l.066-.131V77.476l-.734.04C635.664,88.3,616.067,91.121,616.067,91.121Z" transform="translate(-502.074 -14.367)" fill="#3f92d1"/><path d="M690.7,123.447v203.94L579.559,263.325a6.763,6.763,0,0,1-3.383-5.861V64.512a4.088,4.088,0,0,1,6.13-3.543Z" transform="translate(-576.176 -46.059)" fill="#03336e"/><path d="M616.214,91.951V295.89s20.272-3.8,25.627-14.565l.066-.131V77.371h0C636.549,88.156,616.214,91.951,616.214,91.951Z" transform="translate(-501.801 -14.562)" fill="#084c94"/></g></g><g transform="translate(0 71.909)"><path d="M560.033,397.374c0-43.912-31.021-97.419-69.289-119.513-18.45-10.651-35.214-12.053-47.631-5.729l-.04-.067-10.743,5.987,4.987,8.564a70.088,70.088,0,0,0-3.581,23.223c0,43.912,31.021,97.419,69.289,119.513a71.206,71.206,0,0,0,22.452,8.694l5.084,8.733,7.188-3.861C551.451,436.3,560.033,420.467,560.033,397.374Z" transform="translate(-383.104 -248.995)" fill="#3f92d1"/><ellipse cx="56.396" cy="97.685" rx="56.396" ry="97.685" transform="translate(1.541 56.925) rotate(-30.311)" fill="#fff"/><ellipse cx="56.396" cy="97.685" rx="56.396" ry="97.685" transform="translate(0 57.762) rotate(-30.311)" fill="#a8cff0"/><ellipse cx="48.125" cy="83.358" rx="48.125" ry="83.358" transform="matrix(0.863, -0.505, 0.505, 0.863, 14.371, 65.956)" fill="#fff"/><path d="M488.111,419.958c-32.655-18.854-59.127-64.512-59.127-101.983,0-18.763,6.639-31.913,17.364-38-12.128,5.423-19.772,19.08-19.772,39.205,0,37.471,26.472,83.131,59.125,101.985,16.305,9.412,31.066,10.362,41.763,4.29C517.011,430.125,503.227,428.684,488.111,419.958Z" transform="translate(-387.715 -239.683)" fill="#72b5e8"/><path d="M464.077,324.408c0,2.05-1.448,2.876-3.235,1.844a7.126,7.126,0,0,1-3.233-5.578c0-2.048,1.448-2.875,3.233-1.842A7.122,7.122,0,0,1,464.077,324.408Z" transform="translate(-362.855 -208.91)" fill="#03336e"/><g transform="translate(43.946 43.167)"><path d="M460.3,291.134h0a2.145,2.145,0,0,1-.9-1.711v-3.01c0-.661.4-.964.9-.677h0a2.143,2.143,0,0,1,.9,1.711v3.01C461.2,291.116,460.8,291.42,460.3,291.134Z" transform="translate(-405.36 -278.319)" fill="#72b5e8"/><path d="M460.3,358.149h0a2.143,2.143,0,0,1-.9-1.711v-3.01c0-.659.4-.964.9-.677h0a2.146,2.146,0,0,1,.9,1.713v3.008C461.2,358.132,460.8,358.435,460.3,358.149Z" transform="translate(-405.36 -224.636)" fill="#72b5e8"/><path d="M434.1,306.1h0c0,.567-.344.828-.771.584l-3.163-1.826a1.848,1.848,0,0,1-.771-1.473h0c0-.567.346-.828.771-.584l3.163,1.826A1.843,1.843,0,0,1,434.1,306.1Z" transform="translate(-429.399 -264.639)" fill="#72b5e8"/><path d="M492.505,339.815h0c0,.567-.346.828-.771.584l-3.163-1.826a1.843,1.843,0,0,1-.771-1.473h0c0-.567.344-.829.771-.584l3.163,1.826A1.848,1.848,0,0,1,492.505,339.815Z" transform="translate(-382.616 -237.629)" fill="#72b5e8"/><path d="M447.2,287.605h0c-.429.036-.978-.448-1.225-1.082l-1.455-3.735c-.249-.636-.1-1.18.328-1.216h0c.429-.036.976.448,1.223,1.084l1.457,3.734C447.779,287.025,447.633,287.569,447.2,287.605Z" transform="translate(-417.379 -281.57)" fill="#72b5e8"/><path d="M476.4,362.5h0c-.429.036-.976-.448-1.223-1.082l-1.457-3.735c-.247-.636-.1-1.18.328-1.216h0c.429-.036.978.448,1.225,1.082l1.457,3.735C476.981,361.921,476.833,362.465,476.4,362.5Z" transform="translate(-393.988 -221.574)" fill="#72b5e8"/><path d="M437.615,323.233h0c.247.634.1,1.18-.328,1.216l-2.523.214c-.429.036-.976-.449-1.225-1.082h0c-.247-.636-.1-1.18.33-1.216l2.521-.214C436.819,322.113,437.366,322.6,437.615,323.233Z" transform="translate(-426.178 -249.064)" fill="#72b5e8"/><path d="M488.192,318.926h0c.247.636.1,1.18-.328,1.216l-2.523.214c-.429.036-.976-.448-1.225-1.082h0c-.247-.636-.1-1.18.33-1.216l2.521-.214C487.4,317.808,487.943,318.292,488.192,318.926Z" transform="translate(-385.663 -252.514)" fill="#72b5e8"/><path d="M437.615,293.073h0c-.249.349-.8.2-1.225-.33l-2.521-3.127a1.509,1.509,0,0,1-.33-1.6h0c.249-.348.8-.2,1.225.331l2.523,3.127A1.509,1.509,0,0,1,437.615,293.073Z" transform="translate(-426.178 -276.553)" fill="#72b5e8"/><path d="M488.192,355.782h0c-.249.348-.8.2-1.225-.331l-2.521-3.127a1.506,1.506,0,0,1-.33-1.594h0c.249-.349.8-.2,1.225.33l2.523,3.128A1.5,1.5,0,0,1,488.192,355.782Z" transform="translate(-385.663 -226.32)" fill="#72b5e8"/><path d="M447.2,340.593h0a1.5,1.5,0,0,1,.328,1.594l-1.457,2.053c-.247.349-.794.2-1.223-.33h0a1.5,1.5,0,0,1-.328-1.594l1.455-2.053C446.227,339.914,446.776,340.061,447.2,340.593Z" transform="translate(-417.379 -234.705)" fill="#72b5e8"/><path d="M476.4,299.415h0a1.506,1.506,0,0,1,.33,1.594l-1.457,2.053c-.247.349-.8.2-1.225-.33h0a1.5,1.5,0,0,1-.328-1.594l1.457-2.053C475.428,298.736,475.976,298.884,476.4,299.415Z" transform="translate(-393.988 -267.691)" fill="#72b5e8"/></g><path d="M461.662,345.582l-3.125-1.8v-50.09l3.125,1.8Z" transform="translate(-362.112 -228.696)" fill="#03336e"/><path d="M460.138,320.325l-.957,1.35,42.25,52.384.957-1.35Z" transform="translate(-361.596 -207.358)" fill="#03336e"/><path d="M461.74,322.551c0,1.025-.724,1.437-1.617.922a3.563,3.563,0,0,1-1.616-2.788c0-1.025.724-1.437,1.616-.922A3.56,3.56,0,0,1,461.74,322.551Z" transform="translate(-362.136 -207.986)" fill="#eb4680"/><path d="M488.923,319.2l-1.7-2.932-6.888,3.927.445.768-42.7,24.347.81,1.4,42.7-24.348.445.767Z" transform="translate(-378.502 -210.608)" fill="#eb4680"/></g></g><g transform="translate(625.663 163.669)"><g transform="translate(30.951 267.296)"><path d="M437.082,310.99l-81.727-47.465c-4.922-2.842-4.3-7.806,1.379-11.087l71.724-27.589c5.684-3.282,14.281-3.638,19.2-.8l54.928,32.18c4.922,2.842,4.3,7.806-1.379,11.086l-44.925,42.876C450.6,313.475,442,313.832,437.082,310.99Z" transform="translate(-352.032 -211.645)" fill="#92b4d1" opacity="0.2"/><path d="M437.082,308.331l-81.727-47.466c-2.194-1.266-3.287-2.953-3.322-4.726,0-.057,0-6.117,0-6.173.038-2.156,1.631,1.586,4.7-.187l71.724-27.59c5.684-3.28,14.281-3.636,19.2-.795l54.928,32.18c1.642.948,2.835-3.078,3.262-1.8.142.426.05,6.075.06,6.517.047,2.207-1.546,4.546-4.7,6.367l-44.925,42.876C450.6,310.816,442,311.173,437.082,308.331Z" transform="translate(-352.032 -213.415)" fill="#2672ab"/><path d="M437.082,304.693l-81.727-47.465c-4.922-2.842-4.3-7.806,1.379-11.087l71.724-27.589c5.684-3.282,14.281-3.638,19.2-.8l54.928,32.18c4.922,2.842,4.3,7.806-1.379,11.086L456.283,303.9C450.6,307.178,442,307.535,437.082,304.693Z" transform="translate(-352.032 -215.837)" fill="#d1ebff"/><path d="M486.483,249.935l-54.928-32.18c-4.921-2.842-13.518-2.485-19.2.8l-36.134,13.9a9.2,9.2,0,0,0,1.121.775l81.727,47.465a13.779,13.779,0,0,0,3.91,1.449L485.1,261.021C490.788,257.741,491.406,252.777,486.483,249.935Z" transform="translate(-335.928 -215.837)" fill="#a8cff0" opacity="0.5"/><path d="M501.207,245.605l-44.925,42.874c-5.682,3.282-14.279,3.638-19.2.8l-81.727-47.465a5.89,5.89,0,0,1-3.285-4.363c-.255,2.011.82,3.968,3.285,5.392L437.081,290.3c4.922,2.842,13.52,2.485,19.2-.8l44.925-42.876c3.327-1.919,4.9-4.414,4.664-6.723C505.617,241.912,504.044,243.968,501.207,245.605Z" transform="translate(-352.032 -201.449)" fill="#fff"/></g><g transform="translate(0 0)"><path d="M576.238,412.907l-222.215-128.4c-11.361-6.558-20.571-24.155-20.571-39.3V75.254c0-15.149,9.21-22.11,20.571-15.552L576.238,188.1c11.361,6.56,20.571,24.157,20.571,39.3v169.95C596.809,412.5,587.6,419.467,576.238,412.907Z" transform="translate(-333.452 -54.137)" fill="#a8cff0"/><path d="M574.271,395.776,355.185,269.205c-9.142-5.81-14.8-17.421-14.8-29.3V68.838a3.647,3.647,0,0,1,5.492-3.14l.645.375L565.842,192.807c10.884,6.273,14.8,17.421,14.8,29.3V392.636a3.937,3.937,0,0,1-5.887,3.417C574.544,395.935,574.379,395.84,574.271,395.776Z" transform="translate(-328.834 -48.839)" fill="#084c94"/><path d="M565.842,192.807,346.525,66.073l-.645-.375a3.647,3.647,0,0,0-5.492,3.14V239.9c0,11.88,5.655,23.491,14.8,29.3L574.271,395.776c.108.063.273.158.481.277a3.937,3.937,0,0,0,5.887-3.417V222.108C580.639,210.228,576.726,199.081,565.842,192.807Zm12.485,199.829a1.634,1.634,0,0,1-1.632,1.627,1.605,1.605,0,0,1-.8-.218L356.341,267.2c-8.256-5.249-13.643-15.985-13.643-27.3V68.838a1.344,1.344,0,0,1,1.344-1.336,1.32,1.32,0,0,1,.67.188L564.684,194.808c11.277,6.5,13.643,18.434,13.643,27.3Z" transform="translate(-328.834 -48.839)" fill="#03336e"/><path d="M578.965,186.244,356.75,57.844c-4.494-2.6-8.652-3.073-12.037-1.767-.43.167-6.165,3.215-6.57,3.438l-.03.018c3.515-1.709,7.961-1.391,12.807,1.408l222.215,128.4c11.361,6.56,20.571,24.157,20.571,39.3v169.95c0,9.453-3.588,15.717-9.045,17.5a3.427,3.427,0,0,0,1.8-.615c.26-.15,6.485-3.661,6.733-3.835,3.906-2.737,6.34-8.361,6.34-16.146V225.548C599.536,210.4,590.326,192.8,578.965,186.244Z" transform="translate(-330.349 -55.375)" fill="#3f92d1"/><path d="M573.562,187.8,351.346,59.4c-4.659-2.69-8.942-3.073-12.39-1.584,2.943-.466,6.323.247,9.921,2.324l222.216,128.4c11.361,6.56,20.571,24.157,20.571,39.3v169.95c0,8.935-3.218,14.99-8.181,17.134,6.347-1.006,10.649-7.526,10.649-17.876V227.1C594.132,211.954,584.922,194.358,573.562,187.8Z" transform="translate(-329.788 -54.326)" fill="#fff"/></g><g transform="translate(37.753 53.728)"><path d="M356.116,245.248V95.748c0-6.187,3.763-9.03,8.4-6.352l171.189,99.049c4.639,2.679,8.4,9.866,8.4,16.053V354Z" transform="translate(-356.116 -87.123)" fill="#f0f8ff"/><path d="M545.22,353.238v-149.5c0-6.187-3.761-13.373-8.4-16.053L365.631,88.637a5.679,5.679,0,0,0-4.917-.721c-.175.068-2.517,1.313-2.684,1.4l-.007,0c1.431-.695,3.247-.565,5.226.578L534.438,188.95c4.639,2.679,8.4,9.866,8.4,16.053V354.5Z" transform="translate(-354.846 -87.629)" fill="#a8cff0"/><path d="M545.22,213.839v-10.1c0-6.187-3.761-13.373-8.4-16.053L365.631,88.637a5.679,5.679,0,0,0-4.917-.721c-.175.068-2.517,1.313-2.684,1.4l-.007,0c1.431-.695,3.247-.565,5.226.578L534.438,188.95c4.639,2.679,8.4,9.866,8.4,16.053v10.1Z" transform="translate(-354.846 -87.629)" fill="#0ba19f"/><path d="M535.707,188.445,364.518,89.4c-4.639-2.679-8.4.165-8.4,6.352v9.91L544.11,214.406V204.5C544.11,198.311,540.347,191.124,535.707,188.445Z" transform="translate(-356.116 -87.123)" fill="#0fbab8"/><ellipse cx="2.939" cy="5.091" rx="2.939" ry="5.091" transform="matrix(0.863, -0.505, 0.505, 0.863, 30.425, 25.921)" fill="#f0f8ff"/><path d="M375.663,105.066c0,2.289-1.618,3.21-3.611,2.059a7.955,7.955,0,0,1-3.61-6.228c0-2.289,1.616-3.21,3.61-2.059A7.957,7.957,0,0,1,375.663,105.066Z" transform="translate(-347.91 -80.496)" fill="#f0f8ff"/><path d="M368.771,101.162c0,2.287-1.618,3.21-3.611,2.057a7.957,7.957,0,0,1-3.611-6.227c0-2.289,1.618-3.212,3.611-2.059A7.957,7.957,0,0,1,368.771,101.162Z" transform="translate(-352.499 -83.096)" fill="#f0f8ff"/><path d="M474.888,187.959l-19.7-11.314v3.993l19.7,11.314Zm2.855,5.64,14.589,8.389V198l-14.589-8.389ZM452.337,175l-9.813-5.665v3.991l9.813,5.665Zm-12.667-7.313-22.693-13.056v3.991l22.693,13.056Zm-1.817-12.6L373.532,117.4v6.06l64.321,37.683Zm-23.731-2.1L390.5,139.35v3.991l23.621,13.631ZM387.646,137.7l-14.114-8.346v3.991l14.114,8.347Z" transform="translate(-344.521 -67.809)" fill="#3f92d1"/><path d="M496.012,245.176l4.717,2.724v-3.991l-4.717-2.725Zm-14.166-8.144,11.311,6.495v-3.991l-11.311-6.5Zm-37-21.307,12.132,7v-3.991l-12.132-7ZM430,207.2l11.989,6.876v-3.991L430,203.21Zm29.829,17.178,19.161,11.006v-3.993L459.83,220.386Zm-66.3-38.223,33.614,19.4v-3.991l-33.614-19.4Zm-2.854-5.64-17.148-10.1v3.991l17.148,10.1Zm47.173,15.463-64.321-37.685v6.06l64.321,37.685Z" transform="translate(-344.521 -40.581)" fill="#3f92d1"/><g transform="translate(27.915 144.523)"><path d="M387.7,200.182a.834.834,0,0,1-.413-.11l-14-8.082a.826.826,0,0,1-.413-.715V175.214a.825.825,0,0,1,1.238-.715l14,8.082a.826.826,0,0,1,.413.715v16.061a.824.824,0,0,1-.826.825ZM374.525,190.8l12.348,7.128V183.773l-12.348-7.128Z" transform="translate(-372.874 -174.388)" fill="#a8cff0"/></g><g transform="translate(64.659 165.74)"><path d="M409.757,212.921a.836.836,0,0,1-.413-.112l-14-8.082a.824.824,0,0,1-.413-.715V187.951a.826.826,0,0,1,1.239-.715l14,8.082a.826.826,0,0,1,.413.715v16.061a.826.826,0,0,1-.413.715A.836.836,0,0,1,409.757,212.921Zm-13.173-9.385,12.347,7.128V196.512l-12.347-7.13Z" transform="translate(-394.932 -187.125)" fill="#a8cff0"/></g><g transform="translate(99.609 185.859)"><path d="M430.737,225a.815.815,0,0,1-.413-.112l-14-8.081a.826.826,0,0,1-.413-.715V200.029a.826.826,0,0,1,1.239-.715l14,8.081a.828.828,0,0,1,.413.715v16.061a.828.828,0,0,1-.826.826Zm-13.171-9.385,12.345,7.13V208.588l-12.345-7.13Z" transform="translate(-415.913 -199.203)" fill="#a8cff0"/></g><g transform="translate(27.915 76.812)"><path d="M387.7,159.534a.819.819,0,0,1-.413-.112l-14-8.081a.826.826,0,0,1-.413-.715V134.566a.825.825,0,0,1,1.238-.715l14,8.082a.823.823,0,0,1,.413.713V158.71a.823.823,0,0,1-.413.713A.81.81,0,0,1,387.7,159.534Zm-13.173-9.383,12.348,7.128V143.125L374.525,136Z" transform="translate(-372.874 -133.74)" fill="#a8cff0"/></g><g transform="translate(64.659 98.029)"><path d="M409.757,172.271a.835.835,0,0,1-.413-.11l-14-8.082a.826.826,0,0,1-.413-.715V147.3a.826.826,0,0,1,1.239-.715l14,8.082a.826.826,0,0,1,.413.715v16.061a.826.826,0,0,1-.413.715A.835.835,0,0,1,409.757,172.271Zm-13.173-9.383,12.347,7.128V155.862l-12.347-7.128Z" transform="translate(-394.932 -146.477)" fill="#a8cff0"/></g><g transform="translate(99.609 118.148)"><path d="M430.737,184.349a.815.815,0,0,1-.413-.112l-14-8.081a.828.828,0,0,1-.413-.715V159.381a.826.826,0,0,1,1.239-.715l14,8.081a.826.826,0,0,1,.413.715v16.061a.828.828,0,0,1-.826.826Zm-13.171-9.385,12.345,7.128V167.94l-12.345-7.13Z" transform="translate(-415.913 -158.555)" fill="#a8cff0"/></g><g transform="translate(136.166 206.845)"><path d="M452.683,237.6a.81.81,0,0,1-.413-.112l-14-8.081a.828.828,0,0,1-.413-.715V212.627a.826.826,0,0,1,1.239-.715l14,8.081a.824.824,0,0,1,.411.715v16.061a.826.826,0,0,1-.825.826Zm-13.171-9.385,12.345,7.128V221.186l-12.345-7.13Z" transform="translate(-437.859 -211.801)" fill="#a8cff0"/></g><g transform="translate(136.166 139.147)"><path d="M452.683,196.955a.825.825,0,0,1-.413-.11l-14-8.082a.826.826,0,0,1-.413-.715V171.987a.826.826,0,0,1,1.239-.715l14,8.082a.822.822,0,0,1,.411.715v16.061a.824.824,0,0,1-.411.715A.835.835,0,0,1,452.683,196.955Zm-13.171-9.383,12.345,7.128V180.546l-12.345-7.128Z" transform="translate(-437.859 -171.161)" fill="#a8cff0"/></g><path d="M396.16,194.119l4.955,8.533,12.661-7.157-3.028-4.129-8.946,8.808-1.651-6.606Z" transform="translate(-329.455 -18.561)" fill="#eb4680"/><path d="M374.667,141.216l4.955,8.533,12.661-7.157-3.028-4.129-8.946,8.808-1.651-6.606Z" transform="translate(-343.765 -53.784)" fill="#eb4680"/></g></g><g transform="translate(853.472 463.245)"><path d="M183.1,222.655,57.645,150.221l70.316-38.751L253.42,183.9Z" transform="translate(-57.645 -19.524)" fill="#92b4d1" opacity="0.2"/><path d="M84.366,44.364,57.86,173.507l125.473,72.875L209.839,116.3Z" transform="translate(-57.569 -43.251)" fill="#2672ab"/><path d="M181.82,232.945l22.454-116.288L85.15,48.359l-22.606,116.2Z" transform="translate(-55.913 -41.838)" fill="#03336e" opacity="0.2"/><path d="M181.118,231.515l23.4-114.858L85.4,48.359,61.842,163.13Z" transform="translate(-56.161 -41.838)" fill="#f0f8ff"/><path d="M179.7,232.765l25.326-116.108L85.9,48.359,60.422,164.38Z" transform="translate(-56.663 -41.838)" fill="#03336e" opacity="0.2"/><path d="M179.3,230.97l25.865-114.313L86.041,48.359,60.024,162.584Z" transform="translate(-56.804 -41.838)" fill="#fff"/><path d="M165.034,145.64l-3.488,15.277-45.119-25.9,3.425-14.859Z" transform="translate(-36.861 -16.452)" fill="#eb4680"/><path d="M141.153,118.721,137.665,134,108.04,116.992l3.425-15.13Z" transform="translate(-39.826 -22.921)" fill="#0fbab8"/><g transform="translate(10.633 34.625)"><path d="M77.078,85.865,122.505,111.9l3.232-16.125L80.579,69.829Z" transform="translate(-61.406 -68.872)" fill="#d1ebff"/><path d="M122.039,166.51l30.435,17.237,3.458-16.351-30.165-17.147Z" transform="translate(-45.51 -40.438)" fill="#d1ebff"/><path d="M172.963,213.606,65.5,151.994l.111-.489L84.324,69.122l107.327,61.533ZM67.042,151.318l105,60.2,18.066-80.188L85.239,71.207Z" transform="translate(-65.5 -69.122)" fill="#a8cff0"/><g transform="translate(0.126 0.174)"><g transform="translate(106.21 60.837)"><rect width="84.301" height="1.354" transform="translate(0 82.281) rotate(-77.432)" fill="#a8cff0"/></g><path d="M133.69,190.29l1.5-12,15.9-70.487-1.5,12Z" transform="translate(-41.516 -55.619)" fill="#a8cff0"/><path d="M122.338,183.806l4.33-23.7,13.469-58.69-4.33,23.7Z" transform="translate(-45.529 -57.878)" fill="#a8cff0"/><path d="M110.987,177.321l7.156-35.4,11.039-46.893-7.156,35.4Z" transform="translate(-49.543 -60.137)" fill="#a8cff0"/><path d="M99.636,170.837l9.983-47.1,8.61-35.1-9.983,47.1Z" transform="translate(-53.556 -62.396)" fill="#a8cff0"/><path d="M88.284,164.353l12.809-58.8,6.18-23.3-12.809,58.8Z" transform="translate(-57.57 -64.655)" fill="#a8cff0"/><path d="M76.933,157.869,92.568,87.362l3.75-11.5L80.683,146.368Z" transform="translate(-61.583 -66.914)" fill="#a8cff0"/><g transform="translate(0 0)"><rect width="84.256" height="1.353" transform="translate(0 82.215) rotate(-77.365)" fill="#a8cff0"/></g></g><g transform="translate(0.434 0.11)"><g transform="translate(0 81.838)"><rect width="1.353" height="122.454" transform="matrix(0.497, -0.868, 0.868, 0.497, 0, 1.174)" fill="#a8cff0"/></g><path d="M153.41,167.225l-84.852-48.96,21.758,11.227,84.852,48.96Z" transform="translate(-64.853 -51.856)" fill="#a8cff0"/><path d="M134.767,143.013,71.3,106l42.844,23.628,63.471,37.014Z" transform="translate(-63.885 -56.193)" fill="#a8cff0"/><path d="M116.123,118.8,74.034,93.734l63.93,36.029,42.089,25.067Z" transform="translate(-62.917 -60.53)" fill="#a8cff0"/><path d="M97.479,94.589,76.771,81.469l85.015,48.43,20.708,13.12Z" transform="translate(-61.949 -64.866)" fill="#a8cff0"/><g transform="translate(17.855 0)"><rect width="1.353" height="122.302" transform="translate(0 1.174) rotate(-60.173)" fill="#a8cff0"/></g></g></g><path d="M177.063,97.512,150.558,227.59l26.533-22.955,26.479-7.652Z" transform="translate(-24.793 -24.459)" fill="#084c94"/><path d="M200.287,197.1l.392-.113L174.172,97.512l-15.437,75.761Z" transform="translate(-21.902 -24.459)" fill="#03336e"/><path d="M177.519,179.546l-19.93-11.426-7.031,34.5,26.534-22.955Z" transform="translate(-24.793 0.506)" fill="#03336e"/><path d="M177.064,97.512,150.558,227.589l26.533-22.954,26.48-7.652Zm-.324,106.476-25.057,21.679,25.474-125.016,25.538,95.838Z" transform="translate(-24.793 -24.459)" fill="#3f92d1"/><g transform="translate(32.527 14.966)"><path d="M164.378,101.505,157.6,97.622l-.936,4.562,6.774,3.884Z" transform="translate(-55.16 -39.386)" fill="#2672ab"/><path d="M151.879,94.335l-6.773-3.883-.936,4.562,6.773,3.883Z" transform="translate(-59.579 -41.921)" fill="#2672ab"/><path d="M139.381,87.164l-6.773-3.884-.936,4.562,6.773,3.884Z" transform="translate(-63.999 -44.457)" fill="#2672ab"/><path d="M126.882,79.993l-6.773-3.884-.936,4.562,6.773,3.884Z" transform="translate(-68.418 -46.992)" fill="#2672ab"/><path d="M114.383,72.823l-6.774-3.884-.936,4.562,6.773,3.884Z" transform="translate(-72.837 -49.527)" fill="#2672ab"/><path d="M101.884,65.652l-6.773-3.884-.936,4.562,6.773,3.884Z" transform="translate(-77.256 -52.063)" fill="#2672ab"/><path d="M89.385,58.482,82.612,54.6l-.936,4.562,6.773,3.884Z" transform="translate(-81.676 -54.598)" fill="#2672ab"/></g><g transform="translate(34.349 0)"><path d="M172.734,87.254c-1.854-1.072-4.216-.887-6.651.52a17.55,17.55,0,0,0-8.069,13.924,6.963,6.963,0,0,0,2,5.326,5.023,5.023,0,0,0,3.2,1.3l.59-2.876a2.322,2.322,0,0,1-1.853-.547,4.3,4.3,0,0,1-1.056-3.2,14.855,14.855,0,0,1,6.633-11.435c1.488-.861,2.864-1.048,3.778-.521s1.419,1.784,1.419,3.468a13.271,13.271,0,0,1-1.788,6.186l2.515,1.389a16.158,16.158,0,0,0,2.145-7.575C175.589,90.432,174.575,88.316,172.734,87.254Z" transform="translate(-56.506 -28.33)" fill="#a8cff0"/><path d="M160.235,80.083c-1.854-1.072-4.216-.887-6.65.521a17.544,17.544,0,0,0-8.069,13.923,6.962,6.962,0,0,0,1.994,5.326,5.008,5.008,0,0,0,3.2,1.3l.59-2.875a2.329,2.329,0,0,1-1.853-.548,4.3,4.3,0,0,1-1.056-3.2,14.857,14.857,0,0,1,6.632-11.435c1.488-.86,2.864-1.048,3.778-.521s1.419,1.784,1.419,3.468a13.247,13.247,0,0,1-1.788,6.186l2.515,1.389a16.149,16.149,0,0,0,2.145-7.575C163.089,83.261,162.076,81.145,160.235,80.083Z" transform="translate(-60.925 -30.865)" fill="#a8cff0"/><path d="M147.737,72.913c-1.856-1.072-4.218-.887-6.651.52a17.547,17.547,0,0,0-8.069,13.924,6.962,6.962,0,0,0,1.994,5.326,5.014,5.014,0,0,0,3.2,1.3l.59-2.875a2.324,2.324,0,0,1-1.852-.547,4.294,4.294,0,0,1-1.057-3.2,14.855,14.855,0,0,1,6.632-11.435c1.489-.861,2.864-1.049,3.778-.522s1.419,1.785,1.419,3.469a13.256,13.256,0,0,1-1.788,6.186l2.515,1.389a16.16,16.16,0,0,0,2.147-7.575C150.592,76.09,149.577,73.975,147.737,72.913Z" transform="translate(-65.344 -33.4)" fill="#a8cff0"/><path d="M135.238,65.742c-1.856-1.072-4.216-.887-6.651.52a17.549,17.549,0,0,0-8.069,13.924,6.962,6.962,0,0,0,1.994,5.326,5.019,5.019,0,0,0,3.2,1.3l.59-2.876a2.319,2.319,0,0,1-1.852-.547,4.3,4.3,0,0,1-1.057-3.2,14.855,14.855,0,0,1,6.632-11.435c1.489-.86,2.864-1.048,3.778-.521s1.419,1.784,1.419,3.468a13.255,13.255,0,0,1-1.788,6.186l2.515,1.389a16.14,16.14,0,0,0,2.147-7.575C138.093,68.92,137.079,66.8,135.238,65.742Z" transform="translate(-69.763 -35.936)" fill="#a8cff0"/><path d="M122.739,58.571c-1.856-1.071-4.216-.887-6.651.521a17.547,17.547,0,0,0-8.069,13.924,6.964,6.964,0,0,0,1.994,5.326,5.021,5.021,0,0,0,3.2,1.3l.59-2.875a2.325,2.325,0,0,1-1.853-.547,4.3,4.3,0,0,1-1.056-3.2,14.858,14.858,0,0,1,6.631-11.436c1.489-.86,2.866-1.048,3.778-.521s1.42,1.784,1.42,3.469a13.249,13.249,0,0,1-1.789,6.184l2.515,1.389a16.135,16.135,0,0,0,2.147-7.573C125.594,61.749,124.58,59.633,122.739,58.571Z" transform="translate(-74.182 -38.471)" fill="#a8cff0"/><path d="M110.24,51.4c-1.854-1.072-4.216-.887-6.651.52A17.55,17.55,0,0,0,95.52,65.845a6.967,6.967,0,0,0,1.994,5.326,5.03,5.03,0,0,0,3.2,1.3l.59-2.876a2.325,2.325,0,0,1-1.853-.547,4.3,4.3,0,0,1-1.056-3.2,14.851,14.851,0,0,1,6.632-11.435c1.488-.861,2.864-1.049,3.776-.521s1.42,1.784,1.42,3.468a13.258,13.258,0,0,1-1.789,6.186l2.516,1.389a16.158,16.158,0,0,0,2.145-7.575C113.095,54.579,112.081,52.463,110.24,51.4Z" transform="translate(-78.602 -41.006)" fill="#a8cff0"/><path d="M97.741,44.23c-1.854-1.072-4.216-.887-6.65.521a17.546,17.546,0,0,0-8.07,13.923,6.963,6.963,0,0,0,2,5.326,5.008,5.008,0,0,0,3.2,1.3l.59-2.875a2.329,2.329,0,0,1-1.853-.548,4.3,4.3,0,0,1-1.056-3.2,14.857,14.857,0,0,1,6.633-11.435c1.488-.86,2.864-1.048,3.778-.521s1.419,1.784,1.419,3.468a13.263,13.263,0,0,1-1.788,6.186L98.45,57.76a16.149,16.149,0,0,0,2.145-7.575C100.6,47.408,99.582,45.292,97.741,44.23Z" transform="translate(-83.021 -43.542)" fill="#a8cff0"/></g><g transform="translate(30.106 31.89)"><path d="M93.306,73.627,82.227,67.274a1.3,1.3,0,0,0-1.925.9l-.416,2.3L94.59,78.9l.328-1.812A3.311,3.311,0,0,0,93.306,73.627Z" transform="translate(-79.887 -67.101)" fill="#72b5e8"/><path d="M104.47,80.015,93.392,73.664a1.3,1.3,0,0,0-1.925.9l-.416,2.3,14.7,8.43.328-1.812A3.312,3.312,0,0,0,104.47,80.015Z" transform="translate(-75.939 -64.842)" fill="#72b5e8"/><path d="M115.635,86.406l-11.078-6.352a1.3,1.3,0,0,0-1.925.9l-.416,2.3,14.7,8.43.328-1.812A3.312,3.312,0,0,0,115.635,86.406Z" transform="translate(-71.992 -62.583)" fill="#72b5e8"/><path d="M126.8,92.794l-11.078-6.351a1.3,1.3,0,0,0-1.926.9l-.414,2.3,14.7,8.429.326-1.811A3.311,3.311,0,0,0,126.8,92.794Z" transform="translate(-68.044 -60.324)" fill="#72b5e8"/><path d="M137.965,99.185l-11.079-6.352a1.3,1.3,0,0,0-1.925.9l-.414,2.3,14.7,8.43.326-1.812A3.308,3.308,0,0,0,137.965,99.185Z" transform="translate(-64.096 -58.065)" fill="#72b5e8"/><path d="M149.13,105.574l-11.079-6.352a1.3,1.3,0,0,0-1.925.9l-.414,2.3,14.7,8.429.328-1.811A3.31,3.31,0,0,0,149.13,105.574Z" transform="translate(-60.149 -55.806)" fill="#72b5e8"/><path d="M160.295,111.964l-11.079-6.352a1.3,1.3,0,0,0-1.925.9l-.414,2.3,14.7,8.43.328-1.812A3.308,3.308,0,0,0,160.295,111.964Z" transform="translate(-56.201 -53.546)" fill="#72b5e8"/></g><path d="M65.219,140.141Z" transform="translate(-54.967 -9.387)" fill="#fff"/></g></g></svg>