<svg xmlns="http://www.w3.org/2000/svg" width="447" height="334" viewBox="0 0 447 334"><g transform="translate(-187 -1408)"><rect width="447" height="334" transform="translate(187 1408)" fill="none"/><g transform="translate(229.304 1383.2)"><path d="M342.235,226.656a14.748,14.748,0,0,1-14.892-14.892c0-77.44-63.143-141.179-141.179-141.179-77.44,0-141.179,63.143-141.179,141.179a14.892,14.892,0,1,1-29.785,0C15.2,117.644,92.044,40.8,186.164,40.8s170.964,76.844,170.964,170.964A14.748,14.748,0,0,1,342.235,226.656Z" transform="translate(-3.882)" fill="#7d8b8c"/><path d="M186.777,80C100.4,80,28.322,144.93,17.6,228.327a15.566,15.566,0,0,0,13.7,8.34,14.748,14.748,0,0,0,14.892-14.892c0-77.44,63.143-141.179,141.179-141.179,77.44,0,141.179,63.143,141.179,141.179a14.748,14.748,0,0,0,14.892,14.892c5.957,0,10.723-3.574,13.7-8.34C345.231,144.335,273.152,80,186.777,80Z" transform="translate(-4.495 -10.011)" fill="#536060"/><path d="M413.6,369.167a27.717,27.717,0,0,0,27.4,27.4h.6a27.717,27.717,0,0,0,27.4-27.4V309a27.717,27.717,0,0,0-27.4-27.4H441A27.717,27.717,0,0,0,413.6,309Z" transform="translate(-105.627 -61.497)" fill="#394444"/><path d="M413.6,318.4v60.165a27.717,27.717,0,0,0,27.4,27.4h.6a27.717,27.717,0,0,0,27.4-27.4V318.4" transform="translate(-105.627 -70.895)" fill="#2b3535"/><path d="M368,371.921a25.17,25.17,0,0,0,25.019,25.019h23.232a25.17,25.17,0,0,0,25.019-25.019v-96.5A25.17,25.17,0,0,0,416.251,250.4H393.019A25.17,25.17,0,0,0,368,275.419Z" transform="translate(-93.981 -53.529)" fill="#db3b5e"/><path d="M416.251,250.4H393.019A25.17,25.17,0,0,0,368,275.419v96.5a25.17,25.17,0,0,0,25.019,25.019h23.232a25.17,25.17,0,0,0,25.019-25.019" transform="translate(-93.981 -53.529)" fill="#c42c54"/><path d="M416.251,250.4H393.019A25.17,25.17,0,0,0,368,275.419v96.5a25.17,25.17,0,0,0,25.019,25.019h23.232" transform="translate(-93.981 -53.529)" fill="#394444"/><path d="M416.251,250.4H386.466c-13.7,0-18.466,11.318-18.466,25.019v96.5a25.17,25.17,0,0,0,25.019,25.019" transform="translate(-93.981 -53.529)" fill="#2b3535"/><path d="M55.4,369.167a27.717,27.717,0,0,1-27.4,27.4h-.6A27.717,27.717,0,0,1,0,369.167V309a27.717,27.717,0,0,1,27.4-27.4H28A27.717,27.717,0,0,1,55.4,309S55.4,369.167,55.4,369.167Z" transform="translate(0 -61.497)" fill="#394444"/><path d="M55.4,318.4v60.165a27.717,27.717,0,0,1-27.4,27.4h-.6A27.717,27.717,0,0,1,0,378.565V318.4" transform="translate(0 -70.895)" fill="#2b3535"/><path d="M94.87,371.921A25.17,25.17,0,0,1,69.851,396.94H46.619A25.17,25.17,0,0,1,21.6,371.921v-96.5A25.17,25.17,0,0,1,46.619,250.4H69.851A25.17,25.17,0,0,1,94.87,275.419Z" transform="translate(-5.516 -53.529)" fill="#db3b5e"/><path d="M46.619,250.4H69.851A25.17,25.17,0,0,1,94.87,275.419v96.5A25.17,25.17,0,0,1,69.851,396.94H46.619A25.17,25.17,0,0,1,21.6,371.921" transform="translate(-5.516 -53.529)" fill="#c42c54"/><path d="M55.2,250.4H78.432a25.17,25.17,0,0,1,25.019,25.019v96.5A25.17,25.17,0,0,1,78.432,396.94H55.2" transform="translate(-14.097 -53.529)" fill="#394444"/><path d="M55.2,250.4H84.985c13.7,0,18.466,11.318,18.466,25.019v96.5A25.17,25.17,0,0,1,78.432,396.94" transform="translate(-14.097 -53.529)" fill="#2b3535"/></g></g></svg>