<svg xmlns="http://www.w3.org/2000/svg" width="265.349" height="242.472" viewBox="0 0 265.349 242.472"><g transform="translate(-1085.338 -5195.238)"><path d="M77.3,59.517C93.315,49.365,104.155,29.851,104.155,7.44a68.628,68.628,0,0,0-.4-7.44H.4A68.51,68.51,0,0,0,0,7.44C0,29.851,10.84,49.365,26.853,59.517,10.84,69.669,0,89.184,0,111.595a68.59,68.59,0,0,0,.4,7.444l103.346,0a68.569,68.569,0,0,0,.4-7.44C104.155,89.184,93.315,69.669,77.3,59.517ZM11.159,111.595c0-21.727,9.318-40.152,26.039-46.231V53.671C20.478,47.592,11.16,29.167,11.16,7.44H93c0,21.728-9.318,40.153-26.039,46.231V65.363C83.677,71.442,93,89.867,93,111.595ZM64.589,77.837C56.259,73.112,55.8,66.983,55.8,63.264V55.8c0-3.719.442-9.871,8.8-14.608A32.333,32.333,0,0,0,75.884,29.759H28.272A32.328,32.328,0,0,0,39.567,41.2c8.329,4.725,8.789,10.853,8.791,14.573v7.466c0,3.719-.442,9.871-8.8,14.608-8.442,4.9-14.733,14.61-16.633,26.31H81.236c-1.9-11.707-8.2-21.418-16.648-26.318Z" transform="translate(1179.115 5334.619) rotate(-30)" fill="#004bc1"/><g transform="matrix(1, 0.017, -0.017, 1, 1090.223, 5292.813)"><path d="M59.056,29.528A29.528,29.528,0,1,1,29.528,0,29.528,29.528,0,0,1,59.056,29.528Z" transform="translate(0 16.873)" fill="none" stroke="#004bc1" stroke-linecap="round" stroke-linejoin="round" stroke-width="7"/><path d="M0,0V12.655l6.327,6.327" transform="translate(29.528 33.746)" fill="none" stroke="#004bc1" stroke-linecap="round" stroke-linejoin="round" stroke-width="7"/><path d="M38.091,68.969,36.615,85.125A8.437,8.437,0,0,1,28.178,92.8H9.913a8.437,8.437,0,0,1-8.437-7.677L0,68.969M.042,23.833,1.519,7.677A8.437,8.437,0,0,1,9.913,0h18.35A8.437,8.437,0,0,1,36.7,7.677l1.476,16.156" transform="translate(10.461 0)" fill="none" stroke="#004bc1" stroke-linecap="round" stroke-linejoin="round" stroke-width="7"/></g><path d="M24.637,29.564h9.855v9.855H24.637Zm14.782,0h9.855v9.855H39.419Zm14.782,0h9.855v9.855H54.2ZM9.855,59.128h9.855v9.855H9.855Zm14.782,0h9.855v9.855H24.637Zm14.782,0h9.855v9.855H39.419ZM24.637,44.346h9.855V54.2H24.637Zm14.782,0h9.855V54.2H39.419Zm14.782,0h9.855V54.2H54.2Zm-44.346,0h9.855V54.2H9.855ZM64.056,0V4.927H54.2V0H19.709V4.927H9.855V0H0V78.838H73.91V0H64.056Zm4.927,73.91H4.927v-54.2H68.983Z" transform="matrix(0.966, -0.259, 0.259, 0.966, 1152.396, 5214.367)" fill="#004bc1"/><path d="M57.25,41.837A28.625,28.625,0,1,1,24.221,13.556V8.808H20.368a1.656,1.656,0,0,1-1.651-1.651v-5.5A1.656,1.656,0,0,1,20.368,0H36.883a1.656,1.656,0,0,1,1.651,1.651v5.5a1.656,1.656,0,0,1-1.651,1.651H33.029v4.748A28.451,28.451,0,0,1,46.75,19.694l3.785-3.785a1.653,1.653,0,0,1,2.34,0L56.769,19.8a1.653,1.653,0,0,1,0,2.34l-4.046,4.046-.083.083A28.339,28.339,0,0,1,57.25,41.837ZM33.029,46.791V25.942a1.656,1.656,0,0,0-1.651-1.651h-5.5a1.656,1.656,0,0,0-1.651,1.651v20.85a1.656,1.656,0,0,0,1.651,1.651h5.5A1.656,1.656,0,0,0,33.029,46.791Z" transform="matrix(0.998, 0.07, -0.07, 0.998, 1293.572, 5223.876)" fill="#004bc1"/></g></svg>