<svg xmlns="http://www.w3.org/2000/svg" xmlns:xlink="http://www.w3.org/1999/xlink" width="353.411" height="265" viewBox="0 0 353.411 265"><defs><linearGradient id="a" x1="0.459" y1="0.758" x2="0.723" y2="-0.918" gradientUnits="objectBoundingBox"><stop offset="0" stop-color="#25054d"/><stop offset="1" stop-color="#45108a"/></linearGradient><linearGradient id="b" x1="0.992" y1="0.5" x2="-0.014" y2="0.5" gradientUnits="objectBoundingBox"><stop offset="0" stop-color="#45108a"/><stop offset="0.14" stop-color="#4c1199"/><stop offset="0.318" stop-color="#5915b3"/><stop offset="0.606" stop-color="#25054d"/><stop offset="0.833" stop-color="#3b0c75"/><stop offset="0.995" stop-color="#2f0960"/></linearGradient></defs><g transform="translate(-151 -5658)"><g transform="translate(371.407 5681.688)"><g transform="translate(0 150.581)"><path d="M450.716,342.053h-105.9v5.739h.018c0,.142-.018.283-.018.425,0,17.03,23.706,30.836,52.95,30.836s52.95-13.806,52.95-30.836c0-.142-.015-.283-.018-.425h.018Z" transform="translate(-344.815 -311.431)" fill="#03336e"/><ellipse cx="52.95" cy="30.835" rx="52.95" ry="30.835" fill="#2672ab"/><path d="M397.766,372.724c-28.926,0-52.419-13.51-52.927-30.284,0,.184-.023.367-.023.551,0,17.03,23.706,30.836,52.95,30.836s52.95-13.806,52.95-30.836c0-.184-.018-.367-.023-.551C450.185,359.215,426.692,372.724,397.766,372.724Z" transform="translate(-344.815 -311.178)" fill="#a8cff0"/></g><ellipse cx="44.663" cy="25.822" rx="44.663" ry="25.822" transform="translate(8.287 155.792)" fill="url(#a)"/><path d="M394.491,344.755c19.159,0,35.454,6.989,41.8,16.787a16.55,16.55,0,0,0,2.867-9.036c0-14.261-20-25.823-44.663-25.823s-44.663,11.562-44.663,25.823a16.537,16.537,0,0,0,2.867,9.036C359.036,351.744,375.332,344.755,394.491,344.755Z" transform="translate(-341.541 -170.892)" fill="url(#b)"/><g transform="translate(85.131 37.386)"><path d="M419.986,368.306a.828.828,0,0,1-.749-.476q-.694-1.488-1.44-2.946a.826.826,0,0,1,1.472-.752q.761,1.486,1.467,3a.826.826,0,0,1-.749,1.177Zm-3.829-7.326a.826.826,0,0,1-.714-.412q-.823-1.414-1.7-2.8a.827.827,0,0,1,1.4-.883q.89,1.414,1.728,2.855a.826.826,0,0,1-.3,1.131A.836.836,0,0,1,416.156,360.98Zm-4.467-6.954a.826.826,0,0,1-.675-.349q-.945-1.337-1.939-2.642a.826.826,0,0,1,1.314-1q1.012,1.324,1.976,2.687a.827.827,0,0,1-.2,1.152A.812.812,0,0,1,411.689,354.026Zm-5.066-6.524a.825.825,0,0,1-.63-.291q-1.061-1.25-2.169-2.459a.827.827,0,1,1,1.222-1.116q1.126,1.233,2.207,2.5a.829.829,0,0,1-.63,1.364Zm-5.63-6.051a.825.825,0,0,1-.585-.243,14.084,14.084,0,0,1-2.151-2.768.828.828,0,0,1,1.425-.843,12.289,12.289,0,0,0,1.895,2.442.828.828,0,0,1-.584,1.412Zm-3.7-7.243a.828.828,0,0,1-.815-.7,14.383,14.383,0,0,1-.175-2.235c0-.423.018-.846.056-1.265a.827.827,0,1,1,1.647.147c-.035.372-.05.744-.05,1.118a12.409,12.409,0,0,0,.155,1.973.83.83,0,0,1-.686.949A.878.878,0,0,1,397.294,334.206Zm1.233-8.039a.819.819,0,0,1-.369-.086.828.828,0,0,1-.37-1.109,14.02,14.02,0,0,1,1.951-2.913.826.826,0,1,1,1.247,1.085,12.332,12.332,0,0,0-1.718,2.568A.829.829,0,0,1,398.528,326.168Zm5.271-6.318a.827.827,0,0,1-.607-1.389q1.114-1.2,2.182-2.442a.827.827,0,0,1,1.253,1.078q-1.089,1.265-2.222,2.488A.826.826,0,0,1,403.8,319.85Zm5.339-6.308a.826.826,0,0,1-.653-1.333q1.007-1.3,1.959-2.626a.828.828,0,0,1,1.344.966q-.975,1.354-2,2.674A.828.828,0,0,1,409.138,313.542Zm4.763-6.749a.829.829,0,0,1-.7-1.275q.888-1.379,1.721-2.788a.826.826,0,0,1,1.422.842q-.851,1.433-1.751,2.84A.827.827,0,0,1,413.9,306.793Zm4.152-7.148a.824.824,0,0,1-.732-1.21q.761-1.451,1.468-2.93a.828.828,0,0,1,1.493.714q-.722,1.505-1.5,2.984A.827.827,0,0,1,418.053,299.646Zm3.507-7.483a.828.828,0,0,1-.762-1.146q.63-1.513,1.207-3.046a.826.826,0,0,1,1.546.58q-.585,1.562-1.228,3.1A.825.825,0,0,1,421.56,292.162Zm2.834-7.763a.8.8,0,0,1-.248-.04.826.826,0,0,1-.541-1.037q.5-1.565.932-3.141a.826.826,0,0,1,1.592.438q-.444,1.612-.949,3.2A.825.825,0,0,1,424.394,284.4Zm2.133-7.988a.814.814,0,0,1-.177-.018.826.826,0,0,1-.63-.985c.235-1.065.45-2.138.646-3.213a.841.841,0,0,1,.962-.666.83.83,0,0,1,.666.962q-.3,1.644-.661,3.272A.829.829,0,0,1,426.526,276.412Zm1.415-8.141a.747.747,0,0,1-.106-.007.828.828,0,0,1-.716-.926q.208-1.624.357-3.257a.861.861,0,0,1,.9-.751.826.826,0,0,1,.749.9q-.151,1.667-.362,3.32A.83.83,0,0,1,427.942,268.271Zm.675-8.239h-.031a.828.828,0,0,1-.8-.856q.06-1.637.06-3.279a.827.827,0,1,1,1.653,0q0,1.671-.06,3.34A.828.828,0,0,1,428.616,260.032Z" transform="translate(-396.304 -255.07)" fill="#0fbab8"/></g><g transform="translate(99.91 90.699)"><path d="M434.878,378.824a.854.854,0,0,1-.827-.83c0-.478,0-.951-.013-1.422a.827.827,0,0,1,.81-.843h.017a.827.827,0,0,1,.827.81c.01.484.015.971.013,1.462A.826.826,0,0,1,434.878,378.824Zm-.281-6.39a.824.824,0,0,1-.822-.757c-.093-1.095-.213-2.176-.355-3.247a.827.827,0,0,1,1.64-.217q.218,1.644.362,3.325a.826.826,0,0,1-.754.893C434.644,372.432,434.622,372.434,434.6,372.434Zm-1.172-8.176a.829.829,0,0,1-.809-.665q-.325-1.615-.714-3.191a.827.827,0,1,1,1.605-.4q.4,1.612.729,3.261a.828.828,0,0,1-.646.974A.813.813,0,0,1,433.425,364.258Zm-2.058-8a.827.827,0,0,1-.789-.579q-.494-1.57-1.045-3.1a.825.825,0,0,1,.5-1.056.834.834,0,0,1,1.058.5q.563,1.563,1.065,3.163a.825.825,0,0,1-.539,1.037A.8.8,0,0,1,431.367,356.257Zm-2.87-7.751a.827.827,0,0,1-.761-.5q-.647-1.518-1.339-2.993a.827.827,0,0,1,1.5-.7q.7,1.5,1.362,3.044a.827.827,0,0,1-.436,1.085A.841.841,0,0,1,428.5,348.506Zm-3.571-7.45a.824.824,0,0,1-.729-.436c-.516-.972-1.048-1.93-1.587-2.875a.826.826,0,0,1,1.434-.82q.823,1.436,1.614,2.917a.825.825,0,0,1-.731,1.215Zm-4.157-7.146a.828.828,0,0,1-.7-.385q-.885-1.4-1.789-2.756a.827.827,0,1,1,1.376-.918q.915,1.374,1.812,2.791a.827.827,0,0,1-.26,1.141A.817.817,0,0,1,420.768,333.909Zm-4.626-6.852a.825.825,0,0,1-.671-.346q-.967-1.349-1.943-2.655a.826.826,0,1,1,1.324-.987c.655.876,1.311,1.771,1.961,2.679a.828.828,0,0,1-.671,1.309Zm-4.972-6.607a.828.828,0,0,1-.65-.314c-.688-.876-1.376-1.736-2.055-2.581a.827.827,0,0,1,1.29-1.037q1.024,1.272,2.065,2.594a.826.826,0,0,1-.65,1.338Zm-4.573-6.823a.826.826,0,0,1-.785-.569,11.562,11.562,0,0,1-.569-3.5.826.826,0,0,1,.82-.833h.007a.826.826,0,0,1,.827.82,9.923,9.923,0,0,0,.488,3,.824.824,0,0,1-.787,1.083Zm.561-8.044a.825.825,0,0,1-.742-1.187,11.765,11.765,0,0,1,1.412-2.222l.526-.661a.827.827,0,1,1,1.3,1.022l-.541.678a10.1,10.1,0,0,0-1.212,1.906A.826.826,0,0,1,407.158,305.584Zm4.808-6.713a.827.827,0,0,1-.68-1.3q.937-1.344,1.825-2.721a.827.827,0,0,1,1.392.894q-.905,1.4-1.86,2.773A.829.829,0,0,1,411.966,298.871Zm4.4-6.99a.826.826,0,0,1-.721-1.234q.806-1.426,1.556-2.883a.827.827,0,1,1,1.47.759q-.764,1.483-1.586,2.938A.83.83,0,0,1,416.37,291.88Z" transform="translate(-405.243 -287.315)" fill="#a8cff0"/></g><path d="M441.5,398.93v-6.589a62.21,62.21,0,0,0-32.969-54.909l-4.681-2.492a3.016,3.016,0,0,1-.145-5.24l7.847-4.76A62.211,62.211,0,0,0,441.5,271.75V252.858H348.856v18.4a62.209,62.209,0,0,0,30.6,53.585l7.945,4.684a3.015,3.015,0,0,1-.145,5.274l-4.811,2.493a62.206,62.206,0,0,0-33.592,55.237v6.036c-.726,7.389,3.771,14.933,13.581,20.6,18.2,10.506,47.6,10.559,65.686.119C437.784,413.7,442.2,406.258,441.5,398.93Z" transform="translate(-342.225 -219.129)" fill="#f0f8ff"/><path d="M426.354,284.5c-4.677,6.776-10.865,12.088-18.239,16.559l-7.845,4.76a6.78,6.78,0,0,0-3.257,5.98c.045,1.582,1.417,15.22,2.366,24.507a14.838,14.838,0,0,0,9.743,12.508c15.18,5.375,27.135,4.638,27.135,22.858v6.769l.017.179c.585,6.076-3.613,12.176-11.514,16.739-8.145,4.7-19.072,7.291-30.771,7.291h0c-11.815,0-22.88-2.634-31.156-7.41-8.052-4.649-12.325-10.838-11.721-16.977l.018-.184v-6.218c0-18.506,12.182-17.835,27.688-23.24a14.856,14.856,0,0,0,9.833-12.453c1.009-9.29,2.464-22.924,2.508-24.53a6.777,6.777,0,0,0-3.328-6.018l-7.946-4.684a58.869,58.869,0,0,1-17.2-14.565Z" transform="translate(-340.74 -198.456)" fill="#fc0"/><ellipse cx="34.088" cy="19.851" rx="34.088" ry="19.851" transform="translate(19.16 60.046)" fill="#ffde17"/><g transform="translate(0 0)"><path d="M450.716,250.979h-105.9v5.739h.018c0,.142-.018.283-.018.425,0,17.03,23.706,30.834,52.95,30.834s52.95-13.8,52.95-30.834c0-.142-.015-.283-.018-.425h.018Z" transform="translate(-344.815 -220.357)" fill="#03336e"/><ellipse cx="52.95" cy="30.835" rx="52.95" ry="30.835" fill="#2672ab"/><path d="M397.766,281.651c-28.926,0-52.419-13.51-52.927-30.284,0,.184-.023.367-.023.551,0,17.03,23.706,30.836,52.95,30.836s52.95-13.806,52.95-30.836c0-.183-.018-.367-.023-.551C450.185,268.141,426.692,281.651,397.766,281.651Z" transform="translate(-344.815 -220.103)" fill="#a8cff0"/></g><path d="M386.4,324.276s-25.3,9.424-29.515,17.857-.744,14.137,7.44,14.633S366.561,342.877,386.4,324.276Z" transform="translate(-338.104 -172.465)" fill="#ffde17"/><g transform="translate(126.446 177.01)"><path d="M423.8,347.546a.959.959,0,0,1-.1,0,.828.828,0,0,1-.7-.612l-1.677-6.374a.826.826,0,1,1,1.6-.42l1.139,4.325,2.235-4.228a.827.827,0,1,1,1.463.772l-3.227,6.1A.828.828,0,0,1,423.8,347.546Z" transform="translate(-421.292 -339.517)" fill="#a8cff0"/></g></g><g transform="translate(151 5658)"><path d="M460.859,92.139s-3.754,14.151-14.093,22.275c-12.728,10-22.939,5.857-22.939,5.857s9.408-2.019,16.8-18.131c12.728-27.73-1.3-57.5-1.3-57.5S429.493,84.185,399.4,84.1c-19.026-.055-43.006,5.941-51.321,15.441a61.358,61.358,0,0,1,69.35,79.89c9.536-7.006,25.169-19.742,34.34-33.877C464.912,125.3,460.859,92.139,460.859,92.139Z" transform="translate(-209.786 -30.414)" fill="#d62d69"/><path d="M438.324,113.748s-3.421,10.68-10.524,13.841c-8.746,3.893-14.848-3.335-14.848-3.335s6.06,1.694,11.915-9.333c10.076-18.976,3.5-49.4,3.5-49.4s-9.148,30.08-28.043,19.095c-11.946-6.946-27.457-10.54-33.394-5.474a36.542,36.542,0,0,1,7.1,3.176c21.287,12.29,36.48,45.628,33.934,74.465a55.762,55.762,0,0,1-3.479,15.477c6.514-2.5,17.29-7.67,24.113-16.37C438.38,143.428,438.324,113.748,438.324,113.748Z" transform="translate(-198.041 -17.403)" fill="#eb4680"/><g transform="translate(0 0)"><ellipse cx="73.09" cy="25.993" rx="73.09" ry="25.993" transform="translate(70.67 199.873)" fill="#92b4d1" opacity="0.2"/><g transform="translate(46.163 53.907)"><path d="M424.992,191.542c0-37.968-26.824-84.235-59.911-103.337-15.954-9.211-30.45-10.424-41.187-4.956l-6.357,3.46,4.312,7.407a60.6,60.6,0,0,0-3.1,20.08c0,37.968,26.823,84.235,59.911,103.337a61.555,61.555,0,0,0,19.413,7.515l4.4,7.553,3.249-1.68C417.57,225.2,424.992,211.508,424.992,191.542Z" transform="translate(-274.972 -62.308)" fill="#2672ab"/><ellipse cx="48.764" cy="84.464" rx="48.764" ry="84.464" transform="translate(0 49.221) rotate(-30.311)" fill="#3f92d1"/></g><path d="M428.723,192.966c0-37.331-26.373-82.821-58.907-101.6-15.687-9.056-29.939-10.248-40.5-4.872l-.031-.057-31.831,17.313,4.239,7.282a59.6,59.6,0,0,0-3.045,19.744c0,37.331,26.375,82.819,58.907,101.6a60.517,60.517,0,0,0,19.088,7.389l4.323,7.426,28.807-15.506C421.426,226.06,428.723,212.6,428.723,192.966Z" transform="translate(-241.314 -6.348)" fill="#084c94"/><path d="M362.486,176.239l-9.392,4.275,7.817,17.181c.686,1.511,3.346,1.779,5.94.6s4.14-3.361,3.452-4.872Z" transform="translate(-206.661 51.556)" fill="#03336e"/><path d="M331.458,171.234l-7.035-7.55-13.811,12.871c-1.214,1.131-.623,3.737,1.321,5.823s4.5,2.856,5.714,1.725Z" transform="translate(-233.514 43.736)" fill="#03336e"/><path d="M405.5,201.423c0-37.968-26.823-84.235-59.911-103.337-15.954-9.211-30.45-10.422-41.187-4.955l-6.357,3.458L302.353,104a60.6,60.6,0,0,0-3.1,20.08c0,37.968,26.823,84.235,59.911,103.337a61.514,61.514,0,0,0,19.414,7.517l4.4,7.551,3.251-1.68C398.074,235.081,405.5,221.39,405.5,201.423Z" transform="translate(-240.952 -2.246)" fill="#2672ab"/><ellipse cx="48.764" cy="84.464" rx="48.764" ry="84.464" transform="translate(14.524 119.164) rotate(-30.311)" fill="#3f92d1"/><ellipse cx="41.612" cy="72.076" rx="41.612" ry="72.076" transform="translate(26.951 126.249) rotate(-30.311)" fill="#fff"/><path d="M337.7,99.7c-11.985-6.918-23.145-9.322-32.508-7.774,8.947-.935,19.393,1.59,30.554,8.035,33.089,19.1,59.911,65.369,59.911,103.337,0,24.216-10.914,39.207-27.4,41.933,17.576-1.835,29.358-17.034,29.358-42.194C397.612,165.07,370.787,118.806,337.7,99.7Z" transform="translate(-236.497 -1.239)" fill="#72b5e8"/><path d="M345.725,221.03c-28.236-16.3-51.125-55.781-51.125-88.181,0-16.222,5.74-27.593,15.015-32.858-10.489,4.688-17.1,16.5-17.1,33.9,0,32.4,22.889,71.88,51.123,88.181,14.1,8.139,26.862,8.96,36.11,3.71C370.714,229.821,358.8,228.577,345.725,221.03Z" transform="translate(-244.392 4.064)" fill="#084c94"/><path d="M327.889,142.06c0,1.772-1.251,2.486-2.8,1.6a6.164,6.164,0,0,1-2.795-4.823c0-1.772,1.251-2.485,2.795-1.594A6.158,6.158,0,0,1,327.889,142.06Z" transform="translate(-225.843 27.025)" fill="#001a46"/><g transform="translate(52.837 107.129)"><path d="M325.087,114.78h0a3.537,3.537,0,0,1-1.478-2.822V107c0-1.089.662-1.589,1.478-1.117h0a3.537,3.537,0,0,1,1.477,2.822v4.959C326.564,114.751,325.9,115.251,325.087,114.78Z" transform="translate(-277.864 -99.506)" fill="#72b5e8"/><path d="M325.087,176.077h0a3.537,3.537,0,0,1-1.478-2.822V168.3c0-1.089.662-1.589,1.478-1.117h0A3.54,3.54,0,0,1,326.564,170v4.959C326.564,176.048,325.9,176.548,325.087,176.077Z" transform="translate(-277.864 -61.327)" fill="#72b5e8"/><path d="M303.177,127.309h0c0,.936-.57,1.366-1.272.961l-5.213-3.01a3.042,3.042,0,0,1-1.271-2.428h0c0-.936.57-1.366,1.271-.961l5.213,3.009A3.045,3.045,0,0,1,303.177,127.309Z" transform="translate(-295.421 -89.532)" fill="#72b5e8"/><path d="M356.595,158.15h0c0,.936-.57,1.366-1.271.961l-5.213-3.009a3.045,3.045,0,0,1-1.272-2.429h0c0-.936.57-1.366,1.272-.961l5.213,3.009A3.048,3.048,0,0,1,356.595,158.15Z" transform="translate(-262.149 -70.322)" fill="#72b5e8"/><path d="M314.132,111.833h0c-.707.06-1.61-.738-2.019-1.785l-2.4-6.157c-.407-1.045-.165-1.943.54-2h0c.708-.06,1.61.738,2.019,1.785l2.4,6.157C315.08,110.876,314.838,111.773,314.132,111.833Z" transform="translate(-286.642 -101.885)" fill="#72b5e8"/><path d="M340.841,180.34h0c-.706.06-1.61-.74-2.019-1.785l-2.4-6.157c-.407-1.047-.166-1.944.542-2h0c.706-.06,1.61.74,2.017,1.787l2.4,6.156C341.789,179.382,341.547,180.28,340.841,180.34Z" transform="translate(-270.006 -59.216)" fill="#72b5e8"/><path d="M306.112,141.683h0c.407,1.047.166,1.944-.54,2l-4.158.354c-.706.06-1.61-.74-2.017-1.785h0c-.409-1.047-.167-1.944.54-2l4.158-.354C304.8,139.838,305.7,140.638,306.112,141.683Z" transform="translate(-293.069 -78.21)" fill="#72b5e8"/><path d="M352.374,137.744h0c.407,1.047.165,1.943-.542,2l-4.156.354c-.708.06-1.61-.738-2.019-1.785h0c-.407-1.045-.165-1.943.54-2l4.158-.354C351.063,135.9,351.965,136.7,352.374,137.744Z" transform="translate(-264.254 -80.664)" fill="#72b5e8"/><path d="M306.112,116.405h0c-.407.576-1.311.333-2.017-.544l-4.158-5.156a2.474,2.474,0,0,1-.54-2.627h0c.407-.574,1.311-.331,2.017.545l4.158,5.154A2.481,2.481,0,0,1,306.112,116.405Z" transform="translate(-293.069 -98.221)" fill="#72b5e8"/><path d="M352.374,173.763h0c-.409.576-1.311.331-2.019-.544l-4.158-5.156a2.481,2.481,0,0,1-.54-2.627h0c.409-.574,1.311-.331,2.019.545l4.156,5.154A2.479,2.479,0,0,1,352.374,173.763Z" transform="translate(-264.254 -62.495)" fill="#72b5e8"/><path d="M314.132,156.68h0a2.481,2.481,0,0,1,.54,2.627l-2.4,3.385c-.409.576-1.311.331-2.019-.544h0a2.483,2.483,0,0,1-.54-2.629l2.4-3.384C312.522,155.56,313.424,155.8,314.132,156.68Z" transform="translate(-286.642 -68.289)" fill="#72b5e8"/><path d="M340.841,119.016h0a2.481,2.481,0,0,1,.54,2.627l-2.4,3.385c-.407.575-1.311.331-2.017-.545h0a2.478,2.478,0,0,1-.542-2.627l2.4-3.385C339.231,117.9,340.135,118.139,340.841,119.016Z" transform="translate(-270.006 -91.748)" fill="#72b5e8"/></g><path d="M325.89,158.023l-2.7-1.56V113.152l2.7,1.56Z" transform="translate(-225.289 12.262)" fill="#001a46"/><path d="M324.634,138.714l-.828,1.167,36.532,45.294.828-1.167Z" transform="translate(-224.903 28.183)" fill="#001a46"/><path d="M325.955,140.564c0,.886-.626,1.243-1.4.8a3.082,3.082,0,0,1-1.4-2.412c0-.884.626-1.242,1.4-.8A3.081,3.081,0,0,1,325.955,140.564Z" transform="translate(-225.307 27.714)" fill="#eb4680"/><path d="M347.519,137.356l-1.47-2.535-5.955,3.4.385.664-36.925,21.052.7,1.208,36.924-21.052.385.664Z" transform="translate(-237.518 25.758)" fill="#eb4680"/><path d="M396.68,100.587c-14.312-14.877-35.333-17.876-46.951-6.7-.315.3-1.207,1.042-1.754,1.569-11.62,11.177-7.772,29.661,6.54,44.538s33.668,20.513,45.288,9.336c.313-.3,1.206-1.042,1.754-1.569C413.175,136.585,410.992,115.463,396.68,100.587Z" transform="translate(-214.11 -3.946)" fill="#fc0"/><path d="M267.375,133.177a.81.81,0,0,1-.761-.526l-.737-1.967-.325-1.177a.812.812,0,1,1,1.566-.427l.3,1.105.716,1.894a.813.813,0,0,1-.476,1.045A.8.8,0,0,1,267.375,133.177Zm-2.215-7.8a.811.811,0,0,1-.792-.643q-.346-1.614-.609-3.225a.811.811,0,0,1,1.6-.266q.26,1.575.6,3.153a.812.812,0,0,1-.625.962A.868.868,0,0,1,265.16,125.381Zm-1.222-8.017a.812.812,0,0,1-.808-.737q-.151-1.641-.224-3.277a.812.812,0,0,1,.774-.847.823.823,0,0,1,.847.774q.071,1.6.219,3.2a.811.811,0,0,1-.734.883C263.988,117.362,263.962,117.364,263.937,117.364Zm-.263-8.111h-.023a.81.81,0,0,1-.789-.833q.044-1.648.167-3.285a.794.794,0,0,1,.868-.748.811.811,0,0,1,.75.87q-.119,1.6-.162,3.207A.812.812,0,0,1,263.675,109.253Zm.7-8.083a.742.742,0,0,1-.118-.01.808.808,0,0,1-.685-.92q.239-1.626.555-3.238a.811.811,0,1,1,1.592.312q-.307,1.573-.542,3.163A.812.812,0,0,1,264.377,101.169Zm1.65-7.941a.869.869,0,0,1-.213-.028.812.812,0,0,1-.571-1q.429-1.582.928-3.148a.811.811,0,1,1,1.545.5q-.489,1.526-.907,3.075A.812.812,0,0,1,266.028,93.228Zm2.563-7.692a.809.809,0,0,1-.753-1.112q.606-1.524,1.282-3.019a.811.811,0,0,1,1.478.669q-.66,1.461-1.255,2.95A.809.809,0,0,1,268.59,85.536Zm3.421-7.347a.811.811,0,0,1-.714-1.194q.774-1.444,1.615-2.853a.811.811,0,1,1,1.394.829q-.82,1.38-1.579,2.791A.81.81,0,0,1,272.011,78.189Zm4.223-6.918A.811.811,0,0,1,275.567,70q.927-1.346,1.917-2.657a.812.812,0,1,1,1.3.979q-.966,1.28-1.874,2.6A.809.809,0,0,1,276.234,71.271Zm4.955-6.41a.812.812,0,0,1-.615-1.342q1.066-1.237,2.191-2.431a.811.811,0,0,1,1.183,1.11q-1.1,1.173-2.145,2.381A.8.8,0,0,1,281.189,64.861Zm5.61-5.839a.812.812,0,0,1-.555-1.405q1.2-1.115,2.442-2.189a.812.812,0,0,1,1.058,1.232q-1.222,1.049-2.39,2.144A.812.812,0,0,1,286.8,59.022ZM293,53.8a.811.811,0,0,1-.489-1.459q1.3-.986,2.655-1.921a.812.812,0,1,1,.925,1.334q-1.327.918-2.6,1.883A.808.808,0,0,1,293,53.8Zm6.715-4.549a.812.812,0,0,1-.422-1.506q1.4-.845,2.84-1.639a.811.811,0,1,1,.782,1.422q-1.412.777-2.782,1.605A.807.807,0,0,1,299.718,49.251Zm7.142-3.84a.812.812,0,0,1-.349-1.545q1.475-.7,2.989-1.344a.812.812,0,0,1,.638,1.493q-1.487.633-2.931,1.318A.826.826,0,0,1,306.861,45.411Zm7.49-3.108a.812.812,0,0,1-.274-1.576q1.536-.548,3.1-1.045a.812.812,0,1,1,.488,1.548q-1.541.484-3.046,1.026A.8.8,0,0,1,314.35,42.3Zm7.759-2.361a.812.812,0,0,1-.2-1.6q1.592-.4,3.194-.735a.812.812,0,1,1,.333,1.589q-1.57.329-3.13.721A.76.76,0,0,1,322.109,39.942Zm7.954-1.581a.812.812,0,0,1-.117-1.615q1.624-.239,3.252-.412a.811.811,0,0,1,.172,1.613q-1.6.17-3.187.4A.763.763,0,0,1,330.063,38.361Zm8.075-.777a.811.811,0,0,1-.036-1.621q1.636-.075,3.276-.083a.791.791,0,0,1,.816.807.813.813,0,0,1-.808.816q-1.607.007-3.212.081Z" transform="translate(-262.863 -35.873)" fill="#a8cff0"/><g transform="translate(12.883 12.904)"><path d="M274.5,123.691a.813.813,0,0,1-.76-.527l-.527-1.4L272.735,120a.811.811,0,1,1,1.568-.414l.458,1.678.5,1.332a.813.813,0,0,1-.475,1.045A.83.83,0,0,1,274.5,123.691Zm-2.042-7.84a.812.812,0,0,1-.8-.672q-.29-1.629-.48-3.255a.811.811,0,1,1,1.612-.191q.187,1.582.466,3.166a.809.809,0,0,1-.657.94A.846.846,0,0,1,272.463,115.851Zm-.828-8.066a.811.811,0,0,1-.811-.789c-.015-.537-.023-1.073-.023-1.61,0-.562.01-1.125.026-1.686a.833.833,0,0,1,.836-.787.812.812,0,0,1,.787.836c-.016.545-.026,1.091-.026,1.637q0,.781.023,1.564a.813.813,0,0,1-.787.834Zm.365-8.1a.653.653,0,0,1-.1-.007.813.813,0,0,1-.711-.9q.195-1.636.484-3.255a.8.8,0,0,1,.94-.657.811.811,0,0,1,.657.941q-.278,1.57-.467,3.165A.813.813,0,0,1,272,99.684Zm1.535-7.962a.811.811,0,0,1-.785-1.022q.428-1.587.945-3.152a.812.812,0,0,1,1.542.511q-.5,1.517-.919,3.062A.812.812,0,0,1,273.536,91.723Zm2.652-7.658a.811.811,0,0,1-.746-1.13q.645-1.512,1.375-2.988a.811.811,0,0,1,1.454.721q-.708,1.434-1.336,2.9A.812.812,0,0,1,276.187,84.064Zm3.687-7.217a.811.811,0,0,1-.7-1.229q.845-1.407,1.764-2.77a.811.811,0,1,1,1.345.907q-.9,1.329-1.717,2.7A.814.814,0,0,1,279.874,76.848Zm4.622-6.655a.811.811,0,0,1-.633-1.318q1.02-1.28,2.111-2.512a.812.812,0,1,1,1.214,1.078q-1.064,1.2-2.056,2.446A.813.813,0,0,1,284.5,70.192Zm5.453-5.995a.811.811,0,0,1-.565-1.394q1.178-1.139,2.421-2.225a.811.811,0,1,1,1.066,1.222q-1.21,1.059-2.358,2.168A.81.81,0,0,1,289.949,64.2Zm6.173-5.256a.812.812,0,0,1-.487-1.462q1.31-.981,2.678-1.9a.811.811,0,1,1,.907,1.345q-1.334.9-2.611,1.857A.816.816,0,0,1,296.123,58.941Zm6.779-4.45a.812.812,0,0,1-.406-1.516q1.422-.813,2.89-1.561a.811.811,0,0,1,.737,1.446q-1.434.73-2.819,1.524A.809.809,0,0,1,302.9,54.491Zm7.266-3.6a.812.812,0,0,1-.316-1.56q1.5-.635,3.054-1.207a.812.812,0,1,1,.56,1.524q-1.514.557-2.981,1.178A.812.812,0,0,1,310.167,50.895Zm7.64-2.717a.812.812,0,0,1-.229-1.59q1.582-.463,3.174-.846a.812.812,0,1,1,.38,1.579q-1.556.375-3.1.824A.8.8,0,0,1,317.807,48.178Zm7.9-1.806a.812.812,0,0,1-.133-1.613q1.621-.27,3.252-.464a.811.811,0,0,1,.191,1.611q-1.592.19-3.176.454A.754.754,0,0,1,325.711,46.372Zm8.064-.857a.811.811,0,0,1-.036-1.621q1.541-.071,3.085-.07a.811.811,0,0,1,0,1.623q-1.507,0-3.012.068Z" transform="translate(-270.801 -43.824)" fill="#0fbab8"/></g><g transform="translate(25.791 25.801)"><path d="M281.626,114.207a.81.81,0,0,1-.759-.526l-.318-.844-.26-.943c-6.668-24.481,9-49.867,35.67-57.793a55.864,55.864,0,0,1,15.911-2.33.811.811,0,0,1,0,1.623,54.232,54.232,0,0,0-15.45,2.264c-25.816,7.673-41,32.189-34.565,55.812l.531,1.641a.811.811,0,0,1-.759,1.1Z" transform="translate(-278.755 -51.771)" fill="#0fbab8"/></g><path d="M317.01,65.583c-19.536,5.8-31.329,23.77-26.784,40.455,3.546,9.448,20.938,7.851,40.474,2.045s33.934-13.655,31.524-23.442C356.541,68.295,336.548,59.776,317.01,65.583Z" transform="translate(-246.425 -18.503)" fill="#fc0"/><path d="M315.54,94.873c-10.317,2.954-18.551,1.293-19.862-3.285s4.8-10.346,15.115-13.3,19.744-1.634,21.055,2.946S325.858,91.919,315.54,94.873Z" transform="translate(-242.533 -10.435)" fill="#ffde17"/><path d="M379.35,95.2h0a5.161,5.161,0,0,0-7.3-.282c-2.374,2.205-3.6,3.351-3.6,3.351-1.225,1.13-.648,3.739,1.284,5.834s4.487,2.879,5.708,1.754c0,0,1.253-1.167,3.635-3.379A5.159,5.159,0,0,0,379.35,95.2Z" transform="translate(-197.502 0.049)" fill="#084c94"/><path d="M305.98,61.384h0a4.753,4.753,0,0,0-3.479,5.75c.8,2.744,1.217,4.166,1.217,4.166.407,1.412,2.757,1.149,5.377.394s4.513-1.714,4.109-3.119c0,0-.425-1.449-1.227-4.2A4.756,4.756,0,0,0,305.98,61.384Z" transform="translate(-238.279 -20.113)" fill="#084c94"/><path d="M353.914,130.072c-9.6-9.823-11.066-21.746-4.635-28.032s18.317-4.554,27.92,5.269,12.175,22.882,5.745,29.168S363.516,139.895,353.914,130.072Z" transform="translate(-211.475 3.041)" fill="#ffde17"/><g transform="translate(98.39 75.79)"><ellipse cx="4.636" cy="2.699" rx="4.636" ry="2.699" transform="translate(1.673 10.711)" fill="#001a46"/><path d="M332.968,86.509h-8.08v7.129h0l0,.023c0,1.31,1.809,2.363,4.041,2.363s4.039-1.053,4.039-2.353l0-.032h0Z" transform="translate(-322.619 -80.123)" fill="#03336e"/><path d="M332.968,84.472h-8.08V90.46h0l0,.028c0,1.091,1.809,1.975,4.041,1.975s4.039-.884,4.039-1.975l0-.018,0-.01Z" transform="translate(-322.619 -81.392)" fill="#022652" opacity="0.8"/><path d="M336.108,84.822H323.49v2.556h0l0,.05c0,2.029,2.825,3.674,6.31,3.674s6.308-1.646,6.308-3.674l0-.05h0Z" transform="translate(-323.49 -81.174)" fill="#03336e"/><path d="M323.49,86.248c0,2.029,2.825,3.674,6.31,3.674s6.308-1.646,6.308-3.674-2.824-3.674-6.308-3.674S323.49,84.22,323.49,86.248Z" transform="translate(-323.49 -82.574)" fill="#084c94"/><path d="M329.8,88.478c-3.447,0-6.246-1.61-6.306-3.609,0,0,0,.044,0,.067,0,2.029,2.825,3.674,6.31,3.674s6.308-1.646,6.308-3.674l0-.044C336.044,86.868,333.245,88.478,329.8,88.478Z" transform="translate(-323.49 -81.145)" fill="#2672ab"/></g></g></g></g></svg>